<svg height="2057" viewBox="0 0 3025 2057" width="3025" xmlns="http://www.w3.org/2000/svg"><g fill="none" fill-rule="evenodd"><path d="m2281.1 683.5c-.6-2.1-3.2-2.1-3.2-2.1l-19.9-.8-6.5-17.8s-.7-2.4-2.8-2.5c-2.1.1-2.8 2.5-2.8 2.5l-6.5 17.8-19.9.8s-2.6 0-3.2 2.1 1.5 3.4 1.5 3.4l15.6 11.6-5.8 19.8s-.7 2.1.8 3.2 3.3-.2 3.3-.2l17-11.7 17 11.7s1.8 1.4 3.3.2c1.5-1.1.8-3.2.8-3.2l-5.8-19.8 15.6-11.6c.1.1 2.2-1.3 1.5-3.4z" fill="#f2b387"/><path d="m917.7 10.7v242.4h-907.7v-242.4zm10-10h-927.7v262.4h927.7z" fill="#efefef" transform="translate(410 1091)"/><g stroke="#eae8e3" stroke-width="7" transform="translate(1833 744)"><path d="m907.8 245.4v6h-6"/><path d="m889.8 251.4h-877.8" stroke-dasharray="11.9437 11.9437"/><path d="m6 251.4h-6v-6"/><path d="m0 232.8v-219.9" stroke-dasharray="12.5676 12.5676"/><path d="m0 6.6v-6h6"/><path d="m17.9.6h877.9" stroke-dasharray="11.9437 11.9437"/><path d="m901.8.6h6v6"/><path d="m907.8 19.1v220" stroke-dasharray="12.5676 12.5676"/></g><g fill="#81a5cb"><path d="m2131.9 695.1h47.1v18.3h-47.1z"/><path d="m2131.9 668.9h47.1v18.3h-47.1z"/></g><path d="m2909 1918.3h-2883.1c-14 0-25.5-11.7-25.5-26.1v-1891.8h2934.1v1891.8c0 14.4-11.5 26.1-25.5 26.1z" fill="#6b6b6b" transform="translate(89 138)"/><path d="m.3 218.4v41.7-228.5c0-18 11.5-30.7 25.5-30.7h2884.2c14 0 25.5 12.7 25.5 30.7v228.5-41.7z" fill="#f2f2f2" transform="translate(89)"/><g transform="translate(137 45)"><circle cx="23.7" cy="28.8" fill="#f2b387" r="22.9"/><circle cx="95.9" cy="28.8" fill="#f4e2d7" r="22.9"/><circle cx="168.1" cy="28.8" fill="#64bdaf" r="22.9"/><path d="m259.1 28.8c0-18.3 14.8-28.4 24.5-28.4h2475.8c26.8 0 41.6 10.1 41.6 28.4s-14.8 30.7-33.1 30.7l-2475.8-2.4c-18.2.1-33-10-33-28.3z" fill="#a4a3a4"/></g><path d="m561.3 419.6h926.7v155.2h-926.7z" fill="#f4f3d1"/><path d="m1502.1 419.6h926.7v155.2h-926.7z" fill="#eae8e3"/><path d="m1502.1 585h926.7v155.2h-926.7z" fill="#eae8e3"/><path d="m2445.5 419.6h561.3v155.2h-561.3z" fill="#e4eff7"/><path d="m2445.5 585.2h561.3v155.2h-561.3z" fill="#e4eff7"/><path d="m2445.5 750.8h561.3v155.2h-561.3z" fill="#e4eff7"/><path d="m1502.1 750.7h926.7v73.2h-926.7z" fill="#5485b4"/><path d="m561.3 584.2h926.7v155.2h-926.7z" fill="#f4f3d1"/><path d="m561.3 748.8h926.7v155.2h-926.7z" fill="#f4f3d1"/><path d="m561.3 1080.4h926.6v73.2h-926.6z" fill="#5485b4"/><path d="m561.3 913.9h926.7v155.2h-926.7z" fill="#f4f3d1"/><g fill="#eae8e3"><path d="m561.3 1333.7h926.7v155.2h-926.7z"/><path d="m1502.1 835.5h926.7v155.2h-926.7z"/><path d="m1502.1 1002.4h926.7v155.2h-926.7z"/></g><path d="m561.3 1166.6h926.7v155.2h-926.7z" fill="#f4f3d1"/><path d="m103.7 419.1h440.8v80.9h-440.8z" fill="#5485b4"/><path d="m89.3 138.7h2934.9v173.3h-2934.9z" fill="#5485b4"/><path d="m2999 1h-2884.1c-14 0-25.5 12.7-25.5 30.7v106.8.2 79.8 41.7 51.8 1718.2c0 14.4 11.5 26.1 25.5 26.1h2883.1c14 0 25.5-11.7 25.5-26.1v-1718.2h.8v-93.6h.2v-186.8c0-17.9-11.5-30.6-25.5-30.6z" fill="#587387" opacity=".38"/><g transform="translate(0 315)"><path d="m17 1448.7c-7.4 0-13.5-6.1-13.5-13.5v-1417.3c0-7.4 6.1-13.5 13.5-13.5h1180c7.4 0 13.5 6.1 13.5 13.5v1417.3c0 7.4-6.1 13.5-13.5 13.5z" fill="#eae8e3"/><path d="m1197 7.9c5.5 0 10 4.5 10 10v1417.3c0 5.5-4.5 10-10 10h-1180c-5.5 0-10-4.5-10-10v-1417.3c0-5.5 4.5-10 10-10zm0-7h-1180c-9.4 0-17 7.6-17 17v1417.3c0 9.4 7.6 17 17 17h1180c9.4 0 17-7.6 17-17v-1417.3c0-9.4-7.6-17-17-17z" fill="#595b5c"/><g fill="#fff"><path d="m63.3 254.2h1082v174h-1082z"/><path d="m63.3 469.1h1082v259.1h-1082z"/><path d="m63.3 759.1h1082v292.4h-1082z"/><path d="m63.3 1092.1h1082v292.4h-1082z"/></g><g fill="#676767" transform="translate(67 76)"><path d="m1.3 30.4 5.4-.5c.3 2.1.8 3.9 1.8 5.3s2.4 2.5 4.3 3.3 4.2 1.3 6.6 1.3c2.2 0 4.1-.3 5.7-1s2.9-1.5 3.7-2.7c.8-1.1 1.2-2.3 1.2-3.7 0-1.3-.4-2.5-1.2-3.5s-2.1-1.9-3.9-2.5c-1.2-.4-3.7-1.1-7.6-2.1-3.9-.9-6.7-1.8-8.3-2.7-2.1-1.1-3.6-2.4-4.6-4s-1.5-3.4-1.5-5.3c0-2.2.6-4.2 1.8-6.1s3-3.3 5.4-4.3 5-1.5 7.9-1.5c3.2 0 6 .5 8.4 1.5s4.3 2.5 5.6 4.5 2 4.2 2.1 6.8l-5.4.4c-.3-2.7-1.3-4.8-3-6.2s-4.2-2.1-7.5-2.1c-3.4 0-5.9.6-7.5 1.9s-2.4 2.8-2.4 4.6c0 1.5.6 2.8 1.7 3.8s4 2 8.6 3.1c4.6 1 7.8 2 9.5 2.7 2.5 1.2 4.3 2.6 5.5 4.4s1.8 3.8 1.8 6.1-.7 4.4-2 6.5-3.2 3.6-5.6 4.7-5.2 1.7-8.3 1.7c-3.9 0-7.1-.6-9.8-1.7s-4.7-2.8-6.2-5.1c-1.4-2.1-2.1-4.7-2.2-7.6z"/><path d="m42.6 44.2v-42.9h5.3v15.4c2.5-2.9 5.6-4.3 9.3-4.3 2.3 0 4.3.5 6 1.4s2.9 2.2 3.6 3.8 1.1 3.9 1.1 7v19.7h-5.3v-19.7c0-2.6-.6-4.6-1.7-5.8s-2.8-1.8-4.8-1.8c-1.6 0-3 .4-4.4 1.2s-2.4 1.9-2.9 3.3c-.6 1.4-.9 3.3-.9 5.7v17z"/><path d="m74 28.7c0-5.8 1.6-10 4.8-12.8 2.7-2.3 5.9-3.5 9.8-3.5 4.3 0 7.8 1.4 10.5 4.2s4.1 6.7 4.1 11.6c0 4-.6 7.2-1.8 9.4-1.2 2.3-2.9 4.1-5.2 5.3s-4.8 1.9-7.5 1.9c-4.4 0-7.9-1.4-10.6-4.2-2.8-2.7-4.1-6.7-4.1-11.9zm5.4 0c0 4 .9 7 2.6 9s3.9 3 6.6 3c2.6 0 4.8-1 6.5-3s2.6-5 2.6-9.1c0-3.8-.9-6.8-2.6-8.7-1.7-2-3.9-3-6.5-3s-4.8 1-6.6 3c-1.8 1.8-2.6 4.8-2.6 8.8z"/><path d="m109.3 56.1v-43h4.8v4c1.1-1.6 2.4-2.8 3.8-3.6s3.2-1.2 5.2-1.2c2.7 0 5 .7 7 2.1s3.6 3.3 4.6 5.8 1.6 5.2 1.6 8.2c0 3.2-.6 6-1.7 8.6s-2.8 4.5-5 5.9-4.5 2-6.9 2c-1.8 0-3.3-.4-4.7-1.1s-2.5-1.7-3.4-2.8v15.1zm4.8-27.3c0 4 .8 7 2.4 8.9s3.6 2.9 5.9 2.9 4.4-1 6-3c1.7-2 2.5-5.1 2.5-9.2 0-4-.8-6.9-2.4-8.9s-3.6-3-5.8-3-4.2 1.1-6 3.1c-1.8 2.2-2.6 5.2-2.6 9.2z"/><path d="m142.7 56.1v-43h4.8v4c1.1-1.6 2.4-2.8 3.8-3.6s3.2-1.2 5.2-1.2c2.7 0 5 .7 7 2.1s3.6 3.3 4.6 5.8 1.6 5.2 1.6 8.2c0 3.2-.6 6-1.7 8.6s-2.8 4.5-5 5.9-4.5 2-6.9 2c-1.8 0-3.3-.4-4.7-1.1s-2.5-1.7-3.4-2.8v15.1zm4.7-27.3c0 4 .8 7 2.4 8.9s3.6 2.9 5.9 2.9 4.4-1 6-3c1.7-2 2.5-5.1 2.5-9.2 0-4-.8-6.9-2.4-8.9s-3.6-3-5.8-3-4.2 1.1-6 3.1c-1.7 2.2-2.6 5.2-2.6 9.2z"/><path d="m197.3 34.2 5.4.7c-.9 3.2-2.5 5.7-4.8 7.4s-5.3 2.6-8.9 2.6c-4.6 0-8.2-1.4-10.8-4.2-2.7-2.8-4-6.7-4-11.8 0-5.2 1.3-9.3 4-12.2s6.2-4.3 10.5-4.3c4.2 0 7.6 1.4 10.2 4.2s4 6.8 4 12v1.4h-23.2c.2 3.4 1.2 6 2.9 7.9s3.9 2.7 6.5 2.7c1.9 0 3.6-.5 5-1.5 1.3-1.1 2.4-2.7 3.2-4.9zm-17.3-8.5h17.4c-.2-2.6-.9-4.6-2-5.9-1.7-2-3.9-3-6.5-3-2.4 0-4.5.8-6.1 2.4-1.7 1.6-2.6 3.8-2.8 6.5z"/><path d="m209.3 44.2v-31.1h4.7v4.7c1.2-2.2 2.3-3.7 3.4-4.4s2.2-1.1 3.4-1.1c1.8 0 3.6.6 5.4 1.7l-1.8 4.9c-1.3-.8-2.6-1.1-3.9-1.1-1.2 0-2.2.3-3.1 1s-1.6 1.7-2 2.9c-.6 1.9-.9 3.9-.9 6.2v16.3z"/><path d="m243.9 34.9 5.2-.8c.3 2.1 1.1 3.7 2.4 4.8s3.2 1.7 5.6 1.7 4.2-.5 5.4-1.5 1.8-2.1 1.8-3.5c0-1.2-.5-2.1-1.6-2.8-.7-.5-2.5-1.1-5.4-1.8-3.9-1-6.5-1.8-8-2.5s-2.6-1.7-3.4-3-1.2-2.7-1.2-4.2c0-1.4.3-2.7 1-3.9.6-1.2 1.5-2.2 2.6-2.9.8-.6 1.9-1.1 3.4-1.5 1.4-.4 2.9-.6 4.6-.6 2.4 0 4.6.4 6.4 1.1s3.2 1.7 4.1 2.9 1.5 2.8 1.8 4.8l-5.2.7c-.2-1.6-.9-2.9-2-3.8s-2.7-1.3-4.8-1.3c-2.4 0-4.2.4-5.2 1.2s-1.6 1.7-1.6 2.8c0 .7.2 1.3.6 1.8.4.6 1.1 1 2 1.4.5.2 2.1.6 4.7 1.3 3.7 1 6.3 1.8 7.8 2.4s2.6 1.6 3.5 2.8c.8 1.2 1.3 2.7 1.3 4.5s-.5 3.4-1.5 5-2.5 2.8-4.4 3.6-4.1 1.3-6.6 1.3c-4 0-7.1-.8-9.2-2.5s-3.5-4.2-4.1-7.5z"/><path d="m276 44.2v-42.9h5.3v15.4c2.5-2.9 5.6-4.3 9.3-4.3 2.3 0 4.3.5 6 1.4s2.9 2.2 3.6 3.8 1.1 3.9 1.1 7v19.7h-5.3v-19.7c0-2.6-.6-4.6-1.7-5.8s-2.8-1.8-4.8-1.8c-1.6 0-3 .4-4.4 1.2s-2.4 1.9-2.9 3.3c-.6 1.4-.9 3.3-.9 5.7v17z"/><path d="m307.5 28.7c0-5.8 1.6-10 4.8-12.8 2.7-2.3 5.9-3.5 9.8-3.5 4.3 0 7.8 1.4 10.5 4.2s4.1 6.7 4.1 11.6c0 4-.6 7.2-1.8 9.4-1.2 2.3-2.9 4.1-5.2 5.3s-4.8 1.9-7.5 1.9c-4.4 0-7.9-1.4-10.6-4.2-2.8-2.7-4.1-6.7-4.1-11.9zm5.4 0c0 4 .9 7 2.6 9s3.9 3 6.6 3c2.6 0 4.8-1 6.5-3s2.6-5 2.6-9.1c0-3.8-.9-6.8-2.6-8.7-1.7-2-3.9-3-6.5-3s-4.8 1-6.6 3c-1.8 1.8-2.6 4.8-2.6 8.8z"/><path d="m363.2 44.2v-4.6c-2.4 3.5-5.7 5.3-9.9 5.3-1.8 0-3.5-.4-5.1-1.1s-2.8-1.6-3.5-2.7c-.8-1.1-1.3-2.4-1.6-3.9-.2-1-.3-2.7-.3-4.9v-19.3h5.3v17.3c0 2.8.1 4.6.3 5.6.3 1.4 1 2.5 2.1 3.3s2.4 1.2 4 1.2 3.1-.4 4.5-1.2 2.4-1.9 2.9-3.3c.6-1.4.9-3.4.9-6.1v-16.7h5.3v31.1z"/><path d="m376 44.2v-42.9h5.3v42.9z"/><path d="m409.7 44.2v-3.9c-2 3.1-4.9 4.6-8.7 4.6-2.5 0-4.8-.7-6.8-2.1s-3.7-3.3-4.8-5.7c-1.1-2.5-1.7-5.3-1.7-8.5 0-3.1.5-5.9 1.6-8.5 1-2.5 2.6-4.5 4.7-5.8s4.4-2 6.9-2c1.9 0 3.5.4 5 1.2s2.7 1.8 3.6 3.1v-15.4h5.2v42.9h-5zm-16.7-15.5c0 4 .8 7 2.5 8.9 1.7 2 3.7 3 5.9 3 2.3 0 4.3-.9 5.9-2.8s2.4-4.8 2.4-8.6c0-4.3-.8-7.4-2.5-9.4s-3.7-3-6.1-3c-2.3 0-4.3 1-5.9 2.9-1.4 1.8-2.2 4.9-2.2 9z"/><path d="m444.4 44.2h-4.9v-42.9h5.3v15.3c2.2-2.8 5.1-4.2 8.5-4.2 1.9 0 3.7.4 5.4 1.2s3.1 1.9 4.2 3.3 2 3.1 2.6 5.1.9 4.1.9 6.3c0 5.3-1.3 9.5-4 12.4-2.6 2.9-5.8 4.4-9.5 4.4s-6.6-1.5-8.6-4.6v3.7zm-.1-15.8c0 3.7.5 6.4 1.5 8.1 1.7 2.7 3.9 4.1 6.7 4.1 2.3 0 4.3-1 6-3s2.5-5 2.5-9c0-4.1-.8-7.1-2.4-9s-3.6-2.9-5.8-2.9c-2.3 0-4.3 1-6 3-1.6 2-2.5 4.9-2.5 8.7z"/><path d="m494.2 34.2 5.4.7c-.9 3.2-2.5 5.7-4.8 7.4s-5.3 2.6-8.9 2.6c-4.6 0-8.2-1.4-10.8-4.2-2.7-2.8-4-6.7-4-11.8 0-5.2 1.3-9.3 4-12.2s6.2-4.3 10.5-4.3c4.2 0 7.6 1.4 10.2 4.2s4 6.8 4 12v1.4h-23.2c.2 3.4 1.2 6 2.9 7.9s3.9 2.7 6.5 2.7c1.9 0 3.6-.5 5-1.5 1.3-1.1 2.4-2.7 3.2-4.9zm-17.3-8.5h17.4c-.2-2.6-.9-4.6-2-5.9-1.7-2-3.9-3-6.5-3-2.4 0-4.5.8-6.1 2.4-1.7 1.6-2.6 3.8-2.8 6.5z"/><path d="m543.2 40.4c-2 1.7-3.8 2.8-5.6 3.5s-3.7 1-5.8 1c-3.4 0-6-.8-7.9-2.5s-2.8-3.8-2.8-6.4c0-1.5.3-2.9 1-4.2s1.6-2.3 2.7-3 2.4-1.3 3.8-1.7c1-.3 2.6-.5 4.7-.8 4.3-.5 7.4-1.1 9.4-1.8v-1.4c0-2.1-.5-3.7-1.5-4.5-1.3-1.2-3.3-1.8-6-1.8-2.5 0-4.3.4-5.5 1.3s-2.1 2.4-2.6 4.6l-5.2-.7c.5-2.2 1.2-4 2.3-5.3 1.1-1.4 2.6-2.4 4.7-3.1s4.4-1.1 7.1-1.1 4.8.3 6.5.9 2.9 1.4 3.7 2.4c.8.9 1.3 2.1 1.6 3.6.2.9.3 2.5.3 4.9v7c0 4.9.1 8 .3 9.3s.7 2.5 1.3 3.7h-5.5c-.5-1.2-.8-2.5-1-3.9zm-.4-11.8c-1.9.8-4.8 1.4-8.6 2-2.2.3-3.7.7-4.6 1.1s-1.6 1-2.1 1.7c-.5.8-.7 1.6-.7 2.5 0 1.4.5 2.6 1.6 3.5s2.6 1.4 4.7 1.4c2 0 3.8-.4 5.4-1.3s2.7-2.1 3.5-3.6c.6-1.2.8-2.9.8-5.3z"/><path d="m561.2 44.2h-4.9v-42.9h5.3v15.3c2.2-2.8 5.1-4.2 8.5-4.2 1.9 0 3.7.4 5.4 1.2s3.1 1.9 4.2 3.3 2 3.1 2.6 5.1.9 4.1.9 6.3c0 5.3-1.3 9.5-4 12.4-2.6 2.9-5.8 4.4-9.5 4.4s-6.6-1.5-8.6-4.6v3.7zm-.1-15.8c0 3.7.5 6.4 1.5 8.1 1.7 2.7 3.9 4.1 6.7 4.1 2.3 0 4.3-1 6-3s2.5-5 2.5-9c0-4.1-.8-7.1-2.4-9s-3.6-2.9-5.8-2.9c-2.3 0-4.3 1-6 3s-2.5 4.9-2.5 8.7z"/><path d="m589.6 44.2v-42.9h5.3v42.9z"/><path d="m624.3 34.2 5.4.7c-.9 3.2-2.5 5.7-4.8 7.4s-5.3 2.6-8.9 2.6c-4.6 0-8.2-1.4-10.8-4.2-2.7-2.8-4-6.7-4-11.8 0-5.2 1.3-9.3 4-12.2s6.2-4.3 10.5-4.3c4.2 0 7.6 1.4 10.2 4.2s4 6.8 4 12v1.4h-23.2c.2 3.4 1.2 6 2.9 7.9s3.9 2.7 6.5 2.7c1.9 0 3.6-.5 5-1.5 1.3-1.1 2.4-2.7 3.2-4.9zm-17.3-8.5h17.4c-.2-2.6-.9-4.6-2-5.9-1.7-2-3.9-3-6.5-3-2.4 0-4.5.8-6.1 2.4-1.7 1.6-2.6 3.8-2.8 6.5z"/><path d="m664.6 39.5.8 4.7c-1.5.3-2.8.5-4 .5-1.9 0-3.4-.3-4.5-.9s-1.8-1.4-2.2-2.4-.6-3.1-.6-6.2v-17.9h-3.9v-4.1h3.9v-7.7l5.2-3.2v10.9h5.3v4.1h-5.3v18.2c0 1.5.1 2.5.3 2.9s.5.8.9 1c.4.3 1 .4 1.8.4.5-.1 1.3-.2 2.3-.3z"/><path d="m667.7 28.7c0-5.8 1.6-10 4.8-12.8 2.7-2.3 5.9-3.5 9.8-3.5 4.3 0 7.8 1.4 10.5 4.2s4.1 6.7 4.1 11.6c0 4-.6 7.2-1.8 9.4-1.2 2.3-2.9 4.1-5.2 5.3s-4.8 1.9-7.5 1.9c-4.4 0-7.9-1.4-10.6-4.2-2.7-2.7-4.1-6.7-4.1-11.9zm5.5 0c0 4 .9 7 2.6 9s3.9 3 6.6 3c2.6 0 4.8-1 6.5-3s2.6-5 2.6-9.1c0-3.8-.9-6.8-2.6-8.7-1.7-2-3.9-3-6.5-3s-4.8 1-6.6 3c-1.8 1.8-2.6 4.8-2.6 8.8z"/><path d="m728.4 44.2-11.8-31.1h5.6l6.7 18.6c.7 2 1.4 4.1 2 6.3.5-1.6 1.1-3.6 2-5.9l6.9-19h5.4l-11.8 31.1z"/><path d="m749.8 7.3v-6.1h5.3v6.1zm0 36.9v-31.1h5.3v31.1z"/><path d="m784.4 34.2 5.4.7c-.9 3.2-2.5 5.7-4.8 7.4s-5.3 2.6-8.9 2.6c-4.6 0-8.2-1.4-10.8-4.2-2.7-2.8-4-6.7-4-11.8 0-5.2 1.3-9.3 4-12.2s6.2-4.3 10.5-4.3c4.2 0 7.6 1.4 10.2 4.2s4 6.8 4 12v1.4h-23.2c.2 3.4 1.2 6 2.9 7.9s3.9 2.7 6.5 2.7c1.9 0 3.6-.5 5-1.5 1.3-1.1 2.4-2.7 3.2-4.9zm-17.3-8.5h17.4c-.2-2.6-.9-4.6-2-5.9-1.7-2-3.9-3-6.5-3-2.4 0-4.5.8-6.1 2.4-1.7 1.6-2.7 3.8-2.8 6.5z"/><path d="m802.2 44.2-9.5-31.1h5.4l5 18 1.8 6.7c.1-.3.6-2.5 1.6-6.4l5-18.2h5.4l4.7 18 1.6 5.9 1.8-6 5.3-18h5.1l-9.7 31.1h-5.5l-5-18.6-1.2-5.3-6.3 23.9z"/><path d="m868 39.5.8 4.7c-1.5.3-2.8.5-4 .5-1.9 0-3.4-.3-4.5-.9s-1.8-1.4-2.2-2.4-.6-3.1-.6-6.2v-17.9h-3.9v-4.1h3.9v-7.7l5.2-3.2v10.9h5.3v4.1h-5.3v18.2c0 1.5.1 2.5.3 2.9s.5.8.9 1c.4.3 1 .4 1.8.4.5-.1 1.3-.2 2.3-.3z"/><path d="m873.1 44.2v-42.9h5.3v15.4c2.5-2.9 5.6-4.3 9.3-4.3 2.3 0 4.3.5 6 1.4s2.9 2.2 3.6 3.8 1.1 3.9 1.1 7v19.7h-5.3v-19.7c0-2.6-.6-4.6-1.7-5.8s-2.8-1.8-4.8-1.8c-1.6 0-3 .4-4.4 1.2s-2.4 1.9-2.9 3.3c-.6 1.4-.9 3.3-.9 5.7v17z"/><path d="m927.8 34.2 5.4.7c-.9 3.2-2.5 5.7-4.8 7.4s-5.3 2.6-8.9 2.6c-4.6 0-8.2-1.4-10.8-4.2-2.7-2.8-4-6.7-4-11.8 0-5.2 1.3-9.3 4-12.2s6.2-4.3 10.5-4.3c4.2 0 7.6 1.4 10.2 4.2s4 6.8 4 12v1.4h-23.2c.2 3.4 1.2 6 2.9 7.9s3.9 2.7 6.5 2.7c1.9 0 3.6-.5 5-1.5 1.3-1.1 2.4-2.7 3.2-4.9zm-17.3-8.5h17.4c-.2-2.6-.9-4.6-2-5.9-1.7-2-3.9-3-6.5-3-2.4 0-4.5.8-6.1 2.4-1.7 1.6-2.7 3.8-2.8 6.5z"/><path d="m22.8 97.8 5.2.7c-.6 3.6-2 6.4-4.4 8.4s-5.2 3-8.6 3c-4.3 0-7.7-1.4-10.3-4.2s-3.9-6.8-3.9-12c0-3.4.6-6.3 1.7-8.8s2.8-4.4 5.1-5.7 4.8-1.9 7.4-1.9c3.4 0 6.1.9 8.3 2.6 2.1 1.7 3.5 4.1 4.1 7.3l-5.1.8c-.5-2.1-1.4-3.7-2.6-4.7s-2.7-1.6-4.5-1.6c-2.7 0-4.8 1-6.5 2.9s-2.5 4.9-2.5 9c0 4.2.8 7.2 2.4 9.1s3.7 2.8 6.3 2.8c2.1 0 3.8-.6 5.2-1.9 1.5-1.2 2.4-3.1 2.7-5.8z"/><path d="m30.6 93.7c0-5.8 1.6-10 4.8-12.8 2.7-2.3 5.9-3.5 9.8-3.5 4.3 0 7.8 1.4 10.5 4.2s4.1 6.7 4.1 11.6c0 4-.6 7.2-1.8 9.4-1.2 2.3-2.9 4.1-5.2 5.3s-4.8 1.9-7.5 1.9c-4.4 0-7.9-1.4-10.6-4.2-2.8-2.7-4.1-6.7-4.1-11.9zm5.4 0c0 4 .9 7 2.6 9s3.9 3 6.6 3c2.6 0 4.8-1 6.5-3s2.6-5 2.6-9.1c0-3.8-.9-6.8-2.6-8.7-1.7-2-3.9-3-6.5-3s-4.8 1-6.6 3c-1.7 1.8-2.6 4.8-2.6 8.8z"/><path d="m65.9 109.2v-31.1h4.7v4.4c2.3-3.4 5.6-5.1 9.9-5.1 1.9 0 3.6.3 5.2 1s2.7 1.6 3.5 2.7 1.3 2.4 1.6 3.9c.2 1 .3 2.7.3 5.1v19.1h-5.3v-18.9c0-2.1-.2-3.8-.6-4.8-.4-1.1-1.1-1.9-2.2-2.5-1-.6-2.3-1-3.7-1-2.2 0-4.2.7-5.8 2.1s-2.4 4.1-2.4 8.1v17z"/><path d="m110.8 104.5.8 4.7c-1.5.3-2.8.5-4 .5-1.9 0-3.4-.3-4.5-.9s-1.8-1.4-2.2-2.4-.6-3.1-.6-6.2v-17.9h-3.9v-4.1h3.9v-7.7l5.2-3.2v10.9h5.3v4.1h-5.3v18.2c0 1.5.1 2.5.3 2.9s.5.8.9 1c.4.3 1 .4 1.8.4.6-.1 1.3-.2 2.3-.3z"/><path d="m137.2 99.2 5.4.7c-.9 3.2-2.5 5.7-4.8 7.4s-5.3 2.6-8.9 2.6c-4.6 0-8.2-1.4-10.8-4.2-2.7-2.8-4-6.7-4-11.8 0-5.2 1.3-9.3 4-12.2s6.2-4.3 10.5-4.3c4.2 0 7.6 1.4 10.2 4.2s4 6.8 4 12v1.4h-23.2c.2 3.4 1.2 6 2.9 7.9s3.9 2.7 6.5 2.7c1.9 0 3.6-.5 5-1.5 1.4-1.1 2.4-2.7 3.2-4.9zm-17.3-8.5h17.4c-.2-2.6-.9-4.6-2-5.9-1.7-2-3.9-3-6.5-3-2.4 0-4.5.8-6.1 2.4-1.7 1.6-2.6 3.8-2.8 6.5z"/><path d="m149.3 109.2v-31.1h4.7v4.4c2.3-3.4 5.6-5.1 9.9-5.1 1.9 0 3.6.3 5.2 1s2.7 1.6 3.5 2.7 1.3 2.4 1.6 3.9c.2 1 .3 2.7.3 5.1v19.1h-5.3v-18.9c0-2.1-.2-3.8-.6-4.8-.4-1.1-1.1-1.9-2.2-2.5-1-.6-2.3-1-3.7-1-2.2 0-4.2.7-5.8 2.1s-2.4 4.1-2.4 8.1v17z"/><path d="m194.2 104.5.8 4.7c-1.5.3-2.8.5-4 .5-1.9 0-3.4-.3-4.5-.9s-1.8-1.4-2.2-2.4-.6-3.1-.6-6.2v-17.9h-3.9v-4.1h3.9v-7.7l5.2-3.2v10.9h5.3v4.1h-5.3v18.2c0 1.5.1 2.5.3 2.9s.5.8.9 1c.4.3 1 .4 1.8.4.6-.1 1.3-.2 2.3-.3z"/><path d="m197.2 99.9 5.2-.8c.3 2.1 1.1 3.7 2.4 4.8s3.2 1.7 5.6 1.7 4.2-.5 5.4-1.5 1.8-2.1 1.8-3.5c0-1.2-.5-2.1-1.6-2.8-.7-.5-2.5-1.1-5.4-1.8-3.9-1-6.5-1.8-8-2.5s-2.6-1.7-3.4-3-1.2-2.7-1.2-4.2c0-1.4.3-2.7 1-3.9.6-1.2 1.5-2.2 2.6-2.9.8-.6 1.9-1.1 3.4-1.5 1.4-.4 2.9-.6 4.6-.6 2.4 0 4.6.4 6.4 1.1s3.2 1.7 4.1 2.9 1.5 2.8 1.8 4.8l-5.2.7c-.2-1.6-.9-2.9-2-3.8s-2.7-1.3-4.8-1.3c-2.4 0-4.2.4-5.2 1.2s-1.6 1.7-1.6 2.8c0 .7.2 1.3.6 1.8.4.6 1.1 1 2 1.4.5.2 2.1.6 4.7 1.3 3.7 1 6.3 1.8 7.8 2.4s2.6 1.6 3.5 2.8c.8 1.2 1.3 2.7 1.3 4.5s-.5 3.4-1.5 5-2.5 2.8-4.4 3.6-4.1 1.3-6.6 1.3c-4 0-7.1-.8-9.2-2.5s-3.5-4.2-4.1-7.5z"/><path d="m244.1 93.7c0-5.8 1.6-10 4.8-12.8 2.7-2.3 5.9-3.5 9.8-3.5 4.3 0 7.8 1.4 10.5 4.2s4.1 6.7 4.1 11.6c0 4-.6 7.2-1.8 9.4-1.2 2.3-2.9 4.1-5.2 5.3s-4.8 1.9-7.5 1.9c-4.4 0-7.9-1.4-10.6-4.2-2.8-2.7-4.1-6.7-4.1-11.9zm5.4 0c0 4 .9 7 2.6 9s3.9 3 6.6 3c2.6 0 4.8-1 6.5-3s2.6-5 2.6-9.1c0-3.8-.9-6.8-2.6-8.7-1.7-2-3.9-3-6.5-3s-4.8 1-6.6 3c-1.8 1.8-2.6 4.8-2.6 8.8z"/><path d="m280.6 109.2v-27h-4.6v-4.1h4.7v-3.3c0-2.1.2-3.6.6-4.7.5-1.4 1.4-2.5 2.7-3.3s3.1-1.3 5.4-1.3c1.5 0 3.1.2 4.9.5l-.8 4.6c-1.1-.2-2.1-.3-3.1-.3-1.6 0-2.7.3-3.4 1s-1 2-1 3.8v2.9h6.1v4.1h-6.1v27h-5.4z"/><path d="m324.2 104.5.8 4.7c-1.5.3-2.8.5-4 .5-1.9 0-3.4-.3-4.5-.9s-1.8-1.4-2.2-2.4-.6-3.1-.6-6.2v-17.9h-3.9v-4.1h3.9v-7.7l5.2-3.2v10.9h5.3v4.1h-5.3v18.2c0 1.5.1 2.5.3 2.9s.5.8.9 1c.4.3 1 .4 1.8.4.6-.1 1.4-.2 2.3-.3z"/><path d="m329.4 109.2v-42.9h5.3v15.4c2.5-2.9 5.6-4.3 9.3-4.3 2.3 0 4.3.5 6 1.4s2.9 2.2 3.6 3.8 1.1 3.9 1.1 7v19.7h-5.3v-19.7c0-2.6-.6-4.6-1.7-5.8s-2.8-1.8-4.8-1.8c-1.6 0-3 .4-4.4 1.2s-2.4 1.9-2.9 3.3c-.6 1.4-.9 3.3-.9 5.7v17z"/><path d="m384.1 99.2 5.4.7c-.9 3.2-2.5 5.7-4.8 7.4s-5.3 2.6-8.9 2.6c-4.6 0-8.2-1.4-10.8-4.2-2.7-2.8-4-6.7-4-11.8 0-5.2 1.3-9.3 4-12.2s6.2-4.3 10.5-4.3c4.2 0 7.6 1.4 10.2 4.2s4 6.8 4 12v1.4h-23.2c.2 3.4 1.2 6 2.9 7.9s3.9 2.7 6.5 2.7c1.9 0 3.6-.5 5-1.5 1.3-1.1 2.4-2.7 3.2-4.9zm-17.3-8.5h17.4c-.2-2.6-.9-4.6-2-5.9-1.7-2-3.9-3-6.5-3-2.4 0-4.5.8-6.1 2.4-1.8 1.6-2.7 3.8-2.8 6.5z"/><path d="m396.2 72.3v-6.1h5.3v6.1zm0 36.9v-31.1h5.3v31.1z"/><path d="m409.4 109.2v-31.1h4.7v4.7c1.2-2.2 2.3-3.7 3.4-4.4s2.2-1.1 3.4-1.1c1.8 0 3.6.6 5.4 1.7l-1.8 4.9c-1.3-.8-2.6-1.1-3.9-1.1-1.2 0-2.2.3-3.1 1s-1.6 1.7-2 2.9c-.6 1.9-.9 3.9-.9 6.2v16.3z"/><path d="m444 99.9 5.2-.8c.3 2.1 1.1 3.7 2.4 4.8s3.2 1.7 5.6 1.7 4.2-.5 5.4-1.5 1.8-2.1 1.8-3.5c0-1.2-.5-2.1-1.6-2.8-.7-.5-2.5-1.1-5.4-1.8-3.9-1-6.5-1.8-8-2.5s-2.6-1.7-3.4-3-1.2-2.7-1.2-4.2c0-1.4.3-2.7 1-3.9.6-1.2 1.5-2.2 2.6-2.9.8-.6 1.9-1.1 3.4-1.5 1.4-.4 2.9-.6 4.6-.6 2.4 0 4.6.4 6.4 1.1s3.2 1.7 4.1 2.9 1.5 2.8 1.8 4.8l-5.2.7c-.2-1.6-.9-2.9-2-3.8s-2.7-1.3-4.8-1.3c-2.4 0-4.2.4-5.2 1.2s-1.6 1.7-1.6 2.8c0 .7.2 1.3.6 1.8.4.6 1.1 1 2 1.4.5.2 2.1.6 4.7 1.3 3.7 1 6.3 1.8 7.8 2.4s2.6 1.6 3.5 2.8c.8 1.2 1.3 2.7 1.3 4.5s-.5 3.4-1.5 5-2.5 2.8-4.4 3.6-4.1 1.3-6.6 1.3c-4 0-7.1-.8-9.2-2.5-2.2-1.7-3.5-4.2-4.1-7.5z"/><path d="m476.1 109.2v-42.9h5.3v15.4c2.5-2.9 5.6-4.3 9.3-4.3 2.3 0 4.3.5 6 1.4s2.9 2.2 3.6 3.8 1.1 3.9 1.1 7v19.7h-5.3v-19.7c0-2.6-.6-4.6-1.7-5.8s-2.8-1.8-4.8-1.8c-1.6 0-3 .4-4.4 1.2s-2.4 1.9-2.9 3.3c-.6 1.4-.9 3.3-.9 5.7v17z"/><path d="m507.5 93.7c0-5.8 1.6-10 4.8-12.8 2.7-2.3 5.9-3.5 9.8-3.5 4.3 0 7.8 1.4 10.5 4.2s4.1 6.7 4.1 11.6c0 4-.6 7.2-1.8 9.4-1.2 2.3-2.9 4.1-5.2 5.3s-4.8 1.9-7.5 1.9c-4.4 0-7.9-1.4-10.6-4.2-2.7-2.7-4.1-6.7-4.1-11.9zm5.4 0c0 4 .9 7 2.6 9s3.9 3 6.6 3c2.6 0 4.8-1 6.5-3s2.6-5 2.6-9.1c0-3.8-.9-6.8-2.6-8.7-1.7-2-3.9-3-6.5-3s-4.8 1-6.6 3c-1.7 1.8-2.6 4.8-2.6 8.8z"/><path d="m542.9 121.1v-43h4.8v4c1.1-1.6 2.4-2.8 3.8-3.6s3.2-1.2 5.2-1.2c2.7 0 5 .7 7 2.1s3.6 3.3 4.6 5.8 1.6 5.2 1.6 8.2c0 3.2-.6 6-1.7 8.6s-2.8 4.5-5 5.9-4.5 2-6.9 2c-1.8 0-3.3-.4-4.7-1.1s-2.5-1.7-3.4-2.8v15.1zm4.7-27.3c0 4 .8 7 2.4 8.9s3.6 2.9 5.9 2.9 4.4-1 6-3c1.7-2 2.5-5.1 2.5-9.2 0-4-.8-6.9-2.4-8.9s-3.6-3-5.8-3-4.2 1.1-6 3.1c-1.7 2.2-2.6 5.2-2.6 9.2z"/><path d="m576.2 121.1v-43h4.8v4c1.1-1.6 2.4-2.8 3.8-3.6s3.2-1.2 5.2-1.2c2.7 0 5 .7 7 2.1s3.6 3.3 4.6 5.8 1.6 5.2 1.6 8.2c0 3.2-.6 6-1.7 8.6s-2.8 4.5-5 5.9-4.5 2-6.9 2c-1.8 0-3.3-.4-4.7-1.1s-2.5-1.7-3.4-2.8v15.1zm4.8-27.3c0 4 .8 7 2.4 8.9s3.6 2.9 5.9 2.9 4.4-1 6-3c1.7-2 2.5-5.1 2.5-9.2 0-4-.8-6.9-2.4-8.9s-3.6-3-5.8-3-4.2 1.1-6 3.1c-1.7 2.2-2.6 5.2-2.6 9.2z"/><path d="m609.6 72.3v-6.1h5.3v6.1zm0 36.9v-31.1h5.3v31.1z"/><path d="m622.9 109.2v-31.1h4.7v4.4c2.3-3.4 5.6-5.1 9.9-5.1 1.9 0 3.6.3 5.2 1s2.7 1.6 3.5 2.7 1.3 2.4 1.6 3.9c.2 1 .3 2.7.3 5.1v19.1h-5.3v-18.9c0-2.1-.2-3.8-.6-4.8-.4-1.1-1.1-1.9-2.2-2.5-1-.6-2.3-1-3.7-1-2.2 0-4.2.7-5.8 2.1s-2.4 4.1-2.4 8.1v17z"/><path d="m655.3 111.8 5.1.8c.2 1.6.8 2.7 1.8 3.5 1.3 1 3.1 1.5 5.4 1.5 2.4 0 4.3-.5 5.7-1.5 1.3-1 2.2-2.3 2.7-4.1.3-1.1.4-3.3.4-6.8-2.3 2.7-5.2 4.1-8.6 4.1-4.3 0-7.6-1.5-9.9-4.6s-3.5-6.8-3.5-11.1c0-3 .5-5.7 1.6-8.2s2.6-4.4 4.7-5.8c2-1.4 4.4-2.1 7.2-2.1 3.7 0 6.7 1.5 9.1 4.5v-3.8h4.9v26.8c0 4.8-.5 8.3-1.5 10.3s-2.5 3.6-4.7 4.8-4.8 1.8-7.9 1.8c-3.7 0-6.7-.8-9-2.5s-3.6-4.2-3.5-7.6zm4.4-18.7c0 4.1.8 7.1 2.4 8.9s3.7 2.8 6.1 2.8 4.5-.9 6.1-2.8 2.5-4.8 2.5-8.8c0-3.8-.8-6.7-2.5-8.6s-3.7-2.9-6.1-2.9c-2.3 0-4.3 1-6 2.9s-2.5 4.8-2.5 8.5z"/><path d="m726.6 97.8 5.2.7c-.6 3.6-2 6.4-4.4 8.4s-5.2 3-8.6 3c-4.3 0-7.7-1.4-10.3-4.2s-3.9-6.8-3.9-12c0-3.4.6-6.3 1.7-8.8s2.8-4.4 5.1-5.7 4.8-1.9 7.4-1.9c3.4 0 6.1.9 8.3 2.6 2.1 1.7 3.5 4.1 4.1 7.3l-5.1.8c-.5-2.1-1.4-3.7-2.6-4.7s-2.7-1.6-4.5-1.6c-2.7 0-4.8 1-6.5 2.9s-2.5 4.9-2.5 9c0 4.2.8 7.2 2.4 9.1s3.7 2.8 6.3 2.8c2.1 0 3.8-.6 5.2-1.9 1.5-1.2 2.4-3.1 2.7-5.8z"/><path d="m756.6 105.4c-2 1.7-3.8 2.8-5.6 3.5s-3.7 1-5.8 1c-3.4 0-6-.8-7.9-2.5s-2.8-3.8-2.8-6.4c0-1.5.3-2.9 1-4.2s1.6-2.3 2.7-3 2.4-1.3 3.8-1.7c1-.3 2.6-.5 4.7-.8 4.3-.5 7.4-1.1 9.4-1.8v-1.4c0-2.1-.5-3.7-1.5-4.5-1.3-1.2-3.3-1.8-6-1.8-2.5 0-4.3.4-5.5 1.3s-2.1 2.4-2.6 4.6l-5.2-.7c.5-2.2 1.2-4 2.3-5.3 1.1-1.4 2.6-2.4 4.7-3.1s4.4-1.1 7.1-1.1 4.8.3 6.5.9 2.9 1.4 3.7 2.4c.8.9 1.3 2.1 1.6 3.6.2.9.3 2.5.3 4.9v7c0 4.9.1 8 .3 9.3s.7 2.5 1.3 3.7h-5.5c-.5-1.2-.8-2.5-1-3.9zm-.4-11.8c-1.9.8-4.8 1.4-8.6 2-2.2.3-3.7.7-4.6 1.1s-1.6 1-2.1 1.7c-.5.8-.7 1.6-.7 2.5 0 1.4.5 2.6 1.6 3.5s2.6 1.4 4.7 1.4c2 0 3.8-.4 5.4-1.3s2.7-2.1 3.5-3.6c.6-1.2.8-2.9.8-5.3z"/><path d="m769.6 109.2v-31.1h4.7v4.7c1.2-2.2 2.3-3.7 3.4-4.4s2.2-1.1 3.4-1.1c1.8 0 3.6.6 5.4 1.7l-1.8 4.9c-1.3-.8-2.6-1.1-3.9-1.1-1.2 0-2.2.3-3.1 1s-1.6 1.7-2 2.9c-.6 1.9-.9 3.9-.9 6.2v16.3z"/><path d="m801.2 104.5.8 4.7c-1.5.3-2.8.5-4 .5-1.9 0-3.4-.3-4.5-.9s-1.8-1.4-2.2-2.4-.6-3.1-.6-6.2v-17.9h-3.9v-4.1h3.9v-7.7l5.2-3.2v10.9h5.3v4.1h-5.3v18.2c0 1.5.1 2.5.3 2.9s.5.8.9 1c.4.3 1 .4 1.8.4.6-.1 1.3-.2 2.3-.3z"/></g><g fill="#a4a3a4" transform="translate(97 1310)"><g transform="translate(0 4)"><path d="m38.3.7-20.3-.4-17.6 29.5 9.8 16.5 35.3.8 9.8-15zm-17.8 29.5 7.5-13.2 7.5 13.2z"/><path d="m28 18 18 28.6"/><path d="m28 16.9 9.8-16.4"/><path d="m20.5 30.2h-20"/></g><path d="m138.7 14.7-14.4-11.9c-3-2.5-6.9-2.7-8.8-.5l-25.8 31.2c-1.8 2.2-.9 6 2.2 8.5l4.7 3.9c3 2.3 6.8 2.5 8.6.4l23-27.8-5.4-4.4-14.5 17.5-8.5 10.3v.1l-4.6-3.8s-.1-.1 0-.1l25.8-31.2h.1l14.4 11.9s.1.1 0 .1l-17.3 20.9-8.5 10.3 5.4 4.4 25.8-31.2c1.8-2.3.8-6.1-2.2-8.6z"/><g transform="translate(175 3)"><path d="m54 18.8h-6.9v-6.9h-4.1v6.9h-6.9v4h6.9v7h4.1v-7h6.9z"/><path d="m38.4 37.3c-3-2-10.9-6.6-11.1-7.7s.3-1.8 2.6-6.2c2.2-4.4 2.2-4 2.2-5.4-.1-1.4.1-14.1-4.8-16.3-3.6-1.4-5.7-1.5-6.3-1.4-.6 0-2.7 0-6.3 1.4-4.9 2.2-4.7 14.9-4.8 16.3s-.1 1.1 2.2 5.4c2.2 4.4 2.7 5.1 2.6 6.2-.2 1.1-8.1 5.7-11.1 7.7s-3.5 3.5-3.5 3.5v7.3c.2.9 18.8.7 21 .6 2.2 0 20.8.3 21-.6v-7.3c-.2 0-.7-1.5-3.7-3.5z"/></g></g><path d="m1.2 104.5 141.3-.7-.5-103-141.3.6z" fill="#e9f6fc" transform="translate(98 916)"/><ellipse cx="148.9" cy="944.2" fill="#a4a3a4" rx="13" ry="12.8"/><g fill="#d8d4d0"><path d="m279.9 916.2h842.9v27.3h-842.9z"/><path d="m98.7 621.8h1021.7v27.3h-1021.7z"/><path d="m98.7 665.8h1021.7v27.3h-1021.7z"/><path d="m224.1 499h276v27.1h-276z"/><path d="m189.1 1123.3h276v27.1h-276z"/></g><path d="m240 1020.5h-141.3l.1-11 34.1-35.8 21.9 23.6 50.6-47.1 34 33z" fill="#a4a3a4"/><path d="m1111.9 307c-.5-1.6-2.4-1.6-2.4-1.6l-15.1-.6-4.9-13.5s-.5-1.8-2.1-1.9c-1.6 0-2.1 1.9-2.1 1.9l-4.9 13.5-15.1.6s-1.9 0-2.4 1.6 1.1 2.6 1.1 2.6l11.8 8.8-4.4 15s-.6 1.6.6 2.5c1.2.8 2.5-.2 2.5-.2l12.9-8.8 12.9 8.8s1.4 1 2.5.2c1.2-.8.6-2.5.6-2.5l-4.4-15 11.8-8.8s1.6-1.1 1.1-2.6z" fill="#f2b387"/><g fill="#81a5cb"><path d="m1069.5 384.7h35.7v13.9h-35.7z"/><path d="m1069.5 364.8h35.7v13.9h-35.7z"/></g><path d="m279.9 961.2h551.5v27.3h-551.5z" fill="#d8d4d0"/></g><path d="m99.3 815.2h89.7v89.7h-89.7z" fill="#a4a3a4"/><path d="m99.3 1108.4h89.7v89.7h-89.7z" fill="#a4a3a4"/><path d="m99.3 1438.7h52.1v52.1h-52.1z" fill="#a4a3a4"/><g fill="#d8d4d0"><path d="m98.7 624.1h216v27.1h-216z"/><path d="m98.7 674.1h216v27.1h-216z"/><path d="m225.7 815.2h276.9v27.1h-276.9z"/><path d="m225.7 1108.2h276.9v27.1h-276.9z"/></g><path d="m99.3 1517.9h1018.7v89.7h-1018.7z" fill="#eae8e3"/><g transform="translate(1095 429)"><path d="m31.6 91.1 9.4-5.1 8.1-4.2-12.9-24.2h21.8l-57.3-57.4v80.5l16.7-16.2z" fill="#fff"/><g fill="#595b5c"><path d="m41.9 78.9-8.8 4.7-19-35.5 8.9-4.7z"/><path d="m5.7 12.3v56.3l16.4-15.9h24z"/></g></g></g></svg>