<svg height="2057" viewBox="0 0 3025 2057" width="3025" xmlns="http://www.w3.org/2000/svg"><g fill="none" fill-rule="evenodd" transform="translate(89)"><path d="m2192.1 683.5c-.6-2.1-3.2-2.1-3.2-2.1l-19.9-.8-6.5-17.8s-.7-2.4-2.8-2.5c-2.1.1-2.8 2.5-2.8 2.5l-6.5 17.8-19.9.8s-2.6 0-3.2 2.1 1.5 3.4 1.5 3.4l15.6 11.6-5.8 19.8s-.7 2.1.8 3.2 3.3-.2 3.3-.2l17-11.7 17 11.7s1.8 1.4 3.3.2c1.5-1.1.8-3.2.8-3.2l-5.8-19.8 15.6-11.6c.1.1 2.2-1.3 1.5-3.4z" fill="#f2b387"/><g stroke="#eae8e3" stroke-width="7" transform="translate(1744 744)"><path d="m907.8 245.4v6h-6"/><path d="m889.8 251.4h-877.8" stroke-dasharray="11.9437 11.9437"/><path d="m6 251.4h-6v-6"/><path d="m0 232.8v-219.9" stroke-dasharray="12.5676 12.5676"/><path d="m0 6.6v-6h6"/><path d="m17.9.6h877.9" stroke-dasharray="11.9437 11.9437"/><path d="m901.8.6h6v6"/><path d="m907.8 19.1v220" stroke-dasharray="12.5676 12.5676"/></g><g fill="#81a5cb"><path d="m2042.9 695.1h47.1v18.3h-47.1z"/><path d="m2042.9 668.9h47.1v18.3h-47.1z"/></g><path d="m2909 1918.3h-2883.1c-14 0-25.5-11.7-25.5-26.1v-1891.8h2934.1v1891.8c0 14.4-11.5 26.1-25.5 26.1z" fill="#6b6b6b" transform="translate(0 138)"/><path d="m.3 218.4v41.7-228.5c0-18 11.5-30.7 25.5-30.7h2884.2c14 0 25.5 12.7 25.5 30.7v228.5-41.7z" fill="#f2f2f2"/><g transform="translate(48 45)"><circle cx="23.7" cy="28.8" fill="#f2b387" r="22.9"/><circle cx="95.9" cy="28.8" fill="#f4e2d7" r="22.9"/><circle cx="168.1" cy="28.8" fill="#64bdaf" r="22.9"/><path d="m259.1 28.8c0-18.3 14.8-28.4 24.5-28.4h2475.8c26.8 0 41.6 10.1 41.6 28.4s-14.8 30.7-33.1 30.7l-2475.8-2.4c-18.2.1-33-10-33-28.3z" fill="#a4a3a4"/></g><path d="m472.3 419.6h926.7v155.2h-926.7z" fill="#f4f3d1"/><path d="m1413.1 419.6h926.7v155.2h-926.7z" fill="#eae8e3"/><path d="m1413.1 858h926.7v155.2h-926.7z" fill="#eae8e3"/><g fill="#e4eff7"><path d="m2356.5 419.6h561.3v155.2h-561.3z"/><path d="m2356.5 585.2h561.3v155.2h-561.3z"/><path d="m2356.5 750.8h561.3v155.2h-561.3z"/></g><path d="m1413.1 1023.7h926.7v73.2h-926.7z" fill="#5485b4"/><path d="m472.3 584.2h926.7v155.2h-926.7z" fill="#f4f3d1"/><path d="m472.3 748.8h926.7v155.2h-926.7z" fill="#f4f3d1"/><path d="m472.3 1357.5h926.7v73.2h-926.7z" fill="#5485b4"/><path d="m472.3 913.9h926.7v155.2h-926.7z" fill="#f4f3d1"/><g fill="#eae8e3"><path d="m472.3 1610.7h926.7v155.2h-926.7z"/><path d="m1413.1 1108.5h926.7v155.2h-926.7z"/><path d="m1413.1 1275.4h926.7v155.2h-926.7z"/></g><path d="m472.3 1443.6h926.7v155.2h-926.7z" fill="#f4f3d1"/><path d="m14.7 419.1h440.8v80.9h-440.8z" fill="#5485b4"/><path d="m.3 138.7h2934.9v173.3h-2934.9z" fill="#5485b4"/><path d="m2910 1h-2884.1c-14 0-25.5 12.7-25.5 30.7v106.8.2 79.8 41.7 51.8 1718.2c0 14.4 11.5 26.1 25.5 26.1h2883.1c14 0 25.5-11.7 25.5-26.1v-1718.2h.8v-93.6h.2v-186.8c0-17.9-11.5-30.6-25.5-30.6z" fill="#587387" opacity=".38"/><path d="m917.9 10.6v242.4h-907.7v-242.4zm10-10h-927.7v262.4h927.7z" fill="#efefef" transform="translate(474 1090)"/><path d="m2338.8 853.1-691 361.4-987.6-4.3 751.9-357.1z" fill="#666f76" opacity=".38"/><g transform="translate(655 962)"><path d="m11.5 251.5c-5.4 0-9.7-4.4-9.7-9.7v-230.5c0-5.4 4.4-9.7 9.7-9.7h971.2c5.4 0 9.7 4.4 9.7 9.7v230.5c0 5.4-4.4 9.7-9.7 9.7z" fill="#ededed"/><path d="m982.7 3.1c4.5 0 8.2 3.7 8.2 8.2v230.5c0 4.5-3.7 8.2-8.2 8.2h-971.2c-4.5 0-8.2-3.7-8.2-8.2v-230.5c0-4.5 3.7-8.2 8.2-8.2zm0-3h-971.2c-6.2 0-11.2 5-11.2 11.2v230.5c0 6.2 5 11.2 11.2 11.2h971.2c6.2 0 11.2-5 11.2-11.2v-230.5c0-6.2-5-11.2-11.2-11.2z" fill="#595a5b"/></g><path d="m661.8 186h-656.5c-2.9 0-5.3-2.4-5.3-5.3v-175.3c0-2.9 2.4-5.3 5.3-5.3h656.5c2.9 0 5.3 2.4 5.3 5.3v175.3c0 2.9-2.3 5.3-5.3 5.3z" fill="#fff" transform="translate(933 995)"/><g fill="#676767" transform="translate(964 1018)"><path d="m2 26.3 4.6-.4c.2 1.9.7 3.4 1.5 4.6s2 2.2 3.7 2.9 3.6 1.1 5.7 1.1c1.9 0 3.5-.3 5-.8 1.4-.6 2.5-1.3 3.2-2.3s1.1-2 1.1-3.2-.3-2.2-1-3.1-1.8-1.6-3.3-2.2c-1-.4-3.2-1-6.6-1.8s-5.8-1.6-7.2-2.3c-1.8-.9-3.1-2.1-4-3.5s-1.3-2.9-1.3-4.6c0-1.9.5-3.6 1.6-5.3 1.1-1.6 2.6-2.9 4.7-3.7s4.3-1.3 6.8-1.3c2.8 0 5.2.4 7.3 1.3s3.7 2.2 4.9 3.9 1.7 3.7 1.8 5.9l-4.7.4c-.3-2.3-1.1-4.1-2.6-5.3s-3.6-1.8-6.5-1.8c-3 0-5.1.5-6.5 1.6s-2 2.4-2 3.9c0 1.3.5 2.4 1.4 3.3s3.4 1.7 7.4 2.6 6.7 1.7 8.2 2.4c2.2 1 3.8 2.3 4.8 3.8s1.5 3.3 1.5 5.3-.6 3.8-1.7 5.6c-1.1 1.7-2.8 3.1-4.9 4.1s-4.5 1.5-7.2 1.5c-3.4 0-6.2-.5-8.5-1.5s-4.1-2.5-5.3-4.4-1.9-4.2-1.9-6.7z"/><path d="m37.7 38.3v-37.2h4.6v13.3c2.1-2.5 4.8-3.7 8.1-3.7 2 0 3.7.4 5.2 1.2s2.5 1.9 3.2 3.3c.6 1.4 1 3.4 1 6v17.1h-4.6v-17.1c0-2.3-.5-3.9-1.5-5-1-1-2.4-1.6-4.2-1.6-1.4 0-2.6.4-3.8 1.1s-2 1.7-2.5 2.9-.8 2.9-.8 5v14.7z"/><path d="m64.9 24.8c0-5 1.4-8.7 4.2-11.1 2.3-2 5.1-3 8.5-3 3.7 0 6.7 1.2 9.1 3.6 2.3 2.4 3.5 5.8 3.5 10.1 0 3.5-.5 6.2-1.6 8.2-1 2-2.6 3.5-4.5 4.6-2 1.1-4.2 1.6-6.5 1.6-3.8 0-6.8-1.2-9.1-3.6-2.5-2.4-3.6-5.9-3.6-10.4zm4.6 0c0 3.4.8 6 2.3 7.7s3.4 2.6 5.7 2.6 4.1-.9 5.7-2.6c1.5-1.7 2.3-4.4 2.3-7.9 0-3.3-.8-5.9-2.3-7.6s-3.4-2.6-5.6-2.6c-2.3 0-4.2.9-5.7 2.6-1.6 1.8-2.4 4.3-2.4 7.8z"/><path d="m95.4 48.6v-37.2h4.2v3.5c1-1.4 2.1-2.4 3.3-3.1s2.7-1 4.5-1c2.3 0 4.3.6 6.1 1.8s3.1 2.9 4 5c.9 2.2 1.3 4.5 1.3 7.1 0 2.8-.5 5.2-1.5 7.4s-2.4 3.9-4.3 5.1-3.9 1.8-5.9 1.8c-1.5 0-2.9-.3-4.1-1s-2.2-1.5-3-2.4v13.1h-4.6zm4.2-23.7c0 3.5.7 6 2.1 7.7s3.1 2.5 5.1 2.5 3.8-.9 5.2-2.6 2.2-4.4 2.2-8c0-3.4-.7-6-2.1-7.7s-3.1-2.6-5.1-2.6c-1.9 0-3.7.9-5.2 2.7-1.5 1.9-2.2 4.6-2.2 8z"/><path d="m124.3 48.6v-37.2h4.2v3.5c1-1.4 2.1-2.4 3.3-3.1s2.7-1 4.5-1c2.3 0 4.3.6 6.1 1.8s3.1 2.9 4 5c.9 2.2 1.3 4.5 1.3 7.1 0 2.8-.5 5.2-1.5 7.4s-2.4 3.9-4.3 5.1-3.9 1.8-5.9 1.8c-1.5 0-2.9-.3-4.1-1s-2.2-1.5-3-2.4v13.1h-4.6zm4.1-23.7c0 3.5.7 6 2.1 7.7s3.1 2.5 5.1 2.5 3.8-.9 5.2-2.6 2.2-4.4 2.2-8c0-3.4-.7-6-2.1-7.7s-3.1-2.6-5.1-2.6c-1.9 0-3.7.9-5.2 2.7-1.4 1.9-2.2 4.6-2.2 8z"/><path d="m171.6 29.6 4.7.6c-.7 2.8-2.1 4.9-4.1 6.4s-4.6 2.3-7.7 2.3c-3.9 0-7.1-1.2-9.4-3.6s-3.5-5.8-3.5-10.2c0-4.5 1.2-8 3.5-10.5s5.4-3.8 9.1-3.8c3.6 0 6.5 1.2 8.8 3.7s3.4 5.9 3.4 10.3v1.2h-20.1c.2 3 1 5.2 2.5 6.8s3.4 2.4 5.6 2.4c1.7 0 3.1-.4 4.3-1.3 1.3-1 2.2-2.4 2.9-4.3zm-15-7.4h15c-.2-2.3-.8-4-1.7-5.1-1.5-1.8-3.3-2.6-5.7-2.6-2.1 0-3.9.7-5.3 2.1-1.3 1.4-2.1 3.3-2.3 5.6z"/><path d="m182 38.3v-26.9h4.1v4.1c1-1.9 2-3.2 2.9-3.8s1.9-.9 2.9-.9c1.5 0 3.1.5 4.7 1.5l-1.6 4.2c-1.1-.7-2.2-1-3.3-1-1 0-1.9.3-2.7.9s-1.4 1.4-1.7 2.5c-.5 1.6-.8 3.4-.8 5.3v14.1z"/><path d="m211.9 30.2 4.5-.7c.3 1.8 1 3.2 2.1 4.2 1.2 1 2.8 1.4 4.9 1.4s3.7-.4 4.7-1.3 1.5-1.9 1.5-3c0-1-.4-1.8-1.3-2.4-.6-.4-2.2-.9-4.7-1.5-3.3-.8-5.7-1.6-7-2.2s-2.3-1.5-2.9-2.6c-.7-1.1-1-2.3-1-3.6 0-1.2.3-2.3.8-3.3s1.3-1.9 2.2-2.5c.7-.5 1.7-1 2.9-1.3 1.2-.4 2.5-.5 3.9-.5 2.1 0 4 .3 5.6.9s2.8 1.4 3.5 2.5c.8 1 1.3 2.4 1.6 4.2l-4.5.6c-.2-1.4-.8-2.5-1.8-3.2-1-.8-2.3-1.2-4.1-1.2-2.1 0-3.6.3-4.5 1s-1.3 1.5-1.3 2.4c0 .6.2 1.1.6 1.6s1 .9 1.7 1.2c.5.2 1.8.6 4 1.2 3.2.9 5.5 1.6 6.8 2.1s2.3 1.3 3 2.4c.7 1 1.1 2.3 1.1 3.9 0 1.5-.4 3-1.3 4.3s-2.2 2.4-3.8 3.1c-1.7.7-3.6 1.1-5.7 1.1-3.5 0-6.2-.7-8-2.2-1.8-1.6-3-3.7-3.5-6.6z"/><path d="m239.7 38.3v-37.2h4.6v13.3c2.1-2.5 4.8-3.7 8.1-3.7 2 0 3.7.4 5.2 1.2s2.5 1.9 3.2 3.3c.6 1.4 1 3.4 1 6v17.1h-4.6v-17.1c0-2.3-.5-3.9-1.5-5-1-1-2.4-1.6-4.2-1.6-1.4 0-2.6.4-3.8 1.1s-2 1.7-2.5 2.9-.8 2.9-.8 5v14.7z"/><path d="m266.9 24.8c0-5 1.4-8.7 4.2-11.1 2.3-2 5.1-3 8.5-3 3.7 0 6.7 1.2 9.1 3.6 2.3 2.4 3.5 5.8 3.5 10.1 0 3.5-.5 6.2-1.6 8.2-1 2-2.6 3.5-4.5 4.6-2 1.1-4.2 1.6-6.5 1.6-3.8 0-6.8-1.2-9.1-3.6-2.4-2.4-3.6-5.9-3.6-10.4zm4.7 0c0 3.4.8 6 2.3 7.7s3.4 2.6 5.7 2.6 4.1-.9 5.7-2.6c1.5-1.7 2.3-4.4 2.3-7.9 0-3.3-.8-5.9-2.3-7.6s-3.4-2.6-5.6-2.6c-2.3 0-4.2.9-5.7 2.6-1.7 1.8-2.4 4.3-2.4 7.8z"/><path d="m315.1 38.3v-4c-2.1 3-4.9 4.6-8.5 4.6-1.6 0-3.1-.3-4.4-.9s-2.4-1.4-3.1-2.3-1.1-2-1.4-3.4c-.2-.9-.3-2.3-.3-4.3v-16.7h4.6v14.9c0 2.4.1 4 .3 4.8.3 1.2.9 2.1 1.8 2.8s2.1 1 3.4 1c1.4 0 2.7-.4 3.9-1.1s2-1.7 2.5-2.9.7-3 .7-5.3v-14.4h4.6v26.9h-4.1z"/><path d="m326.3 38.3v-37.2h4.6v37.2z"/><path d="m355.4 38.3v-3.4c-1.7 2.7-4.2 4-7.5 4-2.1 0-4.1-.6-5.9-1.8s-3.2-2.8-4.2-5c-1-2.1-1.5-4.6-1.5-7.3s.4-5.1 1.3-7.3 2.2-3.9 4-5c1.8-1.2 3.8-1.7 6-1.7 1.6 0 3.1.3 4.3 1s2.3 1.6 3.1 2.7v-13.3h4.5v37.2h-4.1zm-14.5-13.5c0 3.4.7 6 2.2 7.7s3.2 2.6 5.1 2.6c2 0 3.7-.8 5.1-2.4s2.1-4.1 2.1-7.5c0-3.7-.7-6.4-2.1-8.1s-3.2-2.6-5.2-2.6-3.7.8-5.1 2.5c-1.4 1.6-2.1 4.3-2.1 7.8z"/><path d="m385.4 38.3h-4.2v-37.2h4.6v13.3c1.9-2.4 4.4-3.6 7.4-3.6 1.7 0 3.2.3 4.7 1s2.7 1.6 3.7 2.8 1.7 2.7 2.2 4.4.8 3.5.8 5.5c0 4.6-1.1 8.2-3.4 10.7s-5 3.8-8.2 3.8-5.7-1.3-7.5-4v3.3zm-.1-13.7c0 3.2.4 5.6 1.3 7 1.4 2.3 3.4 3.5 5.8 3.5 2 0 3.7-.9 5.2-2.6s2.2-4.3 2.2-7.7c0-3.5-.7-6.1-2.1-7.8s-3.1-2.5-5.1-2.5-3.7.9-5.2 2.6-2.1 4.2-2.1 7.5z"/><path d="m428.5 29.6 4.7.6c-.7 2.8-2.1 4.9-4.1 6.4s-4.6 2.3-7.7 2.3c-3.9 0-7.1-1.2-9.4-3.6s-3.5-5.8-3.5-10.2c0-4.5 1.2-8 3.5-10.5s5.4-3.8 9.1-3.8c3.6 0 6.5 1.2 8.8 3.7s3.4 5.9 3.4 10.3v1.2h-20.1c.2 3 1 5.2 2.5 6.8s3.4 2.4 5.6 2.4c1.7 0 3.1-.4 4.3-1.3 1.3-1 2.2-2.4 2.9-4.3zm-15-7.4h15c-.2-2.3-.8-4-1.7-5.1-1.5-1.8-3.3-2.6-5.7-2.6-2.1 0-3.9.7-5.3 2.1-1.3 1.4-2.1 3.3-2.3 5.6z"/><path d="m470.9 34.9c-1.7 1.4-3.3 2.5-4.9 3-1.6.6-3.2.9-5 .9-3 0-5.2-.7-6.8-2.2-1.6-1.4-2.4-3.3-2.4-5.5 0-1.3.3-2.5.9-3.6s1.4-2 2.4-2.6c1-.7 2.1-1.2 3.3-1.5.9-.2 2.2-.5 4.1-.7 3.7-.4 6.4-1 8.1-1.6v-1.2c0-1.9-.4-3.2-1.3-3.9-1.2-1-2.9-1.5-5.2-1.5-2.1 0-3.7.4-4.8 1.1s-1.8 2.1-2.3 4l-4.5-.6c.4-1.9 1.1-3.5 2-4.6.9-1.2 2.3-2.1 4-2.7s3.8-1 6.1-1 4.2.3 5.6.8 2.5 1.2 3.2 2 1.1 1.9 1.4 3.1c.2.8.2 2.2.2 4.2v6.1c0 4.2.1 6.9.3 8s.6 2.2 1.2 3.2h-4.8c-.3-.8-.6-1.9-.8-3.2zm-.3-10.2c-1.7.7-4.1 1.3-7.5 1.7-1.9.3-3.2.6-4 .9s-1.4.8-1.8 1.5-.6 1.4-.6 2.2c0 1.2.5 2.2 1.4 3s2.3 1.2 4 1.2c1.8 0 3.3-.4 4.7-1.2s2.4-1.8 3-3.2c.5-1 .7-2.6.7-4.6v-1.5z"/><path d="m486.4 38.3h-4.2v-37.2h4.6v13.3c1.9-2.4 4.4-3.6 7.4-3.6 1.7 0 3.2.3 4.7 1s2.7 1.6 3.7 2.8 1.7 2.7 2.2 4.4.8 3.5.8 5.5c0 4.6-1.1 8.2-3.4 10.7s-5 3.8-8.2 3.8-5.7-1.3-7.5-4v3.3zm0-13.7c0 3.2.4 5.6 1.3 7 1.4 2.3 3.4 3.5 5.8 3.5 2 0 3.7-.9 5.2-2.6s2.2-4.3 2.2-7.7c0-3.5-.7-6.1-2.1-7.8s-3.1-2.5-5.1-2.5-3.7.9-5.2 2.6-2.1 4.2-2.1 7.5z"/><path d="m511 38.3v-37.2h4.6v37.2z"/><path d="m541.1 29.6 4.7.6c-.7 2.8-2.1 4.9-4.1 6.4s-4.6 2.3-7.7 2.3c-3.9 0-7.1-1.2-9.4-3.6s-3.5-5.8-3.5-10.2c0-4.5 1.2-8 3.5-10.5s5.4-3.8 9.1-3.8c3.6 0 6.5 1.2 8.8 3.7s3.4 5.9 3.4 10.3v1.2h-20.1c.2 3 1 5.2 2.5 6.8s3.4 2.4 5.6 2.4c1.7 0 3.1-.4 4.3-1.3 1.2-1 2.2-2.4 2.9-4.3zm-15-7.4h15c-.2-2.3-.8-4-1.7-5.1-1.5-1.8-3.3-2.6-5.7-2.6-2.1 0-3.9.7-5.3 2.1s-2.1 3.3-2.3 5.6z"/><path d="m13 86.1.7 4c-1.3.3-2.4.4-3.4.4-1.7 0-2.9-.3-3.9-.8-.9-.5-1.6-1.2-1.9-2.1-.4-.9-.6-2.6-.6-5.4v-15.5h-3.3v-3.5h3.3v-6.7l4.5-2.7v9.4h4.6v3.5h-4.6v15.7c0 1.3.1 2.1.2 2.5.2.4.4.7.8.9s.9.3 1.6.3c.5.2 1.2.1 2 0z"/><path d="m15.8 76.7c0-5 1.4-8.7 4.2-11.1 2.3-2 5.1-3 8.5-3 3.7 0 6.7 1.2 9.1 3.6 2.3 2.4 3.5 5.8 3.5 10.1 0 3.5-.5 6.2-1.6 8.2-1 2-2.6 3.5-4.5 4.6-2 1.1-4.2 1.6-6.5 1.6-3.8 0-6.8-1.2-9.1-3.6-2.5-2.4-3.6-5.8-3.6-10.4zm4.7 0c0 3.4.8 6 2.3 7.7s3.4 2.6 5.7 2.6 4.1-.9 5.7-2.6c1.5-1.7 2.3-4.4 2.3-7.9 0-3.3-.8-5.9-2.3-7.6s-3.4-2.6-5.6-2.6c-2.3 0-4.2.9-5.7 2.6-1.7 1.8-2.4 4.4-2.4 7.8z"/><path d="m68.2 90.2-10.2-26.9h4.8l5.8 16.1c.6 1.7 1.2 3.5 1.7 5.4.4-1.4 1-3.1 1.7-5.1l6-16.4h4.7l-10.2 26.9z"/><path d="m86.8 58.3v-5.2h4.6v5.2zm0 31.9v-26.9h4.6v26.9z"/><path d="m116.7 81.5 4.7.6c-.7 2.8-2.1 4.9-4.1 6.4s-4.6 2.3-7.7 2.3c-3.9 0-7.1-1.2-9.4-3.6s-3.5-5.8-3.5-10.2c0-4.5 1.2-8 3.5-10.5s5.4-3.8 9.1-3.8c3.6 0 6.5 1.2 8.8 3.7s3.4 5.9 3.4 10.3v1.2h-20.1c.2 3 1 5.2 2.5 6.8s3.4 2.4 5.6 2.4c1.7 0 3.1-.4 4.3-1.3 1.3-1 2.2-2.4 2.9-4.3zm-15-7.4h15c-.2-2.3-.8-4-1.7-5.1-1.5-1.8-3.3-2.6-5.7-2.6-2.1 0-3.9.7-5.3 2.1-1.3 1.4-2.1 3.3-2.3 5.6z"/><path d="m132.1 90.2-8.2-26.9h4.7l4.3 15.5 1.6 5.8c.1-.3.5-2.1 1.4-5.6l4.3-15.8h4.7l4 15.6 1.3 5.1 1.5-5.2 4.6-15.6h4.4l-8.4 26.9h-4.7l-4.3-16.1-1-4.6-5.5 20.7h-4.7z"/><path d="m196.6 80.3 4.5.6c-.5 3.1-1.7 5.5-3.8 7.3-2 1.7-4.5 2.6-7.4 2.6-3.7 0-6.6-1.2-8.9-3.6-2.2-2.4-3.4-5.9-3.4-10.4 0-2.9.5-5.5 1.4-7.6s2.4-3.8 4.4-4.9 4.1-1.6 6.4-1.6c2.9 0 5.3.7 7.2 2.2s3.1 3.6 3.6 6.3l-4.4.7c-.4-1.8-1.2-3.2-2.2-4.1-1.1-.9-2.4-1.4-3.9-1.4-2.3 0-4.2.8-5.6 2.5-1.4 1.6-2.2 4.3-2.2 7.8 0 3.6.7 6.2 2.1 7.9s3.2 2.5 5.4 2.5c1.8 0 3.3-.5 4.5-1.6 1.2-1.2 2-2.9 2.3-5.2z"/><path d="m203.3 76.7c0-5 1.4-8.7 4.2-11.1 2.3-2 5.1-3 8.5-3 3.7 0 6.7 1.2 9.1 3.6 2.3 2.4 3.5 5.8 3.5 10.1 0 3.5-.5 6.2-1.6 8.2-1 2-2.6 3.5-4.5 4.6-2 1.1-4.2 1.6-6.5 1.6-3.8 0-6.8-1.2-9.1-3.6-2.4-2.4-3.6-5.8-3.6-10.4zm4.7 0c0 3.4.8 6 2.3 7.7s3.4 2.6 5.7 2.6 4.1-.9 5.7-2.6c1.5-1.7 2.3-4.4 2.3-7.9 0-3.3-.8-5.9-2.3-7.6s-3.4-2.6-5.6-2.6c-2.3 0-4.2.9-5.7 2.6-1.6 1.8-2.4 4.4-2.4 7.8z"/><path d="m233.9 90.2v-26.9h4.1v3.8c2-3 4.8-4.4 8.6-4.4 1.6 0 3.1.3 4.5.9s2.4 1.3 3.1 2.3c.7.9 1.1 2.1 1.4 3.4.2.8.3 2.3.3 4.4v16.6h-4.6v-16.4c0-1.9-.2-3.2-.5-4.2-.4-.9-1-1.7-1.9-2.2s-2-.8-3.2-.8c-1.9 0-3.6.6-5 1.9s-2.1 3.6-2.1 7v14.7h-4.7z"/><path d="m272.7 86.1.7 4c-1.3.3-2.4.4-3.4.4-1.7 0-2.9-.3-3.9-.8-.9-.5-1.6-1.2-1.9-2.1-.4-.9-.6-2.6-.6-5.4v-15.5h-3.3v-3.5h3.3v-6.7l4.5-2.7v9.4h4.6v3.5h-4.6v15.7c0 1.3.1 2.1.2 2.5.2.4.4.7.8.9s.9.3 1.6.3c.5.2 1.2.1 2 0z"/><path d="m295.6 81.5 4.7.6c-.7 2.8-2.1 4.9-4.1 6.4s-4.6 2.3-7.7 2.3c-3.9 0-7.1-1.2-9.4-3.6s-3.5-5.8-3.5-10.2c0-4.5 1.2-8 3.5-10.5s5.4-3.8 9.1-3.8c3.6 0 6.5 1.2 8.8 3.7s3.4 5.9 3.4 10.3v1.2h-20.1c.2 3 1 5.2 2.5 6.8s3.4 2.4 5.6 2.4c1.7 0 3.1-.4 4.3-1.3 1.3-1 2.2-2.4 2.9-4.3zm-15-7.4h15c-.2-2.3-.8-4-1.7-5.1-1.5-1.8-3.3-2.6-5.7-2.6-2.1 0-3.9.7-5.3 2.1-1.3 1.4-2.1 3.3-2.3 5.6z"/><path d="m306.1 90.2v-26.9h4.1v3.8c2-3 4.8-4.4 8.6-4.4 1.6 0 3.1.3 4.5.9s2.4 1.3 3.1 2.3c.7.9 1.1 2.1 1.4 3.4.2.8.3 2.3.3 4.4v16.6h-4.6v-16.4c0-1.9-.2-3.2-.5-4.2-.4-.9-1-1.7-1.9-2.2s-2-.8-3.2-.8c-1.9 0-3.6.6-5 1.9s-2.1 3.6-2.1 7v14.7h-4.7z"/><path d="m344.9 86.1.7 4c-1.3.3-2.4.4-3.4.4-1.7 0-2.9-.3-3.9-.8-.9-.5-1.6-1.2-1.9-2.1-.4-.9-.6-2.6-.6-5.4v-15.5h-3.3v-3.5h3.3v-6.7l4.5-2.7v9.4h4.6v3.5h-4.6v15.7c0 1.3.1 2.1.2 2.5.2.4.4.7.8.9s.9.3 1.6.3c.5.2 1.2.1 2 0z"/><path d="m347.5 82.1 4.5-.7c.3 1.8 1 3.2 2.1 4.2 1.2 1 2.8 1.4 4.9 1.4s3.7-.4 4.7-1.3 1.5-1.9 1.5-3c0-1-.4-1.8-1.3-2.4-.6-.4-2.2-.9-4.7-1.5-3.3-.8-5.7-1.6-7-2.2s-2.3-1.5-2.9-2.6c-.7-1.1-1-2.3-1-3.6 0-1.2.3-2.3.8-3.3s1.3-1.9 2.2-2.5c.7-.5 1.7-1 2.9-1.3 1.2-.4 2.5-.5 3.9-.5 2.1 0 4 .3 5.6.9s2.8 1.4 3.5 2.5c.8 1 1.3 2.4 1.6 4.2l-4.5.6c-.2-1.4-.8-2.5-1.8-3.2-1-.8-2.3-1.2-4.1-1.2-2.1 0-3.6.3-4.5 1s-1.3 1.5-1.3 2.4c0 .6.2 1.1.6 1.6s1 .9 1.7 1.2c.5.2 1.8.6 4 1.2 3.2.9 5.5 1.6 6.8 2.1s2.3 1.3 3 2.4c.7 1 1.1 2.3 1.1 3.9 0 1.5-.4 3-1.3 4.3s-2.2 2.4-3.8 3.1c-1.7.7-3.6 1.1-5.7 1.1-3.5 0-6.2-.7-8-2.2s-2.9-3.7-3.5-6.6z"/><path d="m388.1 76.7c0-5 1.4-8.7 4.2-11.1 2.3-2 5.1-3 8.5-3 3.7 0 6.7 1.2 9.1 3.6 2.3 2.4 3.5 5.8 3.5 10.1 0 3.5-.5 6.2-1.6 8.2-1 2-2.6 3.5-4.5 4.6-2 1.1-4.2 1.6-6.5 1.6-3.8 0-6.8-1.2-9.1-3.6-2.5-2.4-3.6-5.8-3.6-10.4zm4.6 0c0 3.4.8 6 2.3 7.7s3.4 2.6 5.7 2.6 4.1-.9 5.7-2.6c1.5-1.7 2.3-4.4 2.3-7.9 0-3.3-.8-5.9-2.3-7.6s-3.4-2.6-5.6-2.6c-2.3 0-4.2.9-5.7 2.6-1.6 1.8-2.4 4.4-2.4 7.8z"/><path d="m419.7 90.2v-23.4h-4v-3.5h4v-2.9c0-1.8.2-3.2.5-4 .4-1.2 1.2-2.1 2.3-2.9 1.1-.7 2.7-1.1 4.7-1.1 1.3 0 2.7.2 4.3.5l-.7 4c-.9-.2-1.8-.3-2.7-.3-1.4 0-2.4.3-2.9.9-.6.6-.9 1.7-.9 3.3v2.5h5.2v3.5h-5.2v23.4z"/><path d="m457.4 86.1.7 4c-1.3.3-2.4.4-3.4.4-1.7 0-2.9-.3-3.9-.8-.9-.5-1.6-1.2-1.9-2.1-.4-.9-.6-2.6-.6-5.4v-15.5h-3.3v-3.5h3.3v-6.7l4.5-2.7v9.4h4.6v3.5h-4.6v15.7c0 1.3.1 2.1.2 2.5.2.4.4.7.8.9s.9.3 1.6.3c.5.2 1.2.1 2 0z"/><path d="m461.9 90.2v-37.2h4.6v13.3c2.1-2.5 4.8-3.7 8.1-3.7 2 0 3.7.4 5.2 1.2s2.5 1.9 3.2 3.3c.6 1.4 1 3.4 1 6v17.1h-4.6v-17.1c0-2.3-.5-3.9-1.5-5-1-1-2.4-1.6-4.2-1.6-1.4 0-2.6.4-3.8 1.1s-2 1.7-2.5 2.9-.8 2.9-.8 5v14.7z"/><path d="m509.2 81.5 4.7.6c-.7 2.8-2.1 4.9-4.1 6.4s-4.6 2.3-7.7 2.3c-3.9 0-7.1-1.2-9.4-3.6s-3.5-5.8-3.5-10.2c0-4.5 1.2-8 3.5-10.5s5.4-3.8 9.1-3.8c3.6 0 6.5 1.2 8.8 3.7s3.4 5.9 3.4 10.3v1.2h-20c.2 3 1 5.2 2.5 6.8s3.4 2.4 5.6 2.4c1.7 0 3.1-.4 4.3-1.3 1.2-1 2.1-2.4 2.8-4.3zm-15-7.4h15c-.2-2.3-.8-4-1.7-5.1-1.5-1.8-3.3-2.6-5.7-2.6-2.1 0-3.9.7-5.3 2.1-1.3 1.4-2.1 3.3-2.3 5.6z"/><path d="m519.7 58.3v-5.2h4.6v5.2zm0 31.9v-26.9h4.6v26.9z"/><path d="m531.1 90.2v-26.9h4.1v4.1c1-1.9 2-3.2 2.9-3.8s1.9-.9 2.9-.9c1.5 0 3.1.5 4.7 1.5l-1.6 4.2c-1.1-.7-2.2-1-3.3-1-1 0-1.9.3-2.7.9s-1.4 1.4-1.7 2.5c-.5 1.6-.8 3.4-.8 5.3v14.1z"/><path d="m1.2 134.1 4.5-.7c.3 1.8 1 3.2 2.1 4.2 1.2 1 2.8 1.4 4.9 1.4s3.7-.4 4.7-1.3 1.5-1.9 1.5-3c0-1-.4-1.8-1.3-2.4-.6-.4-2.2-.9-4.7-1.5-3.3-.8-5.7-1.6-7-2.2s-2.3-1.5-2.9-2.6c-.7-1.1-1-2.3-1-3.6 0-1.2.3-2.3.8-3.3s1.3-1.9 2.2-2.5c.7-.5 1.7-1 2.9-1.3 1.2-.4 2.5-.5 3.9-.5 2.1 0 4 .3 5.6.9s2.8 1.4 3.5 2.5c.8 1 1.3 2.4 1.6 4.2l-4.5.6c-.2-1.4-.8-2.5-1.8-3.2-1-.8-2.3-1.2-4.1-1.2-2.1 0-3.6.3-4.5 1s-1.3 1.5-1.3 2.4c0 .6.2 1.1.6 1.6s1 .9 1.7 1.2c.5.2 1.8.6 4 1.2 3.2.9 5.5 1.6 6.8 2.1s2.3 1.3 3 2.4c.7 1 1.1 2.3 1.1 3.9 0 1.5-.4 3-1.3 4.3s-2.2 2.4-3.8 3.1c-1.7.7-3.6 1.1-5.7 1.1-3.5 0-6.2-.7-8-2.2-1.8-1.6-3-3.8-3.5-6.6z"/><path d="m29 142.1v-37.2h4.6v13.3c2.1-2.5 4.8-3.7 8.1-3.7 2 0 3.7.4 5.2 1.2s2.5 1.9 3.2 3.3c.6 1.4 1 3.4 1 6v17.1h-4.6v-17.1c0-2.3-.5-3.9-1.5-5-1-1-2.4-1.6-4.2-1.6-1.4 0-2.6.4-3.8 1.1s-2 1.7-2.5 2.9-.8 2.9-.8 5v14.7z"/><path d="m56.2 128.6c0-5 1.4-8.7 4.2-11.1 2.3-2 5.1-3 8.5-3 3.7 0 6.7 1.2 9.1 3.6 2.3 2.4 3.5 5.8 3.5 10.1 0 3.5-.5 6.2-1.6 8.2-1 2-2.6 3.5-4.5 4.6-2 1.1-4.2 1.6-6.5 1.6-3.8 0-6.8-1.2-9.1-3.6-2.5-2.3-3.6-5.8-3.6-10.4zm4.7 0c0 3.4.8 6 2.3 7.7s3.4 2.6 5.7 2.6 4.1-.9 5.7-2.6c1.5-1.7 2.3-4.4 2.3-7.9 0-3.3-.8-5.9-2.3-7.6s-3.4-2.6-5.6-2.6c-2.3 0-4.2.9-5.7 2.6-1.7 1.8-2.4 4.4-2.4 7.8z"/><path d="m86.8 152.4v-37.2h4.2v3.5c1-1.4 2.1-2.4 3.3-3.1s2.7-1 4.5-1c2.3 0 4.3.6 6.1 1.8s3.1 2.9 4 5c.9 2.2 1.3 4.5 1.3 7.1 0 2.8-.5 5.2-1.5 7.4s-2.4 3.9-4.3 5.1-3.9 1.8-5.9 1.8c-1.5 0-2.9-.3-4.1-1s-2.2-1.5-3-2.4v13.1h-4.6zm4.1-23.6c0 3.5.7 6 2.1 7.7s3.1 2.5 5.1 2.5 3.8-.9 5.2-2.6 2.2-4.4 2.2-8c0-3.4-.7-6-2.1-7.7s-3.1-2.6-5.1-2.6c-1.9 0-3.7.9-5.2 2.7-1.5 1.9-2.2 4.5-2.2 8z"/><path d="m115.6 152.4v-37.2h4.2v3.5c1-1.4 2.1-2.4 3.3-3.1s2.7-1 4.5-1c2.3 0 4.3.6 6.1 1.8s3.1 2.9 4 5c.9 2.2 1.3 4.5 1.3 7.1 0 2.8-.5 5.2-1.5 7.4s-2.4 3.9-4.3 5.1-3.9 1.8-5.9 1.8c-1.5 0-2.9-.3-4.1-1s-2.2-1.5-3-2.4v13.1h-4.6zm4.2-23.6c0 3.5.7 6 2.1 7.7s3.1 2.5 5.1 2.5 3.8-.9 5.2-2.6 2.2-4.4 2.2-8c0-3.4-.7-6-2.1-7.7s-3.1-2.6-5.1-2.6c-1.9 0-3.7.9-5.2 2.7-1.5 1.9-2.2 4.5-2.2 8z"/><path d="m144.5 110.2v-5.2h4.6v5.2zm0 31.9v-26.9h4.6v26.9z"/><path d="m156 142.1v-26.9h4.1v3.8c2-3 4.8-4.4 8.6-4.4 1.6 0 3.1.3 4.5.9s2.4 1.3 3.1 2.3c.7.9 1.1 2.1 1.4 3.4.2.8.3 2.3.3 4.4v16.6h-4.6v-16.4c0-1.9-.2-3.2-.5-4.2-.4-.9-1-1.7-1.9-2.2s-2-.8-3.2-.8c-1.9 0-3.6.6-5 1.9s-2.1 3.6-2.1 7v14.7h-4.7z"/><path d="m184.1 144.3 4.4.7c.2 1.4.7 2.4 1.5 3 1.1.8 2.7 1.3 4.6 1.3 2.1 0 3.7-.4 4.9-1.3 1.1-.8 1.9-2 2.3-3.5.2-.9.3-2.9.3-5.9-2 2.3-4.5 3.5-7.5 3.5-3.7 0-6.6-1.3-8.6-4s-3-5.9-3-9.6c0-2.6.5-4.9 1.4-7.1s2.3-3.8 4-5c1.8-1.2 3.8-1.8 6.2-1.8 3.2 0 5.8 1.3 7.9 3.9v-3.2h4.2v23.3c0 4.2-.4 7.2-1.3 8.9s-2.2 3.1-4.1 4.1-4.1 1.5-6.8 1.5c-3.2 0-5.8-.7-7.8-2.2-1.7-1.5-2.7-3.7-2.6-6.6zm3.8-16.1c0 3.5.7 6.1 2.1 7.7s3.2 2.4 5.3 2.4 3.9-.8 5.3-2.4 2.1-4.1 2.1-7.6c0-3.3-.7-5.8-2.2-7.5s-3.2-2.5-5.3-2.5c-2 0-3.8.8-5.2 2.5s-2.1 4.1-2.1 7.4z"/><path d="m245.8 132.2 4.5.6c-.5 3.1-1.7 5.5-3.8 7.3-2 1.7-4.5 2.6-7.4 2.6-3.7 0-6.6-1.2-8.9-3.6-2.2-2.4-3.4-5.9-3.4-10.4 0-2.9.5-5.5 1.4-7.6s2.4-3.8 4.4-4.9 4.1-1.6 6.4-1.6c2.9 0 5.3.7 7.2 2.2s3.1 3.6 3.6 6.3l-4.4.7c-.4-1.8-1.2-3.2-2.2-4.1-1.1-.9-2.4-1.4-3.9-1.4-2.3 0-4.2.8-5.6 2.5-1.4 1.6-2.2 4.3-2.2 7.8 0 3.6.7 6.2 2.1 7.9s3.2 2.5 5.4 2.5c1.8 0 3.3-.5 4.5-1.6 1.2-1.2 2-2.9 2.3-5.2z"/><path d="m271.7 138.8c-1.7 1.4-3.3 2.5-4.9 3-1.6.6-3.2.9-5 .9-3 0-5.2-.7-6.8-2.2-1.6-1.4-2.4-3.3-2.4-5.5 0-1.3.3-2.5.9-3.6s1.4-2 2.4-2.6c1-.7 2.1-1.2 3.3-1.5.9-.2 2.2-.5 4.1-.7 3.7-.4 6.4-1 8.1-1.6v-1.2c0-1.9-.4-3.2-1.3-3.9-1.2-1-2.9-1.5-5.2-1.5-2.1 0-3.7.4-4.8 1.1s-1.8 2.1-2.3 4l-4.5-.6c.4-1.9 1.1-3.5 2-4.6.9-1.2 2.3-2.1 4-2.7s3.8-1 6.1-1 4.2.3 5.6.8 2.5 1.2 3.2 2 1.1 1.9 1.4 3.1c.2.8.2 2.2.2 4.2v6.1c0 4.2.1 6.9.3 8s.6 2.2 1.2 3.2h-4.8c-.3-.8-.6-2-.8-3.2zm-.3-10.2c-1.7.7-4.1 1.3-7.5 1.7-1.9.3-3.2.6-4 .9s-1.4.8-1.8 1.5-.6 1.4-.6 2.2c0 1.2.5 2.2 1.4 3s2.3 1.2 4 1.2c1.8 0 3.3-.4 4.7-1.2s2.4-1.8 3-3.2c.5-1 .7-2.6.7-4.6v-1.5z"/><path d="m283 142.1v-26.9h4.1v4.1c1-1.9 2-3.2 2.9-3.8s1.9-.9 2.9-.9c1.5 0 3.1.5 4.7 1.5l-1.6 4.2c-1.1-.7-2.2-1-3.3-1-1 0-1.9.3-2.7.9s-1.4 1.4-1.7 2.5c-.5 1.6-.8 3.4-.8 5.3v14.1z"/><path d="m310.3 138 .7 4c-1.3.3-2.4.4-3.4.4-1.7 0-2.9-.3-3.9-.8-.9-.5-1.6-1.2-1.9-2.1-.4-.9-.6-2.6-.6-5.4v-15.5h-3.3v-3.5h3.3v-6.7l4.5-2.7v9.4h4.6v3.5h-4.6v15.7c0 1.3.1 2.1.2 2.5.2.4.4.7.8.9s.9.3 1.6.3c.5.2 1.2.1 2 0z"/></g><path d="m771.2 1026.7c-.7-2.1-3.2-2.1-3.2-2.1l-20.3-.8-6.6-18.2s-.7-2.5-2.9-2.5c-2.1.1-2.9 2.5-2.9 2.5l-6.6 18.2-20.3.8s-2.6 0-3.2 2.1 1.5 3.5 1.5 3.5l15.9 11.8-5.9 20.2s-.7 2.2.8 3.3c1.6 1.1 3.4-.2 3.4-.2l17.3-11.9 17.3 11.9s1.8 1.4 3.4.2c1.6-1.1.8-3.3.8-3.3l-5.9-20.2 15.9-11.8s2.1-1.4 1.5-3.5z" fill="#f2b387"/><g fill="#81a5cb"><path d="m811 1038.5h48v18.7h-48z"/><path d="m811 1011.8h48v18.7h-48z"/></g><path d="m895.9.2h-16v10h16zm-32 0h-16v10h16zm-32 0h-16v10h16zm-32 0h-16v10h16zm-32 0h-16v10h16zm-32 0h-16v10h16zm-32 0h-16v10h16zm-32 0h-16v10h16zm-32 0h-16v10h16zm-32 0h-16v10h16zm-32 0h-16v10h16zm-32 0h-16v10h16zm-32 0h-16v10h16zm-32 0h-16v10h16zm-32 0h-16v10h16zm-32 0h-16v10h16zm-32 0h-16v10h16zm-32 0h-16v10h16zm-32 0h-16v10h16zm-32 0h-16v10h16zm-32 0h-16v10h16zm-32 0h-16v10h16zm-32 0h-16v10h16zm-32 0h-16v10h16zm-32 0h-16v10h16zm-32 0h-16v10h16zm-32 0h-16v10h16zm-32 0h-16v10h16zm-21.7.3h-10v16h10zm0 32h-10v16h10zm0 32h-10v16h10zm0 32h-10v16h10zm0 32h-10v16h10zm0 32h-10v16h10zm0 32h-10v16h10zm0 32h-10v16h10zm-.1 28.1h-9.9v3.9-3.9 3.9 6.1h10v-6.1h-.1zm32 0h-16v10h16zm32 0h-16v10h16zm32 0h-16v10h16zm32 0h-16v10h16zm32 0h-16v10h16zm32 0h-16v10h16zm32 0h-16v10h16zm32 0h-16v10h16zm32 0h-16v10h16zm32 0h-16v10h16zm32 0h-16v10h16zm32 0h-16v10h16zm32 0h-16v10h16zm32 0h-16v10h16zm32 0h-16v10h16zm32 0h-16v10h16zm32 0h-16v10h16zm32 0h-16v10h16zm32 0h-16v10h16zm32 0h-16v10h16zm32 0h-16v10h16zm32 0h-16v10h16zm32 0h-16v10h16zm32 0h-16v10h16zm32 0h-16v10h16zm32 0h-16v10h16zm32 0h-16v10h16zm32 0h-16v10h16zm21.8-.3h-10v10.2h4.2-4.2 4.2 5.8zm0-32h-10v16h10zm0-32h-10v16h10zm0-32h-10v16h10zm0-32h-10v16h10zm0-32h-10v16h10zm0-32h-10v16h10zm0-32h-10v16h10zm0-28.1h-16v10h6v2.2h10z" fill="#efefef" transform="translate(1412 586)"/><g transform="translate(747 1125)"><path d="m48.5 68.3h-14.2v9.9 4.3h4.3 9.9z"/><path d="m67.9 48.9 14.3-.1v-9.9-4.3h-4.3-9.9z"/><path d="m48.6 34.7h-9.9-4.3l-.1 4.3v9.9h14.3z"/><path d="m67.9 82.5 9.9-.1h4.3v-4.3-9.9h-14.2z"/><path d="m88.2 54.8-26.3.1.1-26.3h15.9l-19.6-19.6-19.6 19.7 15.9-.1-.1 26.3h-26.2v-15.9l-15.9 15.9-3.7 3.7 3.4 3.7 16.2 15.9v-15.9h26.2v26.2h-15.9l19.6 19.6 19.6-19.7-15.9.1v-26.2l26.2-.1v15.9l19.6-19.6-19.5-19.6z" fill="#595b5c"/><path d="m112 54.2-19.6-19.6-10.2-10.2-.1-.1-19.6-19.6-4.2-4.2-4.2 4.2-19.6 19.6-.1.1-10.3 10.3-15.9 15.9-3.7 3.7-4.1 4.1 3.9 4.2 3.4 3.7.1.1.1.1 16.2 15.9 10.2 10.2 19.6 19.6 4.2 4.2 4.2-4.2 19.6-19.6.1-.1 10.3-10.3 19.6-19.6 4.2-4.2zm-29.8-19.6v4.3 9.9h-14.2v-14.2h9.9zm-47.9 4.4v-4.3h4.3 9.9v14.2h-14.2zm0 43.5v-4.3-9.9h14.2v14.2h-9.9zm47.8-4.4v4.3h-4.3-9.9v-14.2h14.2zm6 0v-15.9h-26.2v26.2h15.9l-19.6 19.6-19.6-19.6h15.9v-26.2h-26.2v15.9l-16.2-15.9-3.4-3.7 3.7-3.7 15.9-15.9v15.9h26.2v-26.2h-15.9l19.6-19.6 19.6 19.6h-15.9v26.2h26.2v-15.9l19.6 19.6z" fill="#fff"/></g><path d="m986.7 7.1c4.5 0 8.2 3.7 8.2 8.2v230.5c0 4.5-3.7 8.2-8.2 8.2h-803l-5.6 5.6-.1.1-19.6 19.6-4.2 4.2-4.2-4.2-19.6-19.6-5.8-5.8h-109.1c-4.5 0-8.2-3.7-8.2-8.2v-230.4c0-4.5 3.7-8.2 8.2-8.2zm0-7h-971.2c-8.4 0-15.2 6.8-15.2 15.2v230.5c0 8.4 6.8 15.2 15.2 15.2h106.2l3.7 3.7 19.6 19.6 4.2 4.2c1.3 1.3 3.1 2.1 4.9 2.1 1.9 0 3.6-.7 4.9-2.1l4.2-4.2 19.6-19.6.1-.1 3.6-3.6h800.1c8.4 0 15.2-6.8 15.2-15.2v-230.5c.1-8.4-6.7-15.2-15.1-15.2z" fill="#595b5c" transform="translate(651 958)"/></g></svg>