<svg height="2057" viewBox="0 0 3025 2057" width="3025" xmlns="http://www.w3.org/2000/svg"><g fill="none" fill-rule="evenodd"><path d="m2281.1 683.5c-.6-2.1-3.2-2.1-3.2-2.1l-19.9-.8-6.5-17.8s-.7-2.4-2.8-2.5c-2.1.1-2.8 2.5-2.8 2.5l-6.5 17.8-19.9.8s-2.6 0-3.2 2.1 1.5 3.4 1.5 3.4l15.6 11.6-5.8 19.8s-.7 2.1.8 3.2 3.3-.2 3.3-.2l17-11.7 17 11.7s1.8 1.4 3.3.2c1.5-1.1.8-3.2.8-3.2l-5.8-19.8 15.6-11.6c.1.1 2.2-1.3 1.5-3.4z" fill="#f2b387"/><path d="m917.7 10.7v242.4h-907.7v-242.4zm10-10h-927.7v262.4h927.7z" fill="#efefef" transform="translate(410 1091)"/><g stroke="#eae8e3" stroke-width="7" transform="translate(1833 744)"><path d="m907.8 245.4v6h-6"/><path d="m889.8 251.4h-877.8" stroke-dasharray="11.9437 11.9437"/><path d="m6 251.4h-6v-6"/><path d="m0 232.8v-219.9" stroke-dasharray="12.5676 12.5676"/><path d="m0 6.6v-6h6"/><path d="m17.9.6h877.9" stroke-dasharray="11.9437 11.9437"/><path d="m901.8.6h6v6"/><path d="m907.8 19.1v220" stroke-dasharray="12.5676 12.5676"/></g><g fill="#81a5cb"><path d="m2131.9 695.1h47.1v18.3h-47.1z"/><path d="m2131.9 668.9h47.1v18.3h-47.1z"/></g><path d="m2909 1918.3h-2883.1c-14 0-25.5-11.7-25.5-26.1v-1891.8h2934.1v1891.8c0 14.4-11.5 26.1-25.5 26.1z" fill="#6b6b6b" transform="translate(89 138)"/><path d="m.3 218.4v41.7-228.5c0-18 11.5-30.7 25.5-30.7h2884.2c14 0 25.5 12.7 25.5 30.7v228.5-41.7z" fill="#f2f2f2" transform="translate(89)"/><g transform="translate(137 45)"><circle cx="23.7" cy="28.8" fill="#f2b387" r="22.9"/><circle cx="95.9" cy="28.8" fill="#f4e2d7" r="22.9"/><circle cx="168.1" cy="28.8" fill="#64bdaf" r="22.9"/><path d="m259.1 28.8c0-18.3 14.8-28.4 24.5-28.4h2475.8c26.8 0 41.6 10.1 41.6 28.4s-14.8 30.7-33.1 30.7l-2475.8-2.4c-18.2.1-33-10-33-28.3z" fill="#a4a3a4"/></g><path d="m561.3 419.6h926.7v155.2h-926.7z" fill="#f4f3d1"/><path d="m1502.1 419.6h926.7v155.2h-926.7z" fill="#eae8e3"/><path d="m1502.1 585h926.7v155.2h-926.7z" fill="#eae8e3"/><g fill="#e4eff7"><path d="m2445.5 419.6h561.3v155.2h-561.3z"/><path d="m2445.5 585.2h561.3v155.2h-561.3z"/><path d="m2445.5 750.8h561.3v155.2h-561.3z"/></g><path d="m1502.1 750.7h926.7v73.2h-926.7z" fill="#5485b4"/><path d="m561.3 584.2h926.7v155.2h-926.7z" fill="#f4f3d1"/><path d="m561.3 748.8h926.7v155.2h-926.7z" fill="#f4f3d1"/><path d="m561.3 1080.4h926.6v73.2h-926.6z" fill="#5485b4"/><path d="m561.3 913.9h926.7v155.2h-926.7z" fill="#f4f3d1"/><g fill="#eae8e3"><path d="m561.3 1333.7h926.7v155.2h-926.7z"/><path d="m1502.1 835.5h926.7v155.2h-926.7z"/><path d="m1502.1 1002.4h926.7v155.2h-926.7z"/></g><path d="m561.3 1166.6h926.7v155.2h-926.7z" fill="#f4f3d1"/><path d="m103.7 419.1h440.8v80.9h-440.8z" fill="#5485b4"/><path d="m89.3 138.7h2934.9v173.3h-2934.9z" fill="#5485b4"/><path d="m2999 1h-2884.1c-14 0-25.5 12.7-25.5 30.7v106.8.2 79.8 41.7 51.8 1718.2c0 14.4 11.5 26.1 25.5 26.1h2883.1c14 0 25.5-11.7 25.5-26.1v-1718.2h.8v-93.6h.2v-186.8c0-17.9-11.5-30.6-25.5-30.6z" fill="#587387" opacity=".38"/><g transform="translate(956 1090)"><path d="m13.1 307.8c-6.4 0-11.6-5.2-11.6-11.6v-282.7c0-6.4 5.2-11.6 11.6-11.6h1191.2c6.4 0 11.6 5.2 11.6 11.6v282.7c0 6.4-5.2 11.6-11.6 11.6z" fill="#f4f3d1"/><path d="m1204.3 3.4c5.6 0 10.1 4.5 10.1 10.1v282.7c0 5.6-4.5 10.1-10.1 10.1h-1191.2c-5.6 0-10.1-4.5-10.1-10.1v-282.7c0-5.6 4.5-10.1 10.1-10.1zm0-3h-1191.2c-7.2 0-13.1 5.9-13.1 13.1v282.7c0 7.2 5.9 13.1 13.1 13.1h1191.2c7.2 0 13.1-5.9 13.1-13.1v-282.7c0-7.2-5.8-13.1-13.1-13.1z" fill="#595b5c"/></g><g transform="translate(472 806)"><path d="m13.1 307.8c-6.4 0-11.6-5.2-11.6-11.6v-282.7c0-6.4 5.2-11.6 11.6-11.6h1191.2c6.4 0 11.6 5.2 11.6 11.6v282.7c0 6.4-5.2 11.6-11.6 11.6z" fill="#e4eff7"/><path d="m1204.3 3.4c5.6 0 10.1 4.5 10.1 10.1v282.7c0 5.6-4.5 10.1-10.1 10.1h-1191.2c-5.6 0-10.1-4.5-10.1-10.1v-282.7c0-5.6 4.5-10.1 10.1-10.1zm0-3h-1191.2c-7.2 0-13.1 5.9-13.1 13.1v282.7c0 7.2 5.9 13.1 13.1 13.1h1191.2c7.2 0 13.1-5.9 13.1-13.1v-282.7c0-7.2-5.8-13.1-13.1-13.1z" fill="#595a5b"/></g><g transform="translate(88 581)"><path d="m537.4 204.9h-531.8c-2.8 0-5-2.2-5-5v-194.8c0-2.8 2.2-5 5-5h531.9c2.8 0 5 2.2 5 5v194.9c-.1 2.7-2.3 4.9-5.1 4.9z" fill="#f2f2f2" stroke="#595b5c" stroke-width="3" transform="translate(230 7)"/><path d="m1014 84.1h-156.3c-5.5 0-10-4.5-10-10v-63.5c0-5.5 4.5-10 10-10h156.3c5.5 0 10 4.5 10 10v63.5c0 5.5-4.5 10-10 10z" fill="#a4a3a4"/><path d="m124 48.3c-1.2-3.9-6.1-4-6.1-4l-37.9-1.6-12.3-34s-1.4-4.6-5.4-4.7h-.1c-4 .1-5.4 4.7-5.4 4.7l-12.3 34-37.9 1.6s-4.9 0-6.1 4c-1.2 3.9 2.8 6.6 2.8 6.6l29.7 22.1-11.1 37.8s-1.4 4 1.5 6.2c2.9 2.1 6.3-.4 6.3-.4l32.4-22.2 32.4 22.2s3.4 2.6 6.3.4c2.9-2.1 1.5-6.2 1.5-6.2l-10.7-37.8 29.7-22.1s3.9-2.6 2.7-6.6z" fill="#f2b387"/><path d="m267.8 41.2h516v170h-516z"/><g fill="#676767" font-family="Helvetica" font-size="45" transform="translate(267.7682 29.4449)"><text><tspan x="0" y="44">Shopper should be</tspan></text><text><tspan x="0" y="93">able to view contents</tspan></text><text><tspan x="0" y="142">of shopping cart</tspan></text></g></g><g transform="translate(0 530)"><g transform="translate(1094 647)"><path d="m73.9 21.2c-.3-.6-5.5.5-5.9 0-2.2-3.6-5.1-6.9-8.7-9.5-.6-.4 1.2-5.5.5-5.9-1.3-.8-7.8-4-9.7-4.5-.7-.2-3.7 4.4-4.5 4.3-3.9-.8-7.9-.9-11.8-.3-.7.1-3.1-4.6-3.8-4.5-3.5.7-6.9 1.9-10 3.6-.7.4.5 5.8-.2 6.2-3.2 2.1-6.1 4.8-8.5 8-.4.5-5.6-1.1-6-.6-.9 1.3-3.9 7.9-4.4 9.7-.2.7 4.4 3.7 4.3 4.5-.8 3.9-.9 7.9-.3 11.7.1.7-4.6 3.1-4.5 3.8.7 3.5 1.9 6.9 3.6 10 .4.7 5.8-.5 6.2.2 1.9 2.9 4.3 5.6 7.1 7.9.6.5-1 5.7-.4 6.2 1.6 1.1 8.1 4 9.6 4.5.7.2 3.5-4.3 4.2-4.1 3.9.9 7.8 1.2 11.7.7.8-.1 3.3 4.8 4.1 4.7 3.5-.6 6.9-1.9 10-3.6.6-.3-.5-5.5 0-5.9 3.3-2 6.3-4.6 8.8-7.8.5-.6 5.7 1 6.2.4 1.1-1.6 4-8.1 4.5-9.6.2-.7-4.3-3.5-4.1-4.2.9-3.9 1.2-7.9.7-11.8-.1-.8 4.8-3.3 4.7-4.1-.4-3.5-1.7-6.9-3.4-10zm-21.2 24.8c-3.5 7.5-12.5 10.8-20.1 7.2-7.5-3.5-10.8-12.5-7.2-20.1 3.5-7.5 12.5-10.8 20.1-7.2 7.5 3.6 10.8 12.6 7.2 20.1z" fill="#838484"/><path d="m39 6.8c-17.7 0-32 14.5-32 32.3 0 17.9 14.3 32.3 32 32.3s32-14.5 32-32.3-14.3-32.3-32-32.3zm10.1 42.6c-5.6 5.6-14.6 5.6-20.2 0s-5.6-14.7 0-20.4c5.6-5.6 14.6-5.6 20.2 0s5.6 14.7 0 20.4z" fill="#b1b1b1"/><path d="m50.7 17.9c-7.3-4.1-16.3-4.1-23.7-.1m32.8 33.3c4.2-7.2 4.3-16.1.5-23.4m-34.2 31.9c7.2 4.5 16.2 4.8 23.7 1m-32.1-33.4c-4.2 7.5-4.1 16.9.4 24.3"/><path d="m73.9 21.2c-.3-.6-5.5.5-5.9 0-2.2-3.6-5.1-6.9-8.7-9.5-.6-.4 1.2-5.5.5-5.9-1.3-.8-7.8-4-9.7-4.5-.7-.2-3.7 4.4-4.5 4.3-3.9-.8-7.9-.9-11.8-.3-.7.1-3.1-4.6-3.8-4.5-3.5.7-6.9 1.9-10 3.6-.7.4.5 5.8-.2 6.2-3.2 2.1-6.1 4.8-8.5 8-.4.5-5.6-1.1-6-.6-.9 1.3-3.9 7.9-4.4 9.7-.2.7 4.4 3.7 4.3 4.5-.8 3.9-.9 7.9-.3 11.7.1.7-4.6 3.1-4.5 3.8.7 3.5 1.9 6.9 3.6 10 .4.7 5.8-.5 6.2.2 1.9 2.9 4.3 5.6 7.1 7.9.6.5-1 5.7-.4 6.2 1.6 1.1 8.1 4 9.6 4.5.7.2 3.5-4.3 4.2-4.1 3.9.9 7.8 1.2 11.7.7.8-.1 3.3 4.8 4.1 4.7 3.5-.6 6.9-1.9 10-3.6.6-.3-.5-5.5 0-5.9 3.3-2 6.3-4.6 8.8-7.8.5-.6 5.7 1 6.2.4 1.1-1.6 4-8.1 4.5-9.6.2-.7-4.3-3.5-4.1-4.2.9-3.9 1.2-7.9.7-11.8-.1-.8 4.8-3.3 4.7-4.1-.4-3.5-1.7-6.9-3.4-10z"/><circle cx="39.3" cy="39.2" r="15.1"/></g><g fill="#fff" transform="translate(824 363)"><path d="m769.2 47.4h-762.2c-3.7 0-6.6-3-6.6-6.6v-33.9c0-3.7 3-6.6 6.6-6.6h762.3c3.7 0 6.6 3 6.6 6.6v33.9c0 3.7-3 6.6-6.7 6.6z"/><path d="m769.2 123.4h-762.2c-3.7 0-6.6-3-6.6-6.6v-33.9c0-3.7 3-6.6 6.6-6.6h762.3c3.7 0 6.6 3 6.6 6.6v33.9c0 3.6-3 6.6-6.7 6.6z"/></g><g transform="translate(4 4)"><path d="m13.1 307.8c-6.4 0-11.6-5.2-11.6-11.6v-282.6c0-6.4 5.2-11.6 11.6-11.6h1191.2c6.4 0 11.6 5.2 11.6 11.6v282.7c0 6.4-5.2 11.6-11.6 11.6h-1191.2z" fill="#ededed"/><path d="m1204.3 3.5c5.6 0 10.1 4.5 10.1 10.1v282.7c0 5.6-4.5 10.1-10.1 10.1h-1191.2c-5.6 0-10.1-4.5-10.1-10.1v-282.7c0-5.6 4.5-10.1 10.1-10.1zm0-3h-1191.2c-7.2 0-13.1 5.9-13.1 13.1v282.7c0 7.2 5.9 13.1 13.1 13.1h1191.2c7.2 0 13.1-5.9 13.1-13.1v-282.7c0-7.3-5.8-13.1-13.1-13.1z" fill="#595a5b"/><path d="m811.8 228.3h-805.3c-3.6 0-6.5-2.9-6.5-6.5v-215c0-3.6 2.9-6.5 6.5-6.5h805.3c3.6 0 6.5 2.9 6.5 6.5v215.1c0 3.5-3 6.4-6.5 6.4z" fill="#fff" transform="translate(340 40)"/><g fill="#676767" transform="translate(378 70)"><path d="m2.4 31.9 5.7-.5c.3 2.3.9 4.2 1.9 5.6 1 1.5 2.5 2.6 4.6 3.5s4.4 1.4 7 1.4c2.3 0 4.3-.3 6.1-1s3.1-1.6 3.9-2.8c.9-1.2 1.3-2.5 1.3-3.9s-.4-2.7-1.2-3.7c-.8-1.1-2.2-2-4.1-2.7-1.2-.5-3.9-1.2-8.1-2.2s-7.1-2-8.8-2.8c-2.2-1.1-3.8-2.6-4.9-4.2-1.1-1.7-1.6-3.6-1.6-5.7 0-2.3.7-4.5 2-6.5s3.2-3.5 5.7-4.6c2.5-1 5.3-1.6 8.4-1.6 3.4 0 6.4.5 8.9 1.6 2.6 1.1 4.6 2.7 6 4.8s2.1 4.5 2.2 7.2l-5.8.4c-.3-2.9-1.4-5.1-3.2-6.5-1.8-1.5-4.4-2.2-7.9-2.2-3.6 0-6.3.7-8 2s-2.5 2.9-2.5 4.8c0 1.6.6 3 1.8 4 1.2 1.1 4.2 2.1 9.1 3.2s8.3 2.1 10.1 2.9c2.7 1.2 4.6 2.8 5.9 4.6 1.3 1.9 1.9 4 1.9 6.5 0 2.4-.7 4.7-2.1 6.9-1.4 2.1-3.4 3.8-6 5s-5.5 1.8-8.8 1.8c-4.1 0-7.6-.6-10.4-1.8s-5-3-6.6-5.4c-1.6-2.3-2.4-5-2.5-8.1z"/><path d="m46.2 46.6v-45.6h5.6v16.4c2.6-3 5.9-4.5 9.9-4.5 2.4 0 4.6.5 6.4 1.4 1.8 1 3.1 2.3 3.9 4s1.2 4.2 1.2 7.4v20.9h-5.6v-20.9c0-2.8-.6-4.8-1.8-6.1s-2.9-1.9-5.1-1.9c-1.7 0-3.2.4-4.7 1.3s-2.5 2-3.1 3.5-.9 3.5-.9 6.1v18.1h-5.8z"/><path d="m79.5 30.1c0-6.1 1.7-10.6 5.1-13.6 2.8-2.4 6.3-3.7 10.4-3.7 4.5 0 8.3 1.5 11.1 4.5 2.9 3 4.3 7.1 4.3 12.3 0 4.2-.6 7.6-1.9 10s-3.1 4.3-5.6 5.7c-2.4 1.3-5.1 2-8 2-4.6 0-8.4-1.5-11.2-4.4-2.7-3-4.2-7.3-4.2-12.8zm5.8 0c0 4.2.9 7.4 2.8 9.5 1.8 2.1 4.2 3.2 7 3.2s5.1-1.1 6.9-3.2 2.8-5.3 2.8-9.7c0-4.1-.9-7.2-2.8-9.3s-4.2-3.2-6.9-3.2c-2.8 0-5.1 1-7 3.1-1.9 2.2-2.8 5.3-2.8 9.6z"/><path d="m117 59.2v-45.7h5.1v4.3c1.2-1.7 2.6-2.9 4.1-3.8 1.5-.8 3.3-1.3 5.5-1.3 2.8 0 5.3.7 7.5 2.2s3.8 3.5 4.9 6.1 1.6 5.5 1.6 8.7c0 3.4-.6 6.4-1.8 9.1s-3 4.8-5.3 6.2-4.7 2.2-7.3 2.2c-1.9 0-3.5-.4-5-1.2s-2.7-1.8-3.7-3v16.1h-5.6zm5.1-29c0 4.2.9 7.4 2.6 9.4s3.8 3 6.3 3 4.6-1.1 6.4-3.2 2.7-5.4 2.7-9.8c0-4.2-.9-7.4-2.6-9.5s-3.8-3.1-6.2-3.1-4.5 1.1-6.3 3.3c-2 2.5-2.9 5.7-2.9 9.9z"/><path d="m152.5 59.2v-45.7h5.1v4.3c1.2-1.7 2.6-2.9 4.1-3.8 1.5-.8 3.3-1.3 5.5-1.3 2.8 0 5.3.7 7.5 2.2s3.8 3.5 4.9 6.1 1.6 5.5 1.6 8.7c0 3.4-.6 6.4-1.8 9.1s-3 4.8-5.3 6.2-4.7 2.2-7.3 2.2c-1.9 0-3.5-.4-5-1.2s-2.7-1.8-3.7-3v16.1h-5.6zm5-29c0 4.2.9 7.4 2.6 9.4s3.8 3 6.3 3 4.6-1.1 6.4-3.2 2.7-5.4 2.7-9.8c0-4.2-.9-7.4-2.6-9.5s-3.8-3.1-6.2-3.1-4.5 1.1-6.3 3.3c-2 2.5-2.9 5.7-2.9 9.9z"/><path d="m210.5 35.9 5.8.7c-.9 3.4-2.6 6-5.1 7.9s-5.6 2.8-9.5 2.8c-4.8 0-8.7-1.5-11.5-4.5s-4.2-7.1-4.2-12.5c0-5.6 1.4-9.9 4.3-12.9 2.9-3.1 6.6-4.6 11.1-4.6 4.4 0 8 1.5 10.8 4.5s4.2 7.2 4.2 12.7v1.5h-24.6c.2 3.6 1.2 6.4 3.1 8.3 1.8 1.9 4.1 2.9 6.9 2.9 2.1 0 3.8-.5 5.3-1.6 1.4-1.1 2.5-2.8 3.4-5.2zm-18.4-9h18.4c-.2-2.8-1-4.9-2.1-6.3-1.8-2.2-4.1-3.2-6.9-3.2-2.6 0-4.7.9-6.5 2.6-1.7 1.7-2.7 4-2.9 6.9z"/><path d="m223.2 46.6v-33h5v5c1.3-2.3 2.5-3.9 3.6-4.6s2.3-1.1 3.6-1.1c1.9 0 3.8.6 5.8 1.8l-1.9 5.2c-1.4-.8-2.7-1.2-4.1-1.2-1.2 0-2.3.4-3.3 1.1s-1.7 1.8-2.1 3.1c-.6 2-.9 4.2-.9 6.5v17.3h-5.7z"/><path d="m260 36.7 5.5-.9c.3 2.2 1.2 3.9 2.6 5.1s3.4 1.8 6 1.8 4.5-.5 5.7-1.6c1.2-1 1.9-2.3 1.9-3.7 0-1.3-.5-2.3-1.6-3-.8-.5-2.7-1.1-5.7-1.9-4.1-1-7-1.9-8.5-2.7-1.6-.8-2.8-1.8-3.6-3.1s-1.2-2.8-1.2-4.4c0-1.5.3-2.8 1-4.1s1.6-2.3 2.8-3.1c.9-.6 2.1-1.2 3.6-1.6s3.1-.7 4.8-.7c2.6 0 4.9.4 6.8 1.1 2 .7 3.4 1.8 4.3 3 .9 1.3 1.6 3 1.9 5.1l-5.5.7c-.2-1.7-1-3-2.2-4s-2.9-1.4-5.1-1.4c-2.6 0-4.4.4-5.5 1.3s-1.6 1.8-1.6 3c0 .7.2 1.4.7 2s1.2 1.1 2.1 1.5c.6.2 2.2.7 4.9 1.4 4 1.1 6.7 1.9 8.3 2.6s2.8 1.7 3.7 2.9c.9 1.3 1.3 2.9 1.3 4.8s-.5 3.6-1.6 5.3c-1.1 1.6-2.7 2.9-4.7 3.8-2.1.9-4.4 1.4-7 1.4-4.3 0-7.6-.9-9.8-2.7-2.3-1.7-3.7-4.4-4.3-7.9z"/><path d="m294 46.6v-45.6h5.6v16.4c2.6-3 5.9-4.5 9.9-4.5 2.4 0 4.6.5 6.4 1.4 1.8 1 3.1 2.3 3.9 4s1.2 4.2 1.2 7.4v20.9h-5.6v-20.9c0-2.8-.6-4.8-1.8-6.1s-2.9-1.9-5.1-1.9c-1.7 0-3.2.4-4.7 1.3s-2.5 2-3.1 3.5-.9 3.5-.9 6.1v18.1h-5.8z"/><path d="m327.4 30.1c0-6.1 1.7-10.6 5.1-13.6 2.8-2.4 6.3-3.7 10.4-3.7 4.5 0 8.3 1.5 11.1 4.5 2.9 3 4.3 7.1 4.3 12.3 0 4.2-.6 7.6-1.9 10s-3.1 4.3-5.6 5.7c-2.4 1.3-5.1 2-8 2-4.6 0-8.4-1.5-11.2-4.4-2.8-3-4.2-7.3-4.2-12.8zm5.7 0c0 4.2.9 7.4 2.8 9.5 1.8 2.1 4.2 3.2 7 3.2s5.1-1.1 6.9-3.2 2.8-5.3 2.8-9.7c0-4.1-.9-7.2-2.8-9.3s-4.2-3.2-6.9-3.2c-2.8 0-5.1 1-7 3.1-1.8 2.2-2.8 5.3-2.8 9.6z"/><path d="m386.5 46.6v-4.9c-2.6 3.7-6.1 5.6-10.5 5.6-1.9 0-3.8-.4-5.5-1.1s-2.9-1.7-3.8-2.8c-.8-1.1-1.4-2.5-1.7-4.2-.2-1.1-.3-2.8-.3-5.2v-20.5h5.6v18.3c0 2.9.1 4.9.3 5.9.4 1.5 1.1 2.6 2.2 3.5 1.1.8 2.5 1.3 4.2 1.3s3.3-.4 4.7-1.3c1.5-.9 2.5-2 3.1-3.5s.9-3.6.9-6.5v-17.7h5.6v33h-4.8z"/><path d="m400.2 46.6v-45.6h5.6v45.6z"/><path d="m435.9 46.6v-4.2c-2.1 3.3-5.2 4.9-9.2 4.9-2.6 0-5.1-.7-7.3-2.2s-3.9-3.5-5.1-6.1-1.8-5.6-1.8-9c0-3.3.5-6.3 1.6-9s2.7-4.7 4.9-6.2c2.2-1.4 4.7-2.1 7.4-2.1 2 0 3.8.4 5.3 1.3 1.6.8 2.8 1.9 3.8 3.3v-16.3h5.6v45.6zm-17.7-16.5c0 4.2.9 7.4 2.7 9.5s3.9 3.1 6.3 3.1 4.5-1 6.2-3 2.6-5.1 2.6-9.2c0-4.5-.9-7.8-2.6-10s-3.9-3.2-6.4-3.2-4.6 1-6.2 3c-1.8 2.2-2.6 5.4-2.6 9.8z"/><path d="m472.7 46.6h-5.2v-45.6h5.6v16.3c2.4-3 5.4-4.4 9-4.4 2 0 4 .4 5.8 1.2s3.3 2 4.5 3.5 2.1 3.3 2.8 5.4 1 4.3 1 6.7c0 5.7-1.4 10-4.2 13.1s-6.2 4.6-10.1 4.6-7-1.6-9.2-4.9zm0-16.8c0 4 .5 6.8 1.6 8.6 1.8 2.9 4.1 4.3 7.2 4.3 2.4 0 4.6-1.1 6.3-3.2 1.8-2.1 2.7-5.3 2.7-9.5 0-4.3-.9-7.5-2.6-9.5-1.7-2.1-3.8-3.1-6.2-3.1s-4.6 1.1-6.3 3.2c-1.9 2.1-2.7 5.2-2.7 9.2z"/><path d="m525.6 35.9 5.8.7c-.9 3.4-2.6 6-5.1 7.9s-5.6 2.8-9.5 2.8c-4.8 0-8.7-1.5-11.5-4.5s-4.2-7.1-4.2-12.5c0-5.6 1.4-9.9 4.3-12.9 2.9-3.1 6.6-4.6 11.1-4.6 4.4 0 8 1.5 10.8 4.5s4.2 7.2 4.2 12.7v1.5h-24.6c.2 3.6 1.2 6.4 3.1 8.3 1.8 1.9 4.1 2.9 6.9 2.9 2.1 0 3.8-.5 5.3-1.6 1.4-1.1 2.5-2.8 3.4-5.2zm-18.4-9h18.4c-.2-2.8-1-4.9-2.1-6.3-1.8-2.2-4.1-3.2-6.9-3.2-2.6 0-4.7.9-6.5 2.6-1.7 1.7-2.7 4-2.9 6.9z"/><path d="m577.6 42.5c-2.1 1.8-4.1 3-6 3.7s-4 1.1-6.2 1.1c-3.6 0-6.4-.9-8.4-2.7-1.9-1.8-2.9-4-2.9-6.8 0-1.6.4-3.1 1.1-4.4s1.7-2.4 2.9-3.2 2.5-1.4 4-1.8c1.1-.3 2.8-.6 5-.8 4.5-.5 7.8-1.2 10-1.9v-1.5c0-2.3-.5-3.9-1.6-4.8-1.4-1.3-3.6-1.9-6.4-1.9-2.6 0-4.6.5-5.8 1.4-1.3.9-2.2 2.6-2.8 4.9l-5.5-.7c.5-2.3 1.3-4.2 2.5-5.7 1.1-1.4 2.8-2.5 4.9-3.3 2.2-.8 4.7-1.2 7.5-1.2s5.1.3 6.9 1 3.1 1.5 3.9 2.5 1.4 2.3 1.7 3.8c.2 1 .3 2.7.3 5.2v7.5c0 5.2.1 8.5.4 9.9.2 1.4.7 2.7 1.4 4h-5.8c-.5-1.4-.9-2.7-1.1-4.3zm-.4-12.5c-2 .8-5.1 1.5-9.1 2.1-2.3.3-3.9.7-4.9 1.1s-1.7 1-2.2 1.8-.8 1.7-.8 2.7c0 1.5.6 2.7 1.7 3.7s2.8 1.5 5 1.5 4.1-.5 5.8-1.4 2.9-2.2 3.7-3.9c.6-1.3.9-3.1.9-5.6v-2z"/><path d="m596.7 46.6h-5.2v-45.6h5.6v16.3c2.4-3 5.4-4.4 9-4.4 2 0 4 .4 5.8 1.2s3.3 2 4.5 3.5 2.1 3.3 2.8 5.4 1 4.3 1 6.7c0 5.7-1.4 10-4.2 13.1s-6.2 4.6-10.1 4.6-7-1.6-9.2-4.9zm-.1-16.8c0 4 .5 6.8 1.6 8.6 1.8 2.9 4.1 4.3 7.2 4.3 2.4 0 4.6-1.1 6.3-3.2 1.8-2.1 2.7-5.3 2.7-9.5 0-4.3-.9-7.5-2.6-9.5-1.7-2.1-3.8-3.1-6.2-3.1s-4.6 1.1-6.3 3.2c-1.8 2.1-2.7 5.2-2.7 9.2z"/><path d="m626.8 46.6v-45.6h5.6v45.6z"/><path d="m663.7 35.9 5.8.7c-.9 3.4-2.6 6-5.1 7.9s-5.6 2.8-9.5 2.8c-4.8 0-8.7-1.5-11.5-4.5s-4.2-7.1-4.2-12.5c0-5.6 1.4-9.9 4.3-12.9 2.9-3.1 6.6-4.6 11.1-4.6 4.4 0 8 1.5 10.8 4.5s4.2 7.2 4.2 12.7v1.5h-24.6c.2 3.6 1.2 6.4 3.1 8.3 1.8 1.9 4.1 2.9 6.9 2.9 2.1 0 3.8-.5 5.3-1.6 1.4-1.1 2.5-2.8 3.4-5.2zm-18.4-9h18.4c-.2-2.8-1-4.9-2.1-6.3-1.8-2.2-4.1-3.2-6.9-3.2-2.6 0-4.7.9-6.5 2.6-1.7 1.7-2.7 4-2.9 6.9z"/><path d="m16 105.2.8 4.9c-1.6.3-3 .5-4.2.5-2 0-3.6-.3-4.7-1-1.1-.6-1.9-1.5-2.4-2.5s-.7-3.2-.7-6.6v-19h-4.1v-4.4h4.1v-8.2l5.6-3.4v11.5h5.6v4.4h-5.6v19.3c0 1.6.1 2.6.3 3.1s.5.8 1 1.1 1.1.4 1.9.4c.5.2 1.3.1 2.4-.1z"/><path d="m19.3 93.7c0-6.1 1.7-10.6 5.1-13.6 2.8-2.4 6.3-3.7 10.4-3.7 4.5 0 8.3 1.5 11.1 4.5 2.9 3 4.3 7.1 4.3 12.3 0 4.2-.6 7.6-1.9 10s-3.1 4.3-5.6 5.7c-2.4 1.3-5.1 2-8 2-4.6 0-8.4-1.5-11.2-4.4-2.7-2.9-4.2-7.2-4.2-12.8zm5.8 0c0 4.2.9 7.4 2.8 9.5 1.8 2.1 4.2 3.2 7 3.2s5.1-1.1 6.9-3.2 2.8-5.3 2.8-9.7c0-4.1-.9-7.2-2.8-9.3s-4.2-3.2-6.9-3.2c-2.8 0-5.1 1-7 3.1-1.9 2.3-2.8 5.4-2.8 9.6z"/><path d="m83.7 110.3-12.6-33h5.9l7.1 19.8c.8 2.1 1.5 4.4 2.1 6.7.5-1.7 1.2-3.8 2.1-6.3l7.3-20.1h5.8l-12.5 33h-5.2z"/><path d="m106.4 71.1v-6.4h5.6v6.4zm0 39.2v-33h5.6v33z"/><path d="m143.1 99.6 5.8.7c-.9 3.4-2.6 6-5.1 7.9s-5.6 2.8-9.5 2.8c-4.8 0-8.7-1.5-11.5-4.5s-4.2-7.1-4.2-12.5c0-5.6 1.4-9.9 4.3-12.9 2.9-3.1 6.6-4.6 11.1-4.6 4.4 0 8 1.5 10.8 4.5s4.2 7.2 4.2 12.7v1.5h-24.6c.2 3.6 1.2 6.4 3.1 8.3 1.8 1.9 4.1 2.9 6.9 2.9 2.1 0 3.8-.5 5.3-1.6 1.4-1.1 2.6-2.8 3.4-5.2zm-18.3-9h18.4c-.2-2.8-1-4.9-2.1-6.3-1.8-2.2-4.1-3.2-6.9-3.2-2.6 0-4.7.9-6.5 2.6s-2.8 4-2.9 6.9z"/><path d="m162 110.3-10.1-33h5.8l5.3 19.1 2 7.1c.1-.4.7-2.6 1.7-6.8l5.3-19.3h5.8l4.9 19.2 1.6 6.3 1.9-6.4 5.7-19.1h5.4l-10.3 33h-5.8l-5.3-19.8-1.3-5.6-6.7 25.4h-5.9z"/><path d="m241.2 98.2 5.5.7c-.6 3.8-2.1 6.8-4.6 8.9s-5.5 3.2-9.1 3.2c-4.5 0-8.2-1.5-10.9-4.4-2.7-3-4.1-7.2-4.1-12.7 0-3.6.6-6.7 1.8-9.4s3-4.7 5.4-6 5-2 7.9-2c3.6 0 6.5.9 8.8 2.7s3.7 4.4 4.4 7.7l-5.4.8c-.5-2.2-1.4-3.9-2.8-5-1.3-1.1-2.9-1.7-4.8-1.7-2.8 0-5.1 1-6.9 3s-2.6 5.2-2.6 9.6.8 7.7 2.5 9.7 3.9 3 6.7 3c2.2 0 4-.7 5.5-2 1.4-1.3 2.3-3.3 2.7-6.1z"/><path d="m249.4 93.7c0-6.1 1.7-10.6 5.1-13.6 2.8-2.4 6.3-3.7 10.4-3.7 4.5 0 8.3 1.5 11.1 4.5 2.9 3 4.3 7.1 4.3 12.3 0 4.2-.6 7.6-1.9 10s-3.1 4.3-5.6 5.7c-2.4 1.3-5.1 2-8 2-4.6 0-8.4-1.5-11.2-4.4s-4.2-7.2-4.2-12.8zm5.7 0c0 4.2.9 7.4 2.8 9.5 1.8 2.1 4.2 3.2 7 3.2s5.1-1.1 6.9-3.2 2.8-5.3 2.8-9.7c0-4.1-.9-7.2-2.8-9.3s-4.2-3.2-6.9-3.2c-2.8 0-5.1 1-7 3.1-1.8 2.3-2.8 5.4-2.8 9.6z"/><path d="m286.9 110.3v-33h5v4.7c2.4-3.6 5.9-5.4 10.5-5.4 2 0 3.8.4 5.5 1.1s2.9 1.7 3.7 2.8c.8 1.2 1.4 2.5 1.7 4.1.2 1 .3 2.9.3 5.4v20.3h-5.6v-20.1c0-2.3-.2-4-.7-5.1-.4-1.1-1.2-2-2.3-2.7s-2.4-1-3.9-1c-2.4 0-4.4.8-6.2 2.3-1.7 1.5-2.6 4.4-2.6 8.6v18z"/><path d="m334.5 105.2.8 4.9c-1.6.3-3 .5-4.2.5-2 0-3.6-.3-4.7-1-1.1-.6-1.9-1.5-2.4-2.5s-.7-3.2-.7-6.6v-19h-4.1v-4.4h4.1v-8.2l5.6-3.4v11.5h5.6v4.4h-5.6v19.3c0 1.6.1 2.6.3 3.1s.5.8 1 1.1 1.1.4 1.9.4c.6.2 1.4.1 2.4-.1z"/><path d="m362.6 99.6 5.8.7c-.9 3.4-2.6 6-5.1 7.9s-5.6 2.8-9.5 2.8c-4.8 0-8.7-1.5-11.5-4.5s-4.2-7.1-4.2-12.5c0-5.6 1.4-9.9 4.3-12.9 2.9-3.1 6.6-4.6 11.1-4.6 4.4 0 8 1.5 10.8 4.5s4.2 7.2 4.2 12.7v1.5h-24.6c.2 3.6 1.2 6.4 3.1 8.3 1.8 1.9 4.1 2.9 6.9 2.9 2.1 0 3.8-.5 5.3-1.6 1.4-1.1 2.6-2.8 3.4-5.2zm-18.4-9h18.4c-.2-2.8-1-4.9-2.1-6.3-1.8-2.2-4.1-3.2-6.9-3.2-2.6 0-4.7.9-6.5 2.6-1.7 1.7-2.7 4-2.9 6.9z"/><path d="m375.4 110.3v-33h5v4.7c2.4-3.6 5.9-5.4 10.5-5.4 2 0 3.8.4 5.5 1.1s2.9 1.7 3.7 2.8c.8 1.2 1.4 2.5 1.7 4.1.2 1 .3 2.9.3 5.4v20.3h-5.6v-20.1c0-2.3-.2-4-.7-5.1-.4-1.1-1.2-2-2.3-2.7s-2.4-1-3.9-1c-2.4 0-4.4.8-6.2 2.3-1.7 1.5-2.6 4.4-2.6 8.6v18z"/><path d="m423.1 105.2.8 4.9c-1.6.3-3 .5-4.2.5-2 0-3.6-.3-4.7-1-1.1-.6-1.9-1.5-2.4-2.5s-.7-3.2-.7-6.6v-19h-4.1v-4.4h4.1v-8.2l5.6-3.4v11.5h5.6v4.4h-5.6v19.3c0 1.6.1 2.6.3 3.1s.5.8 1 1.1 1.1.4 1.9.4c.5.2 1.3.1 2.4-.1z"/><path d="m426.3 100.4 5.5-.9c.3 2.2 1.2 3.9 2.6 5.1s3.4 1.8 6 1.8 4.5-.5 5.7-1.6c1.2-1 1.9-2.3 1.9-3.7 0-1.3-.5-2.3-1.6-3-.8-.5-2.7-1.1-5.7-1.9-4.1-1-7-1.9-8.5-2.7-1.6-.8-2.8-1.8-3.6-3.1s-1.2-2.8-1.2-4.4c0-1.5.3-2.8 1-4.1s1.6-2.3 2.8-3.1c.9-.6 2.1-1.2 3.6-1.6s3.1-.7 4.8-.7c2.6 0 4.9.4 6.8 1.1 2 .7 3.4 1.8 4.3 3 .9 1.3 1.6 3 1.9 5.1l-5.5.7c-.2-1.7-1-3-2.2-4s-2.9-1.4-5.1-1.4c-2.6 0-4.4.4-5.5 1.3s-1.6 1.8-1.6 3c0 .7.2 1.4.7 2s1.2 1.1 2.1 1.5c.6.2 2.2.7 4.9 1.4 4 1.1 6.7 1.9 8.3 2.6s2.8 1.7 3.7 2.9c.9 1.3 1.3 2.9 1.3 4.8s-.5 3.6-1.6 5.3c-1.1 1.6-2.7 2.9-4.7 3.8-2.1.9-4.4 1.4-7 1.4-4.3 0-7.6-.9-9.8-2.7-2.3-1.8-3.7-4.4-4.3-7.9z"/><path d="m476 93.7c0-6.1 1.7-10.6 5.1-13.6 2.8-2.4 6.3-3.7 10.4-3.7 4.5 0 8.3 1.5 11.1 4.5 2.9 3 4.3 7.1 4.3 12.3 0 4.2-.6 7.6-1.9 10s-3.1 4.3-5.6 5.7c-2.4 1.3-5.1 2-8 2-4.6 0-8.4-1.5-11.2-4.4s-4.2-7.2-4.2-12.8zm5.7 0c0 4.2.9 7.4 2.8 9.5 1.8 2.1 4.2 3.2 7 3.2s5.1-1.1 6.9-3.2 2.8-5.3 2.8-9.7c0-4.1-.9-7.2-2.8-9.3s-4.2-3.2-6.9-3.2c-2.8 0-5.1 1-7 3.1-1.8 2.3-2.8 5.4-2.8 9.6z"/><path d="m514.8 110.3v-28.7h-4.9v-4.4h4.9v-3.5c0-2.2.2-3.9.6-4.9.5-1.5 1.5-2.6 2.8-3.5 1.4-.9 3.3-1.4 5.7-1.4 1.6 0 3.3.2 5.2.6l-.8 4.9c-1.2-.2-2.3-.3-3.3-.3-1.7 0-2.9.4-3.6 1.1s-1.1 2.1-1.1 4.1v3h6.4v4.4h-6.4v28.7h-5.5z"/><path d="m561.1 105.2.8 4.9c-1.6.3-3 .5-4.2.5-2 0-3.6-.3-4.7-1-1.1-.6-1.9-1.5-2.4-2.5s-.7-3.2-.7-6.6v-19h-4.1v-4.4h4.1v-8.2l5.6-3.4v11.5h5.6v4.4h-5.6v19.3c0 1.6.1 2.6.3 3.1s.5.8 1 1.1 1.1.4 1.9.4c.6.2 1.4.1 2.4-.1z"/><path d="m566.6 110.3v-45.6h5.6v16.3c2.6-3 5.9-4.5 9.9-4.5 2.4 0 4.6.5 6.4 1.4 1.8 1 3.1 2.3 3.9 4s1.2 4.2 1.2 7.4v20.9h-5.6v-20.9c0-2.8-.6-4.8-1.8-6.1s-2.9-1.9-5.1-1.9c-1.7 0-3.2.4-4.7 1.3s-2.5 2-3.1 3.5-.9 3.5-.9 6.1v18.1z"/><path d="m624.6 99.6 5.8.7c-.9 3.4-2.6 6-5.1 7.9s-5.6 2.8-9.5 2.8c-4.8 0-8.7-1.5-11.5-4.5s-4.2-7.1-4.2-12.5c0-5.6 1.4-9.9 4.3-12.9 2.9-3.1 6.6-4.6 11.1-4.6 4.4 0 8 1.5 10.8 4.5s4.2 7.2 4.2 12.7v1.5h-24.6c.2 3.6 1.2 6.4 3.1 8.3 1.8 1.9 4.1 2.9 6.9 2.9 2.1 0 3.8-.5 5.3-1.6 1.4-1.1 2.5-2.8 3.4-5.2zm-18.4-9h18.4c-.2-2.8-1-4.9-2.1-6.3-1.8-2.2-4.1-3.2-6.9-3.2-2.6 0-4.7.9-6.5 2.6-1.7 1.7-2.7 4-2.9 6.9z"/><path d="m637.4 71.1v-6.4h5.6v6.4zm0 39.2v-33h5.6v33z"/><path d="m651.5 110.3v-33h5v5c1.3-2.3 2.5-3.9 3.6-4.6s2.3-1.1 3.6-1.1c1.9 0 3.8.6 5.8 1.8l-1.9 5.2c-1.4-.8-2.7-1.2-4.1-1.2-1.2 0-2.3.4-3.3 1.1s-1.7 1.8-2.1 3.1c-.6 2-.9 4.2-.9 6.5v17.3h-5.7z"/><path d="m1.5 164.1 5.5-.9c.3 2.2 1.2 3.9 2.6 5.1s3.4 1.8 6 1.8 4.5-.5 5.7-1.6c1.2-1 1.9-2.3 1.9-3.7 0-1.3-.5-2.3-1.6-3-.8-.5-2.7-1.1-5.7-1.9-4.1-1-7-1.9-8.5-2.7-1.6-.8-2.8-1.8-3.6-3.1s-1.2-2.8-1.2-4.4c0-1.5.3-2.8 1-4.1s1.6-2.3 2.8-3.1c.9-.6 2.1-1.2 3.6-1.6s3.1-.7 4.8-.7c2.6 0 4.9.4 6.8 1.1 2 .7 3.4 1.8 4.3 3 .9 1.3 1.6 3 1.9 5.1l-5.5.7c-.2-1.7-1-3-2.2-4s-2.9-1.4-5.1-1.4c-2.6 0-4.4.4-5.5 1.3s-1.6 1.8-1.6 3c0 .7.2 1.4.7 2s1.2 1.1 2.1 1.5c.6.2 2.2.7 4.9 1.4 4 1.1 6.7 1.9 8.3 2.6s2.8 1.7 3.7 2.9c.9 1.3 1.3 2.9 1.3 4.8s-.5 3.6-1.6 5.3c-1.1 1.6-2.7 2.9-4.7 3.8-2.1.9-4.4 1.4-7 1.4-4.3 0-7.6-.9-9.8-2.7s-3.7-4.4-4.3-7.9z"/><path d="m35.6 173.9v-45.6h5.6v16.4c2.6-3 5.9-4.5 9.9-4.5 2.4 0 4.6.5 6.4 1.4 1.8 1 3.1 2.3 3.9 4s1.2 4.2 1.2 7.4v20.9h-5.6v-20.9c0-2.8-.6-4.8-1.8-6.1s-2.9-1.9-5.1-1.9c-1.7 0-3.2.4-4.7 1.3s-2.5 2-3.1 3.5-.9 3.5-.9 6.1v18.1h-5.8z"/><path d="m68.9 157.4c0-6.1 1.7-10.6 5.1-13.6 2.8-2.4 6.3-3.7 10.4-3.7 4.5 0 8.3 1.5 11.1 4.5 2.9 3 4.3 7.1 4.3 12.3 0 4.2-.6 7.6-1.9 10s-3.1 4.3-5.6 5.7c-2.4 1.3-5.1 2-8 2-4.6 0-8.4-1.5-11.2-4.4s-4.2-7.2-4.2-12.8zm5.8 0c0 4.2.9 7.4 2.8 9.5 1.8 2.1 4.2 3.2 7 3.2s5.1-1.1 6.9-3.2 2.8-5.3 2.8-9.7c0-4.1-.9-7.2-2.8-9.3s-4.2-3.2-6.9-3.2c-2.8 0-5.1 1-7 3.1-1.9 2.2-2.8 5.4-2.8 9.6z"/><path d="m106.4 186.6v-45.7h5.1v4.3c1.2-1.7 2.6-2.9 4.1-3.8 1.5-.8 3.3-1.3 5.5-1.3 2.8 0 5.3.7 7.5 2.2s3.8 3.5 4.9 6.1 1.6 5.5 1.6 8.7c0 3.4-.6 6.4-1.8 9.1s-3 4.8-5.3 6.2-4.7 2.2-7.3 2.2c-1.9 0-3.5-.4-5-1.2s-2.7-1.8-3.7-3v16.1h-5.6zm5.1-29c0 4.2.9 7.4 2.6 9.4s3.8 3 6.3 3 4.6-1.1 6.4-3.2 2.7-5.4 2.7-9.8c0-4.2-.9-7.4-2.6-9.5s-3.8-3.1-6.2-3.1-4.5 1.1-6.3 3.3c-2 2.4-2.9 5.7-2.9 9.9z"/><path d="m141.8 186.6v-45.7h5.1v4.3c1.2-1.7 2.6-2.9 4.1-3.8 1.5-.8 3.3-1.3 5.5-1.3 2.8 0 5.3.7 7.5 2.2s3.8 3.5 4.9 6.1 1.6 5.5 1.6 8.7c0 3.4-.6 6.4-1.8 9.1s-3 4.8-5.3 6.2-4.7 2.2-7.3 2.2c-1.9 0-3.5-.4-5-1.2s-2.7-1.8-3.7-3v16.1h-5.6zm5.1-29c0 4.2.9 7.4 2.6 9.4s3.8 3 6.3 3 4.6-1.1 6.4-3.2 2.7-5.4 2.7-9.8c0-4.2-.9-7.4-2.6-9.5s-3.8-3.1-6.2-3.1-4.5 1.1-6.3 3.3c-2 2.4-2.9 5.7-2.9 9.9z"/><path d="m177.3 134.8v-6.4h5.6v6.4zm0 39.1v-33h5.6v33z"/><path d="m191.4 173.9v-33h5v4.7c2.4-3.6 5.9-5.4 10.5-5.4 2 0 3.8.4 5.5 1.1s2.9 1.7 3.7 2.8c.8 1.2 1.4 2.5 1.7 4.1.2 1 .3 2.9.3 5.4v20.3h-5.6v-20.1c0-2.3-.2-4-.7-5.1-.4-1.1-1.2-2-2.3-2.7s-2.4-1-3.9-1c-2.4 0-4.4.8-6.2 2.3-1.7 1.5-2.6 4.4-2.6 8.6v18z"/><path d="m225.8 176.7 5.4.8c.2 1.7.9 2.9 1.9 3.7 1.4 1 3.3 1.6 5.7 1.6 2.6 0 4.6-.5 6-1.6 1.4-1 2.4-2.5 2.9-4.4.3-1.1.4-3.5.4-7.2-2.4 2.9-5.5 4.3-9.1 4.3-4.5 0-8.1-1.6-10.5-4.9-2.5-3.3-3.7-7.2-3.7-11.8 0-3.2.6-6.1 1.7-8.7 1.1-2.7 2.8-4.7 5-6.2s4.7-2.2 7.6-2.2c3.9 0 7.1 1.6 9.6 4.7v-4h5.2v28.5c0 5.1-.5 8.8-1.6 10.9-1 2.1-2.7 3.8-5 5.1-2.3 1.2-5.1 1.9-8.4 1.9-3.9 0-7.1-.9-9.5-2.7s-3.7-4.3-3.6-7.8zm4.6-19.9c0 4.3.9 7.5 2.6 9.5s3.9 3 6.5 3 4.7-1 6.5-3c1.7-2 2.6-5.1 2.6-9.3 0-4-.9-7.1-2.7-9.1-1.8-2.1-4-3.1-6.5-3.1s-4.6 1-6.3 3c-1.8 2.1-2.7 5.1-2.7 9z"/><path d="m301.5 161.8 5.5.7c-.6 3.8-2.1 6.8-4.6 8.9s-5.5 3.2-9.1 3.2c-4.5 0-8.2-1.5-10.9-4.4-2.7-3-4.1-7.2-4.1-12.7 0-3.6.6-6.7 1.8-9.4s3-4.7 5.4-6 5-2 7.9-2c3.6 0 6.5.9 8.8 2.7s3.7 4.4 4.4 7.7l-5.4.8c-.5-2.2-1.4-3.9-2.8-5-1.3-1.1-2.9-1.7-4.8-1.7-2.8 0-5.1 1-6.9 3s-2.6 5.2-2.6 9.6.8 7.7 2.5 9.7 3.9 3 6.7 3c2.2 0 4-.7 5.5-2 1.3-1.2 2.3-3.3 2.7-6.1z"/><path d="m333.3 169.9c-2.1 1.8-4.1 3-6 3.7s-4 1.1-6.2 1.1c-3.6 0-6.4-.9-8.4-2.7-1.9-1.8-2.9-4-2.9-6.8 0-1.6.4-3.1 1.1-4.4s1.7-2.4 2.9-3.2 2.5-1.4 4-1.8c1.1-.3 2.8-.6 5-.8 4.5-.5 7.8-1.2 10-1.9v-1.5c0-2.3-.5-3.9-1.6-4.8-1.4-1.3-3.6-1.9-6.4-1.9-2.6 0-4.6.5-5.8 1.4-1.3.9-2.2 2.6-2.8 4.9l-5.5-.7c.5-2.3 1.3-4.2 2.5-5.7 1.1-1.4 2.8-2.5 4.9-3.3 2.2-.8 4.7-1.2 7.5-1.2s5.1.3 6.9 1 3.1 1.5 3.9 2.5 1.4 2.3 1.7 3.8c.2 1 .3 2.7.3 5.2v7.5c0 5.2.1 8.5.4 9.9.2 1.4.7 2.7 1.4 4h-5.8c-.5-1.4-.9-2.8-1.1-4.3zm-.5-12.5c-2 .8-5.1 1.5-9.1 2.1-2.3.3-3.9.7-4.9 1.1s-1.7 1-2.2 1.8-.8 1.7-.8 2.7c0 1.5.6 2.7 1.7 3.7s2.8 1.5 5 1.5 4.1-.5 5.8-1.4 2.9-2.2 3.7-3.9c.6-1.3.9-3.1.9-5.6v-2z"/><path d="m347.1 173.9v-33h5v5c1.3-2.3 2.5-3.9 3.6-4.6s2.3-1.1 3.6-1.1c1.9 0 3.8.6 5.8 1.8l-1.9 5.2c-1.4-.8-2.7-1.2-4.1-1.2-1.2 0-2.3.4-3.3 1.1s-1.7 1.8-2.1 3.1c-.6 2-.9 4.2-.9 6.5v17.3h-5.7z"/><path d="m380.6 168.9.8 4.9c-1.6.3-3 .5-4.2.5-2 0-3.6-.3-4.7-1-1.1-.6-1.9-1.5-2.4-2.5s-.7-3.2-.7-6.6v-19h-4.1v-4.4h4.1v-8.2l5.6-3.4v11.5h5.6v4.4h-5.6v19.3c0 1.6.1 2.6.3 3.1s.5.8 1 1.1 1.1.4 1.9.4c.6.1 1.4.1 2.4-.1z"/></g><path d="m190.2 77.1c-.7-2.3-3.5-2.3-3.5-2.3l-22-.9-7.1-19.7s-.8-2.7-3.1-2.7c-2.3.1-3.1 2.7-3.1 2.7l-7.1 19.7-22 .9s-2.8 0-3.5 2.3 1.6 3.8 1.6 3.8l17.2 12.8-6.4 21.9s-.8 2.3.9 3.6c1.7 1.2 3.7-.3 3.7-.3l18.8-12.9 18.8 12.9s2 1.5 3.7.3.9-3.6.9-3.6l-6.4-21.9 17.2-12.8c-.2 0 2.1-1.5 1.4-3.8z" fill="#f2b387"/><g fill="#81a5cb"><path d="m226.3 91.9h52v20.2h-52z"/><path d="m226.3 63h52v20.2h-52z"/></g></g><g fill="#fff" transform="translate(1313 642)"><path d="m769.1 47.5h-762.3c-3.7 0-6.6-3-6.6-6.6v-33.9c0-3.7 3-6.6 6.6-6.6h762.3c3.7 0 6.6 3 6.6 6.6v33.9c.1 3.7-2.9 6.6-6.6 6.6z"/><path d="m769.1 123.5h-762.3c-3.7 0-6.6-3-6.6-6.6v-33.9c0-3.7 3-6.6 6.6-6.6h762.3c3.7 0 6.6 3 6.6 6.6v33.9c.1 3.6-2.9 6.6-6.6 6.6z"/></g><g transform="translate(652 362)"><path d="m.8 6.4s3.8 1.4 6.8-2.5" stroke="#838484" stroke-width="3"/><circle cx="8.6" cy="2.9" fill="#838484" r="2.9"/></g><g transform="translate(596 349)"><path d="m.8 4.6s4 .4 5.9-4.1" transform="translate(56 12)"/><path d="m45.6 35.5c-7.5 1-14.4-3.9-15.3-11s4.4-13.6 11.9-14.6"/><path d="m41.3 25.1s-1.9 5.8-12.4 27.7-19.9 27.1-19.9 27.1"/><path d="m44.5 26.3s-2.3 5.6-8.5 29.1-2.5 33.6-2.5 33.6"/><path d="m30.2 22.6c4.3-.2 8.7.4 13 2 4.4 1.6 8.3 4.1 11.4 7.2"/><g transform="translate(34)"><path d="m5.3 12.1s-3.4-2.1-2.2-6.9" stroke="#838484" stroke-width="3"/><circle cx="3.3" cy="3.8" fill="#838484" r="2.9"/></g><path d="m54 30.9c8.6 8.6 11.7 23.2 7 36-5 13.6-17.4 22.1-30.3 22.2-3.5 0-7-.6-10.5-1.8-16.2-6-24.1-24.8-17.8-42 4.8-12.9 16.5-22 28.7-22.8"/><ellipse cx="44.21151" cy="22.62632" fill="#838484" rx="13.699506" ry="12.899535" transform="matrix(.99123576 -.13210477 .13210477 .99123576 -2.601564 6.038854)"/><path d="m47 26.9c-.3.8 13.8 40.6 13.5 41.4-5.6 12.4-17.2 20.2-29.2 20.4-3.5.1-6.9-.5-10.3-1.7-15.2-5.6-22.8-23-18-39.8.3-.9 36.9-22.2 37.2-23" fill="#b1b1b1"/><path d="m9.7 79.9c-8.4-8.6-11.4-22.4-6.6-35.6 6.2-16.7 22.8-24.6 37.9-20.4 1.1.3 1.6.1 1 1.1 0 0-1.9 5.8-12.4 27.7-10.4 22-19.9 27.2-19.9 27.2z" fill="#f2b387"/><path d="m34.3 89c12-1 23.3-9.7 28.1-22.8 6.2-16.7-.4-32.7-14.7-39.4-1.1-.5-2.2-1.7-2.4-.5 0 0-2.3 5.6-8.5 29.1-6.3 23.5-2.5 33.6-2.5 33.6z" fill="#f2b387"/><g fill="#838484"><circle cx="14" cy="57.5" r="4.8"/><circle cx="48.5" cy="59.4" r="4.8"/><circle cx="25.2" cy="38.3" r="4.8"/></g></g><g fill="#d8d4d0"><path d="m548.9 400.8-33.8-33.9.1 67.8z"/><path d="m1050.6 684.8-33.8-33.9v67.8z"/><path d="m85.8 94.7-33.8-33.8.1 67.8z"/></g><g transform="translate(2059 750)"><path d="m31.7 91.8 9.4-5 8.1-4.3-12.9-24.2h21.8l-57.3-57.4v80.6l16.7-16.2z" fill="#fff"/><g fill="#595b5c"><path d="m42 79.7-8.8 4.7-19-35.5 8.9-4.7z"/><path d="m5.8 13v56.3l16.4-15.8h24z"/></g></g><path d="m1208.3 7.5c5.6 0 10.1 4.5 10.1 10.1v261.9h457.9c5.6 0 10.1 4.5 10.1 10.1v273.9h473.9c5.6 0 10.1 4.5 10.1 10.1v282.7c0 5.6-4.5 10.1-10.1 10.1h-1191.2c-5.6 0-10.1-4.5-10.1-10.1v-273.9h-473.9c-5.6 0-10.1-4.5-10.1-10.1v-262h-457.9c-5.6 0-10.1-4.5-10.1-10.1v-282.6c0-5.6 4.5-10.1 10.1-10.1zm0-7h-1191.2c-9.4 0-17.1 7.7-17.1 17.1v282.7c0 9.4 7.7 17.1 17.1 17.1h450.9v254.9c0 9.4 7.7 17.1 17.1 17.1h466.9v266.9c0 9.4 7.7 17.1 17.1 17.1h1191.2c9.4 0 17.1-7.7 17.1-17.1v-282.7c0-9.4-7.7-17.1-17.1-17.1h-466.9v-267c0-9.4-7.7-17.1-17.1-17.1h-450.9v-254.8c0-9.5-7.6-17.1-17.1-17.1z" fill="#595b5c"/></g></g></svg>