<svg height="300" viewBox="0 0 301 300" width="301" xmlns="http://www.w3.org/2000/svg"><g fill="none" fill-rule="evenodd" transform="translate(32 69)"><path d="m3.32561011 15.5104925c-.95017432-7.16091182 2.37543579-10.74136774 9.97683029-10.74136774 11.4020918 0 46.9972103-1.73053071 56.5353719 0 9.5381616 1.7305307 10.9270047 6.92221474 10.9270047 13.60573254 0 4.4556785 2.8505229 6.0469922 8.5515688 4.7739412h104.5191752c10.768642 1.9095765 16.469688 5.4104667 17.103137 10.5026707.63345 5.092204-3.642334 44.8750476-12.827353 119.3485308l-198.111345-2.864365z" fill="#f5b04f"/><path d="m42 37.4150943v35.5849057l139.14094-3.8679245 2.85906-37.1320755z" fill="#fff" transform="matrix(.99939083 .0348995 -.0348995 .99939083 1.90106 -3.911662)"/><path d="m50 37.4150943v35.5849057l139.14094-3.8679245 2.85906-37.1320755z" stroke="#000" stroke-width="4.5" transform="matrix(.99939083 .0348995 -.0348995 .99939083 1.905934 -4.190858)"/><path d="m38 123h34" stroke="#000" stroke-width="4.5"/><path d="m97.5580371 21.3987985c-6.8143282 1.4416925-11.0432201-.9912819-11.0432201-7.0239412 0-7.22301518-1.8750809-10.08491124-9.07867-11.39187505-4.113151-.7462585-13.6594158-.88446489-28.4040361-.58832884-3.0037367.06032809-6.084962.13451903-10.0652307.23913223-15.2502626.40082187-14.6035647.38533912-17.6644398.38533912-6.2710451 0-8.5134738 2.41426889-7.7463797 8.19541144l-3.2506107 132.7041968 193.819778 2.802316c8.935788-72.5457855 13.171126-112.0453247 12.58068-116.7918297-.470436-3.781762-5.299887-6.7702418-15.069838-8.5304208zm-88.48598337-9.7721251c-1.04786252-8.42748862 3.36150847-13.10754864 12.23038667-13.10754864 2.9979526 0 2.393862.01446268 17.5462073-.38378564 3.9887618-.10483642 7.0784322-.17923071 10.0931019-.23977838 15.1300938-.30387804 24.7547485-.16453674 29.297728.65970652 9.5885161 1.73966664 12.7753394 6.60364723 12.7753394 15.81959004 0 2.8056419 1.3691096 3.5699518 5.8112175 2.5780233l105.2074755-.0540821c11.832576 2.0982411 18.344609 6.0971416 19.137979 12.4749206.67104 5.3943887-3.561716 44.776894-12.827063 119.9016929l-.247102 2.003537-202.40277396-2.926412z" fill="#000" fill-rule="nonzero"/><path d="m8.04148784 142.381526c-.21431571 9.112002 0 17.618474 10.92572666 17.618474h191.9127635l19.001264-94.5381526c.633376-7.1619813-1.266751-11.0294511-5.700379-11.6024096s-68.40455-.8594378-191.9127639-.8594378c-5.0670036 0-8.7089125 2.0053548-10.9257266 6.0160643-3.3252212 6.0160642-12.32762139 41.9854957-13.30088466 83.3654617z" fill="#f5b04f"/><path d="m5.79210993 142.32862c.4436125-18.86095 2.57320304-38.006691 5.80613227-55.3046478 2.5930013-13.8739893 5.7411909-25.4168842 7.7749136-29.0963406 2.6258881-4.7508154 7.0332098-7.1776316 12.8949433-7.1776316 124.1574599 0 187.6058089.284139 192.2011339.8779936 5.896219.7619695 8.379773 5.8169329 7.653262 14.0320607l-19.399748 96.5899457h-193.7555325c-5.9668904 0-9.82251522-2.333116-11.71006881-6.759692-1.35623894-3.180568-1.61963566-6.588606-1.46503576-13.161688zm218.10038307-86.2377381c-4.271931-.5520624-68.765425-.8408819-191.6243939-.8408819-4.2722738 0-7.1487699 1.5838933-8.95651 4.8544969-1.7241103 3.1192989-4.7842406 14.3393227-7.2899394 27.7461951-3.1901394 17.069008-5.2931145 35.975467-5.7307839 54.58374-.2772013 11.785688 1.227989 15.315568 8.6763487 15.315568h191.9127635l-2.205885 1.806638 18.976453-94.4147098c.512055-6.0227512-.806822-8.6696583-3.758053-9.0510463z" fill="#000" fill-rule="nonzero"/><circle cx="206.5" cy="134.5" fill="#d8d8d8" r="43.5"/><g fill="#000" fill-rule="nonzero"><path d="m201.5 177.25c-25.267027 0-45.75-20.482973-45.75-45.75s20.482973-45.75 45.75-45.75 45.75 20.482973 45.75 45.75-20.482973 45.75-45.75 45.75zm0-4.5c22.781746 0 41.25-18.468254 41.25-41.25s-18.468254-41.25-41.25-41.25-41.25 18.468254-41.25 41.25 18.468254 41.25 41.25 41.25z"/><path d="m37 126.25h35v-4.5h-35z"/><path d="m200.75 113v40.523256h4.5v-40.523256z"/><path d="m37 117.75h34.527027v-4.5h-34.527027z"/><path d="m38 136.25h31v-4.5h-31z"/><path d="m183 135.25h39v-4.5h-39z"/></g></g></svg>