<svg height="300" viewBox="0 0 300 300" width="300" xmlns="http://www.w3.org/2000/svg"><g fill="none" fill-rule="evenodd" transform="translate(37 39)"><path d="m2.32483095 118.880988c-3.0997746 2.476687-3.0997746 7.120475 0 13.931365s27.12302775 32.351728 72.06975945 76.622512c7.7494365 9.906749 15.498873 11.454679 23.2483095 4.643789 7.7494361-6.81089 45.4116981-38.543446 112.9867841-95.197666l9.76429-63.155525-46.496619-55.725463-53.471112 10.2163349z" fill="#e87450"/><path d="m6.53690543 121.012946 118.48993457-109.0221304 55.268091-10.55967053 47.890592 57.39611813-10.028453 64.8641338-.602527.505153c-67.548975 56.632329-105.219515 88.371859-112.949785 95.165904-8.7067732 7.652282-17.7824117 5.870756-26.1949969-4.818479-45.2639488-44.585849-69.14540811-69.978529-72.41013922-77.151865-3.43219694-7.541295-3.44936827-13.137991.53728355-16.379164zm207.60453157 1.264177.722577-1.281635c-.201108.168606-.401951.336992-.602528.505157zm-87.156602-106.4052071-117.66272232 108.2610161c-2.26297869 1.814593-2.26297869 5.487161.48711589 11.529726 2.93252953 6.443416 27.06637373 32.10183 71.63415963 75.999368 7.2422277 9.230077 13.6338663 10.50679 20.3968428 4.562889 7.745491-6.807423 45.198815-38.364774 112.421255-94.72427l9.500128-61.4469205-45.102646-54.05480784z" fill="#000" fill-rule="nonzero"/><ellipse cx="166.457896" cy="59.440494" fill="#fff" rx="23.24831" ry="23.218943"/><path d="m170.177625 86.606657c-13.995258 0-25.340657-11.3310675-25.340657-25.3086477s11.345399-25.3086478 25.340657-25.3086478c13.995259 0 25.340658 11.3310676 25.340658 25.3086478s-11.345399 25.3086477-25.340658 25.3086477zm0-4.1794097c11.684115 0 21.155962-9.4598821 21.155962-21.129238 0-11.669356-9.471847-21.1292381-21.155962-21.1292381-11.684114 0-21.155961 9.4598821-21.155961 21.1292381 0 11.6693559 9.471847 21.129238 21.155961 21.129238z" fill="#000" fill-rule="nonzero"/><path d="m169.712659 75.4615644c-7.612919 0-13.716502-6.5835429-13.716502-14.627934s6.103583-14.627934 13.716502-14.627934c7.61292 0 13.716503 6.5835429 13.716503 14.627934s-6.103583 14.627934-13.716503 14.627934zm0-4.1794097c5.226767 0 9.531807-4.6435699 9.531807-10.4485243s-4.30504-10.4485243-9.531807-10.4485243-9.531807 4.6435699-9.531807 10.4485243 4.30504 10.4485243 9.531807 10.4485243z" fill="#000" fill-rule="nonzero"/><path d="m25.5731404 124.453534 31.617701-26.9339738 18.1336814 21.3614278-31.1527348 24.612079z" fill="#fff"/><g fill="#000" fill-rule="nonzero"><path d="m44.352618 146.258272 27.9760924-22.102387-15.3767089-18.113722-28.3189598 24.123896zm13.0770632-46.116222 20.890654 24.609133-34.3293771 27.121772-21.4777189-21.986854z"/><path d="m73.9046846 186.402285 72.9996914-63.155525-2.739918-3.158998-72.9996913 63.155524z"/><path d="m92.8699404 46.0183433 93.9231706 98.9126967 3.036392-2.875946-93.9231703-98.9126966z"/><path d="m61.7743346 171.576911 75.7894894-62.226767-2.65746-3.228498-75.7894893 62.226767z"/><path d="m91.167877 200.744582 72.069759-67.334935-2.858804-3.052103-72.0697597 67.334934z"/></g><path d="m170.035757 54.2246585c8.601522-24.7520719 21.503806-39.4486146 38.706851-44.089628 17.203044-4.6410135 17.66384 4.9504143 1.382387 28.7742835l-6.451142-6.9615202c8.294326-8.0444234 11.059101-12.3760359 8.294326-12.9948377-4.738089.5744167-13.744307 5.6170226-20.735813 15.3153444-2.870735 3.9821619-6.403504 12.6453871-10.598305 25.9896755-3.776898 2.5447402-6.541673 3.3182424-8.294325 2.3205067s-2.520645-3.7823438-2.303979-8.3538242z" fill="#d8d8d8"/><path d="m171.419699 60.5984541c.801658.4641123 2.667252-.0222711 5.507098-1.8706909 4.151669-13.339416 7.662383-22.037889 10.644811-26.2452482 6.491231-9.1572837 15.762058-15.6107897 22.107826-16.3931771l.350843-.0432564.34496.078519c1.591785.3623181 2.653573 1.5707255 2.653573 3.2447762 0 1.1292048-.477173 2.3239477-1.362538 3.7346189-1.310042 2.0873184-3.674819 4.8497167-7.119909 8.3389348l3.285928 3.6061136c6.882537-10.5387793 10.211913-17.9673668 10.024607-21.9323541-.143131-3.0298456-3.118957-3.87800567-10.612315-1.8221257-16.345507 4.4845586-28.716344 18.7570931-37.087475 43.0800341-.13903 3.7164765.428459 5.7409437 1.262591 6.2238558zm19.498989-25.6267227c-2.690534 3.7955797-6.154271 12.4337765-10.272373 25.7565601l-.218919.7082405-.60283.4130634c-4.357095 2.9855133-7.800673 3.9652865-10.440158 2.4371828-2.639486-1.5281037-3.596035-5.055287-3.346085-10.4185912l.014348-.3078742.099408-.2909206c8.785442-25.7106823 22.117761-41.1549776 40.022297-46.06727181 9.664583-2.65157793 15.49752-.98909379 15.813977 5.70980691.259593 5.4951623-3.820715 14.2596689-12.196518 26.7237251l-1.459332 2.1716353-9.5797-10.5131584 1.466661-1.4466297c4.028927-3.9739012 6.69722-7.0106511 7.967451-9.0345382-5.03846 1.5149399-12.10041 6.8684477-17.268227 14.15877z" fill="#000" fill-rule="nonzero"/></g></svg>