<svg height="300" viewBox="0 0 301 300" width="301" xmlns="http://www.w3.org/2000/svg"><g fill="none" fill-rule="evenodd" transform="translate(39 38)"><ellipse cx="81.5" cy="82" fill="#507bbd" rx="81.5" ry="79"/><path d="m147.252913 160.998426 4.077819 17.001387c26.845644 28.996314 44.176376 43.327816 51.992197 42.994505 11.72373-.499966 13.76264-5.499623 12.233458-13.499076-1.019455-5.332968-15.80155-21.165217-44.346286-47.496748l-13.76264-9.999315-14.272368-11.999179-9.175093 9.49935z" fill="#507bbd"/><path d="m134.859479 145.512164 12.156146-12.585756 15.818796 13.299304 13.804603 10.029803c29.282685 27.012264 43.965201 42.737861 45.127346 48.817265 1.965094 10.279793-2.178612 15.650542-14.347576 16.169495-8.828292.376488-26.280366-14.055357-53.739103-43.71388l-.399686-.431706-4.069575-16.967016zm18.435917 12.355014 4.085954 17.035302c26.007768 28.047247 43.076968 42.132539 49.845713 41.843881 9.398142-.400789 11.573706-3.220586 10.11934-10.828656-.875753-4.581236-15.724087-20.488637-43.565269-46.176265l-13.656205-9.921984-12.790368-10.745864-6.19404 6.412944z" fill="#000" fill-rule="nonzero"/><ellipse cx="83.5" cy="79.5" fill="#fff" rx="61.5" ry="59.5"/><path d="m88.5 144.25c-35.1918116 0-63.75-27.629467-63.75-61.75 0-34.1205332 28.5581884-61.75 63.75-61.75 35.191812 0 63.75 27.6294668 63.75 61.75 0 34.120533-28.558188 61.75-63.75 61.75zm0-4.5c32.739213 0 59.25-25.648648 59.25-57.25s-26.510787-57.25-59.25-57.25c-32.7392126 0-59.25 25.648648-59.25 57.25s26.5107874 57.25 59.25 57.25z" fill="#000" fill-rule="nonzero"/><path d="m87.5 163.25c-46.2384314 0-83.75-36.360907-83.75-81.25s37.5115686-81.25 83.75-81.25c46.238431 0 83.75 36.360907 83.75 81.25s-37.511569 81.25-83.75 81.25zm0-4.5c43.783983 0 79.25-34.378103 79.25-76.75 0-42.3718975-35.466017-76.75-79.25-76.75-43.7839829 0-79.25 34.3781025-79.25 76.75 0 42.371897 35.4660171 76.75 79.25 76.75z" fill="#000" fill-rule="nonzero"/><path d="m137 171.215909 11.099099 12.784091 27.747748-29.147727c1.345345-2.045455 1.513513-3.920455.504504-5.625-1.009009-1.704546-4.372372-5.113637-10.09009-10.227273z" fill="#d8d8d8"/><g fill="#000" fill-rule="nonzero"><path d="m135.991056 170.182191 32.105864-35.347744 1.664269 1.488437c5.911659 5.287088 9.351752 8.773952 10.526362 10.758252 1.479071 2.498633 1.229059 5.286155-.560869 8.00755l-.110962.168706-29.593262 31.086355zm14.184684 9.474062 25.893983-27.200434c.803884-1.285254.863136-2.207833.345429-3.082409-.755288-1.275927-3.469927-4.080798-7.995917-8.200846l-26.410291 29.077063z"/><path d="m101.473467 45.4251294c3.777535 4.6921512 4.253885 12.9155826 1.71136 24.7832719 4.420446-3.454944 6.565173-7.9133241 6.565173-13.4966413 0-7.7073294-.733752-10.6056672-3.19743-13.4929554-1.012094-1.1861161-1.810542-1.9409372-5.151034-4.9531271-3.1083234-2.8028387-7.5170717-4.4515045-13.267705-4.8943592 5.9155353 4.3419468 10.3593356 8.3519208 13.339636 12.0538111zm-20.6269337-16.5340693c10.3802096-.7096602 18.2720882 1.2567541 23.5685197 6.0326542 3.52187 3.1757421 4.364706 3.9725262 5.56069 5.374151 3.292429 3.8585375 4.274257 7.7367782 4.274257 16.4138947 0 8.9917737-4.602307 15.8463336-13.523981 20.3012365l-4.4488548 2.2214683 1.2680851-4.8082419c3.5602437-13.4994982 3.5602437-22.2823024.4230028-26.1791317-3.5615256-4.4238416-9.6397819-9.5213847-18.216339-15.2391655l-5.4990451-3.6660788z" transform="matrix(.61566148 -.78801075 .78801075 .61566148 -6.322091 95.022482)"/></g></g></svg>