<svg height="300" viewBox="0 0 301 300" width="301" xmlns="http://www.w3.org/2000/svg"><g fill="none" fill-rule="evenodd" transform="translate(47 40)"><path d="m143 36.8292683 33.776224-34.14634147c3.86014-3.57723577 7.398601-3.57723577 10.615384 0 3.216784 3.57723577 1.608392 9.75609757-4.825174 18.53658537l-19.783217 28.7804878z" fill="#d8d8d8"/><path d="m168.184845 46.8986086 18.566639-27.0089309c5.867283-8.0076275 7.218513-13.19856836 4.967078-15.70228551-2.344759-2.60749788-4.441877-2.60749788-7.342702.07783192l-31.855583 32.20465469zm-20.784481-11.6516376 33.846494-34.21435928c4.749185-4.40112392 9.728989-4.40112392 13.817797.14584975 4.182131 4.6507544 2.316578 11.81753713-4.644026 21.31559323l-21.038986 30.6073726-23.90192-15.9127695z" fill="#000" fill-rule="nonzero"/><path d="m116.21113 221.247721c.57619 8.060857-5.18608 16.058246-14.064659 19.189605-4.9514886 1.746326-11.7314104.633423-16.926663-2.849489-6.0608854-4.063236-9.2828357-10.70035-8.2923514-18.86596.9191379-7.577427 3.6860073-12.126613 8.2291062-15.182266.6996975-.470611 1.4133951-.892109 2.2839567-1.364111.28881-.156587 1.610834-.853956 1.9378742-1.034097 1.3937071-.767684 1.9728243-1.266171 2.1962307-1.824284 1.1607698-2.899835 1.7725188-7.637475 1.7725188-14.138878l.0108077-.220267 1.2656703-12.866523 18.3588958 11.964982-2.494403 20.937895c3.465394 6.120114 5.385092 11.525871 5.723016 16.253393zm-20.458776-20.258306c-.7130884 1.781437-1.9711163 2.86431-4.2028403 4.093591-.3709537.20433-1.7111065.911261-1.9641466 1.048455-.7550679.409384-1.3525254.762232-1.9173565 1.142133-3.4540145 2.323143-5.5109151 5.705025-6.2732986 11.990159-.7816391 6.443877 1.6465788 11.445928 6.3309068 14.586315 4.0627442 2.723676 9.3740833 3.595515 12.9241212 2.343463 7.038991-2.482561 11.498382-8.671699 11.072842-14.624968-.294617-4.12167-2.115777-9.126253-5.503545-14.973637l-.376094-.649149 2.340463-19.645727-9.8070272-6.391501-.5292921 5.380666c-.0071076 6.968728-.6847715 12.177836-2.0947327 15.7002z" fill="#000" fill-rule="nonzero"/><path d="m.63462894 120.368358c-2.59140151-7.084403 2.7533641-14.329815 16.03429686-21.7362366 19.9213991-11.1096318 64.6230751-45.8876097 68.9960652-58.9293514 4.37299-13.0417417 33.040369-26.0834834 46.645227-20.2871537 13.604858 5.7963296 40.328686 13.9910636 46.645227 31.879813 6.316541 17.8887495-17.977848 57.9632967-20.407287 75.8353127-2.429439 17.872017-.971775 42.506418-5.344765 56.031187-2.915327 9.016512-6.316541 15.29587-10.203644 18.838071z" fill="#e87450"/><g fill="#000" fill-rule="nonzero"><path d="m8.51512998 122.85299 140.10960202 80.338337c3.098337-3.40728 5.935933-8.983886 8.437787-16.721611 2.100151-6.495341 2.79494-13.876231 3.566246-31.886688.028367-.662489.028367-.662489.056849-1.325517.473787-11.010557.844834-16.631381 1.633049-22.429836.859068-6.31968 2.072532-9.620725 10.771048-31.2300007 1.119861-2.7820119 2.013137-5.0369915 2.848819-7.2042061 6.915145-17.9333738 9.387869-29.2897985 6.895294-36.3488915-3.110671-8.8095702-11.734392-15.795425-25.490741-22.2487267-4.951888-2.3230021-20.964486-8.7575017-19.914769-8.3102713-12.197892-5.1968938-39.6063576 6.9324683-43.6300522 18.9324924-2.2049758 6.5759868-13.141702 17.8354767-29.3696364 31.210205-14.1767015 11.6841444-30.4735367 23.2860788-40.6638244 28.9689299-11.8945684 6.633283-16.69271112 12.729094-15.24967102 18.255784zm-3.99357107 2.288307c-3.08984862-8.447064 2.91929442-16.593112 17.05149169-24.47426 23.3100191-12.9993749 64.3066249-46.7879303 67.9586695-57.6795681 4.8621623-14.5006193 35.0575849-27.8633237 49.6604029-21.6418151-1.15299-.4912293 14.973264 5.9889413 20.06213 8.3762018 14.753043 6.9208656 24.20453 14.5772724 27.822814 24.8244263 2.994979 8.4819264.384228 20.4722641-6.939871 39.4662002-.844761 2.1907602-1.74561 4.464857-2.873 7.2655729-8.452451 20.997989-9.704777 24.404752-10.486542 30.155754-.763358 5.615593-1.128367 11.144947-1.596201 22.017159-.028446.66221-.028446.66221-.056809 1.324598-.792041 18.494642-1.501381 26.030102-3.780377 33.078576-3.024898 9.355393-6.599308 15.954506-10.82902 19.808918l-1.212097 1.104548-144.49966673-82.855583z"/><path d="m24.8509518 101.934474 133.0000002 79 2.298096-3.868948-132.9999998-78.9999996z"/></g></g></svg>