<svg height="300" viewBox="0 0 301 300" width="301" xmlns="http://www.w3.org/2000/svg"><g fill="none" fill-rule="evenodd" transform="translate(67 35)"><path d="m56.5 71.5c9.6666667 9.3333333 16.5 15.1666667 20.5 17.5s6 8.1666667 6 17.5c-.3333333-11 3.5-18.6666667 11.5-23s17.166667-11.6666667 27.5-22c-13.666667 4-24.5833333 5.8333333-32.75 5.5s-19.0833333 1.1666667-32.75 4.5z" fill="#f5b04f"/><path d="m20 23c-2.6666667 23.3333333 3.1666667 42 17.5 56 21.5 21 32 19.5 27.5 30.5s-28.5 19-38 45.5c-6.3333333 17.666667-8.6666667 34.5-7 50.5l114.5 2c1.666667-31-2.833333-51.166667-13.5-60.5-16-14-31.5-23.5-31-35.5s26.5-24.5 31-32.5 13.5-48 11.5-58c-1.333333-6.6666667-38.8333333-6-112.5 2z" fill="#d8d8d8"/><path d="m43 204.5c3.3333333-28.333333 7.5-45 12.5-50s8.6666667-7.5 11-7.5c13-.333333 22.3333333 3.333333 28 11 5.666667 7.666667 15.333333 11.5 29 11.5 2 22.333333 2 35.333333 0 39s-28.8333333 2.333333-80.5-4z" fill="#f5b04f"/><g stroke="#000" stroke-width="4.5"><path d="m56.5 71.5c9.6666667 9.3333333 16.5 15.1666667 20.5 17.5 6 3.5 5 14.5 6.5 13.5s1.5-10 13.5-16.5c8-4.3333333 13.833333-9.6666667 17.5-16-8.666667-1.6666667-17.0833333-2.6666667-25.25-3s-19.0833333 1.1666667-32.75 4.5z" fill="#fff"/><path d="m28 23c-2.6666667 23.3333333 3.1666667 42 17.5 56 21.5 21 32 19.5 27.5 30.5s-28.5 19-38 45.5c-6.3333333 17.666667-8.6666667 34.5-7 50.5l114.5 2c1.666667-31-2.833333-51.166667-13.5-60.5-16-14-31.5-23.5-31-35.5s26.5-24.5 31-32.5 13.5-48 11.5-58c-1.333333-6.6666667-38.833333-6-112.5 2z"/><path d="m43 204.5c2-26.666667 4.3333333-42.166667 7-46.5s6.8333333-8.666667 12.5-13c15.6666667 1 26.3333333 5.333333 32 13 5.666667 7.666667 15.333333 11.5 29 11.5 2 22.333333 2 35.333333 0 39s-28.8333333 2.333333-80.5-4z" fill="#fff"/></g><path d="m20 200.5c-6.3333333 0-10.5 2.833333-12.5 8.5-3 8.5 1.5 13.5 19 13 11.6666667-.333333 53.5-.5 125.5-.5 5.333333-.333333 7.833333-2.833333 7.5-7.5s-4.833333-8.5-13.5-11.5z" fill="#f5b04f"/><path d="m13.8375658 2.46571889c-6.33333329 0-10.49999996 2.83333334-12.49999996 8.50000001-3 8.5 1.5 13.5 18.99999996 13 11.6666667-.3333333 53.5-.5 125.5000002-.5 7.019608-3.6666667 10.362745-7.8333333 10.029412-12.5-.333334-4.66666667-5-8.3219063-14-10.9657189z" fill="#f5b04f" transform="matrix(-1 0 0 -1 156.366978 24)"/><g stroke="#000" stroke-width="4.5"><path d="m26 200.5c-6.3333333 0-10.5 2.833333-12.5 8.5-3 8.5 1.5 13.5 19 13 11.6666667-.333333 53.5-.5 125.5-.5 5.333333-.333333 7.833333-2.833333 7.5-7.5s-4.833333-8.5-13.5-11.5z"/><path d="m19.8375658 4.46571889c-6.3333333 0-10.49999996 2.83333334-12.49999996 8.50000001-3 8.5 1.5 13.5 18.99999996 13 11.6666667-.3333333 53.5-.5 125.5000002-.5 7.019608-3.6666667 10.362745-7.8333333 10.029412-12.5-.333334-4.66666667-5-8.3219063-14-10.9657189z" transform="matrix(-1 0 0 -1 168.366978 28)"/></g></g></svg>