<svg height="300" viewBox="0 0 301 300" width="301" xmlns="http://www.w3.org/2000/svg"><g fill="none" fill-rule="evenodd" transform="translate(34 34)"><path d="m113.5 224c-62.6843191 0-113.5-50.144108-113.5-112s50.8156809-112 113.5-112c19.200657 0 37.985514 6.72535878 53.839744 15.030303 35.90502 18.8081787 59.660256 54.0607089 59.660256 96.969697 0 61.855892-50.815681 112-113.5 112zm.970085-20.363636c50.361761 0 91.188035-40.375776 91.188035-90.181819 0-49.8060424-40.826274-90.1818177-91.188035-90.1818177-37.6527896 0-66.6014181 18.2187468-80.5170935 50.4242424-4.6969669 10.8703417-10.6709402 27.1888423-10.6709402 39.7575753 0 49.806043 40.8262735 90.181819 91.1880337 90.181819z" fill="#454e5a"/><path d="m119.5 223.75c61.44833 0 111.25-49.143499 111.25-109.75 0-40.8543536-22.145148-75.9567148-58.454306-94.976594-18.005715-9.43195967-35.836495-14.773406-52.795694-14.773406-61.4483296 0-111.25 49.1434985-111.25 109.75 0 60.606501 49.8016704 109.75 111.25 109.75zm0 4.5c-63.9203086 0-115.75-51.144718-115.75-114.25 0-63.1052825 51.8296914-114.25 115.75-114.25 17.776425 0 36.284652 5.54438482 54.883794 15.2872 37.764191 19.7820712 60.866206 56.4011662 60.866206 98.9628 0 63.105282-51.829691 114.25-115.75 114.25zm.970085-20.363636c-51.5988466 0-93.4380337-41.377512-93.4380337-92.431819 0-11.055672 4.2395117-25.338425 10.8555043-40.6500297 14.2989758-33.0925799 44.1028595-51.781788 82.5825294-51.781788 51.598848 0 93.438035 41.3775118 93.438035 92.4318177 0 51.054307-41.839187 92.431819-93.438035 92.431819zm0-4.5c49.124675 0 88.938035-39.374039 88.938035-87.931819 0-48.557779-39.81336-87.9318177-88.938035-87.9318177-36.720904 0-64.8802572 17.6579675-78.4516577 49.0666968-6.3882957 14.7846384-10.486376 28.5909139-10.486376 38.8651209 0 48.55778 39.81336 87.931819 88.9380337 87.931819z" fill="#000" fill-rule="nonzero"/><path d="m141.935132 150.361569c-12.629746 14.900233-25.097572 21.540554-37.403478 19.920963-18.4588598-2.429386-41.2895544-16.033946-46.1471491-41.299557-4.8575946-25.265612 2.4287973-55.8758723 32.0601245-65.1075381 19.7542176-6.1544439 35.4604406-2.4293857 47.1186676 11.1751744l.971519-11.1751744 20.887657-.9717543c-.971519 52.4747314-.647679 79.8458114.971519 82.1132374 2.428797 3.40114 12.143986 14.576315 23.802213 6.80228 7.772152-5.182689 13.763185-20.082922 17.9731-44.700697l1.457279-14.0904373c6.435269-9.2464992 10.807104-13.4574345 13.115505-12.6328058s4.737199 7.4649497 7.286392 19.9209631l.971519 33.039646c-7.707948 15.118675-13.698982 24.674259-17.9731 28.666752-10.627154 9.926921-22.566812 9.674151-32.060124 8.259911-15.220464-2.267427-26.231011-8.907748-33.031644-19.920963z" fill="#454e5a"/><path d="m163.128714 67.2527646c-.960036 52.8289294-.633303 77.7713864 1.437331 80.6564964 2.19592 3.059676 5.430326 6.210582 9.208653 8.227012 5.666634 3.024188 11.730786 3.041887 17.665467-.895763 4.079951-2.707039 8.312361-10.710398 12.408312-22.017788 3.271273-9.030761 6.014455-19.225759 6.556936-24.084886.67464-6.042901.176032-13.8172938-1.476407-23.355891l-4.433958.7681262c1.585957 9.1548312 2.058868 16.5285608 1.438149 22.0884788-1.316749 11.794424-11.170543 38.997065-16.980951 42.85226-4.477414 2.970755-8.781485 2.958193-13.058819.675452-3.083973-1.645865-5.844331-4.334961-7.671489-6.880824-.010707-.235963-.080957-.59017-.150103-1.043933-.150721-.9891-.286646-2.382951-.40423-4.167587-.239737-3.638617-.40053-8.84955-.481051-15.621192-.161595-13.589869.000159-33.4312734.485529-59.5166918l.044666-2.4004711-25.25208 1.1689331-.709665 8.1223553c-11.868289-11.2021026-27.304818-13.9030368-45.9765871-8.1148812-14.5873565 4.5220079-24.8230254 14.2555522-30.3767193 27.6984874-4.8681186 11.7834733-5.8728607 25.9633293-3.2263301 39.6598813 4.5392804 23.492071 25.2726973 39.912781 48.0641355 42.897401 12.525798 1.640298 25.023247-4.570826 37.456631-18.365082 7.244651 10.060104 18.274162 16.185811 32.940732 18.359812 16.319151 2.41896 33.654591-10.311444 52.225517-37.705389l-3.724766-2.525097c-17.699114 26.107936-33.719157 37.872369-47.840932 35.779122-14.596021-2.163543-25.017161-8.417014-31.449783-18.782236l-1.625509-2.619269-1.999039 2.346634c-12.182498 14.300807-23.968141 20.546454-35.398549 19.049601-21.0020005-2.750287-40.0911724-17.868768-44.2301627-39.289223-2.4873904-12.872956-1.5455685-26.164824 2.9671032-37.0879235 5.0546251-12.2349196 14.2754913-21.0034437 27.5500963-25.1185052 18.9359482-5.8700498 33.7033432-2.3851448 44.7475812 10.4385593l3.48192 4.0429328 1.26462-14.474018z" fill="#000" fill-rule="nonzero"/><ellipse cx="110.5" cy="118" fill="#fff" rx="30.5" ry="39"/><path d="m116.5 159.25c-18.2252695 0-32.75-18.572606-32.75-41.25 0-22.6773938 14.5247305-41.25 32.75-41.25 18.225269 0 32.75 18.5726062 32.75 41.25 0 22.677394-14.524731 41.25-32.75 41.25zm0-4.5c15.4641 0 28.25-16.349183 28.25-36.75 0-20.4008167-12.7859-36.75-28.25-36.75s-28.25 16.3491833-28.25 36.75c0 20.400817 12.7859 36.75 28.25 36.75z" fill="#000" fill-rule="nonzero"/><path d="m169.553825 58.173913c-2.071767 15.3043479-2.071767 23.826087 0 25.5652174 2.071767 1.7391305 10.876778 1.7391305 26.415031 0l2.589709 28.1739126 23.307379 2.086957c.345295-17.0434783 1.035884-26.3478261 2.071768-27.9130435 1.035883-1.5652174 9.495599-2.3478261 25.379146-2.3478261 2.762357-2.4347826 3.970887-6.0869565 3.625593-10.9565217-.345295-4.8695652-1.553825-9.7391304-3.625593-14.6086957h-27.450914c2.417062-17.3913043 2.417062-26.4347826 0-27.1304347-2.417061-.6956522-10.186188-1.0434783-23.307379-1.0434783v28.173913z" fill="#d8d8d8"/><path d="m174.027265 85.6334854c-2.904027-2.4051167-2.904027-10.3993032-.793956-25.7778488l.266754-1.9441459h27.010939v-26.1614907h2.25c12.636015 0 19.979632.3243727 22.550958 1.0545119 3.985347 1.1316571 4.176848 8.6313274 1.966323 25.1069788h24.735256l.586059 1.3590476c2.047721 4.7485849 3.246995 9.5161367 3.590449 14.2948755.3723 5.1800936-.998086 9.2659299-4.180087 12.0330317l-.634969.5521756h-.841477c-7.412191 0-13.078641.1797303-16.97897.5357175-1.889204.1724297-3.341426.3846764-4.332752.6265029-.342964.0836637-.61378.1669961-.804906.2424208-.563646 1.6726318-1.181822 10.457156-1.470001 24.4909307l-.049425 2.40693-26.202768-2.314789-2.399685-25.7569761c-14.089149 1.4670868-21.720529 1.3617307-24.267742-.7478725zm2.870318-3.4657286c.413696.3426232 2.641371.6940444 6.242566.6940444 4.046953 0 9.699379-.398412 16.936521-1.197586l2.27494-.2512142 2.475702 26.572889 17.673259 1.56128c.355054-15.1839897.983544-22.7898994 2.278145-24.7198398 1.641671-2.4473392 8.886668-3.1509173 24.84706-3.1760064 1.617179-1.7508997 2.325911-4.2840193 2.075849-7.7633214-.274167-3.8146975-1.163674-7.6383455-2.673798-11.4765117h-26.919634l.361164-2.5638535c1.124039-7.9793978 1.684164-14.0232941 1.684164-18.0960844 0-1.9303687-.127329-3.3765949-.358563-4.295834-.043337-.1722788-.087126-.3131068-.127168-.4211986-2.290815-.4665208-8.626283-.7449636-18.656788-.7806153v26.1575858h-27.578061c-1.528567 11.8760534-1.480626 18.9733946-.535358 19.7562661z" fill="#000" fill-rule="nonzero"/></g></svg>