<svg height="300" viewBox="0 0 301 300" width="301" xmlns="http://www.w3.org/2000/svg"><g fill="none" fill-rule="evenodd"><g transform="translate(45 37)"><path d="m6.80995475 190.194064c-8.10708899 12.445966-8.10708899 21.696347 0 27.751141 12.16063345 9.082192 24.80769235 4.03653 29.67194575 0 4.8642533-4.036529 97.2850675-117.05936 104.5814475-119.0776251 7.296381-2.0182648 25.780543 3.5319631 36.968326-5.0456621 11.187783-8.5776256 31.617647-23.2100457 30.644797-35.3196347-.648568-8.0730594-1.945702-12.109589-3.891403-12.109589l-29.671946 8.5776255c-8.107089-2.0182648-11.349924-7.2321156-9.728507-15.6415525 1.621418-8.4094368 16.052037-14.2960426 43.291856-17.6598173-6.809955-14.12785391-17.024887-20.18264843-30.644797-18.16438359-20.429864 3.02739726-35.022624 5.55022831-43.77828 35.82420089-8.755656 30.2739726-.972851 22.2009133-8.755656 35.8242009-5.188537 9.0821918-44.7511317 47.429224-118.68778325 115.041096z" fill="#454e5a"/><g fill="#000" fill-rule="nonzero"><path d="m180.921659 52.6364496 29.38182-8.4937555c4.188501 0 5.688814 4.6687982 6.45287 14.1794108.319005 3.970826-1.220021 8.1545696-4.31373 12.5889765-3.374445 4.8368038-8.45841 9.8321644-15.344403 15.4737434-1.912857 1.5671718-3.907753 3.1395489-6.271522 4.9568703-1.200159.9227098-5.015905 3.8264899-5.588912 4.2658119-4.396056 3.3704376-9.899728 4.956243-16.763001 5.348839-3.121488.178557-5.831573.12633-10.747727-.111553-6.382871-.308854-8.445146-.30146-10.226751.191353-1.007127.278583-7.614384 6.984286-17.246166 17.760285-8.599898 9.621531-19.701238 22.4824-33.8008709 39.083964-.5671202.667754-1.1395219 1.342065-1.7175831 2.023374-8.2001331 9.664753-34.1231427 40.405532-33.591222 39.776314-11.1216697 13.156009-16.1333311 18.954913-17.388619 19.996595-3.2201028 2.672156-8.1134433 4.807377-13.2702887 5.422224-6.5789564.784404-13.1709472-.859474-19.1848596-5.350976-9.22211202-6.887552-9.22211202-17.451553-.5389408-30.781918 73.8992331-67.674489 113.6159661-106.1709242 118.6194221-114.9291439 2.522069-4.4147144 3.340166-6.390518 3.575481-8.2662872.065931-.5255535.095209-1.0168887.131756-2.0550337.233015-6.6189601 1.153933-12.2644647 4.840666-25.0118888 4.283501-14.8108372 10.152005-23.9418845 18.437331-29.38495463 6.554109-4.30574158 12.661305-5.88948152 27.172555-8.03982949 14.639968-2.16942219 25.78143 4.43456284 33.001435 19.41310292l1.362 2.8255898-3.113072.3844252c-26.247133 3.2411905-40.009071 8.8550253-41.358299 15.8527542-1.358066 7.0435712.989242 11.0759087 7.490631 12.8817072zm-166.9282351 163.5060354c5.0663236 3.783793 10.5004474 5.138928 15.9593712 4.488065 4.2868448-.511117 8.3696251-2.292649 10.929372-4.416817.9201564-.763579 6.328603-7.021595 16.8257243-19.438816-.5357976.633804 25.3910735-30.111554 33.5964543-39.782492.5785293-.68186 1.1514035-1.356729 1.7190013-2.025045 32.670313-38.467547 49.413321-57.1995566 53.277255-58.2683662 2.463001-.6812952 4.61629-.6890154 11.643943-.3489616 4.764729.2305555 7.356248.2804972 10.273245.1136378 6.042269-.3456325 10.713839-1.6916793 14.281985-4.4273614.582516-.4466131 4.395027-3.3479308 5.584133-4.2621439 2.329875-1.7912617 4.290168-3.3363651 6.162442-4.870288 6.592757-5.4013352 11.419424-10.1438822 14.505673-14.567597 2.550316-3.6555283 3.740696-6.8914996 3.518778-9.6538384-.311604-3.878695-.773424-6.7529539-1.358616-8.5740041-.184252-.5733704-.371-1.0094683-.540081-1.3013446l-29.378288 8.4927342c-9.866101-2.4561722-13.827059-8.8246241-11.981405-18.397055 1.820636-9.4426766 15.848782-15.5003674 42.020017-19.0518638-6.325294-11.24980336-15.157713-15.85089082-26.833835-14.12066586-13.863562 2.05437044-19.543368 3.52727798-25.361382 7.34943996-7.289639 4.7889504-12.577454 13.0164803-16.585294 26.8741777-3.585305 12.3967218-4.446475 17.6759526-4.666291 23.9199839-.041104 1.1676019-.076275 1.7578299-.163967 2.4568492-.326153 2.599855-1.341072 5.0510086-4.133151 9.9383591-5.36849 9.3971872-44.7068867 47.530912-118.9103213 115.390866-7.37649858 11.432694-7.32878376 19.296392-.3847628 24.482547z"/><path d="m29.1855204 212.122146c-5.5924094 0-10.0328055-4.893872-10.0328055-10.827625 0-5.933754 4.4403961-10.827626 10.0328055-10.827626 5.5924093 0 10.0328054 4.893872 10.0328054 10.827626 0 5.933753-4.4403961 10.827625-10.0328054 10.827625zm0-4.5c3.0042401 0 5.5328054-2.786795 5.5328054-6.327625 0-3.540831-2.5285653-6.327626-5.5328054-6.327626-3.0042402 0-5.5328055 2.786795-5.5328055 6.327626 0 3.54083 2.5285653 6.327625 5.5328055 6.327625z"/><path d="m179.332898 55.7682672 11.674208 30.7785388 4.207507-1.5958951-11.674208-30.7785388z"/></g><path d="m147.764706 69.0981735 6.809955 13.6232877c9.728506-1.5136986 14.917043-3.0273973 15.56561-4.5410959.972851-2.2705479-.97285-17.6598174-5.350678-18.6689498-2.918552-.6727549-8.593515 2.5228311-17.024887 9.586758z" fill="#d8d8d8"/><path d="m148.957592 68.5147054 1.362143-1.1412227c9.026634-7.5626462 15.056252-10.9579398 18.975252-10.0545719 3.20353.7384451 5.115119 4.694582 6.376529 10.5826201.981932 4.5834845 1.291106 9.4047435.536911 11.1649671-1.13822 2.6565052-6.345323 4.1756204-17.287842 5.8782122l-1.623737.2526439zm10.891639 11.7243781c3.987657-.6558328 7.087695-1.3076522 9.283068-1.9481283 1.168581-.3409205 2.053423-.6713434 2.634387-.9726586.147584-.0765442.265231-.1459403.351686-.2041383.166111-1.0069466-.117827-4.8662513-.847015-8.26997-.881313-4.1138136-2.263029-6.9733492-2.987158-7.140268-1.804345-.4159193-6.619299 2.2104672-13.70701 7.9884633z" fill="#000" fill-rule="nonzero"/></g><g transform="translate(39 39)"><path d="m111.933333 158.923963 36.986667-42.387097c42.826667 40.032258 64.077778 62.739632 63.753333 68.12212-.486666 8.073733-8.273333 24.221198-16.546666 27.753456-5.515556 2.354839-13.626667 5.382489-24.333334 9.08295z" fill="#454e5a"/><path d="m5.35333333 3-5.35333333 4.54147465c4.86666667 10.76497695 10.8688889 19.51152075 18.0066667 26.23963135 10.7066666 10.0921659 54.02 41.8824885 54.02 50.4608295 0 5.718894.6488889 11.7741935 1.9466666 18.1658985 17.52-15.8110598 26.2799997-23.8847925 26.2799997-24.2211981 1.411316-4.9065135-7.7866663 2.0184332-18.0066663-4.5414746-6.8133334-4.3732719-24.9822223-23.7165899-54.5066667-58.0299539z" fill="#454e5a"/><g fill="#000" fill-rule="nonzero"><path d="m120.820383 158.854188 57.440599 60.042438c9.987973-3.470441 17.599725-6.323763 22.82221-8.553477 6.627821-2.829714 14.673399-17.345123 15.184218-25.819542.036742-.609547-1.071679-2.733426-3.36049-5.805695-2.557072-3.432359-6.471092-7.968123-11.731382-13.588882-10.302328-11.008309-25.722666-26.131204-46.251781-45.357656zm33.775131-45.550994 1.700947 1.589961c44.171969 41.28978 64.855252 63.390414 64.462796 69.90121-.604487 10.028357-9.514498 26.10333-17.909116 29.68737-5.573644 2.379639-13.729288 5.423912-24.481819 9.140225l-1.363529.471265-62.278509-65.099487z"/><path d="m211.361661 197.214557-68.62-70.140553-3.216656 3.146923 68.62 70.140553z"/><path d="m81.3207708 104.078203-2.9277296 2.642152-.7847155-3.864814c-1.3267777-6.5345334-1.991659-12.7390708-1.991659-18.6136055 0-2.8006475-8.569187-11.498427-23.4268036-23.9800882-1.2583668-1.0571351-2.5699857-2.1499601-3.9532235-3.2944796-2.3320411-1.929579-4.7153342-3.8814089-7.8521964-6.4359788-.5647132-.4598861-1.1356968-.924567-1.8994758-1.545923-.9361412-.7615242-1.4267096-1.1605957-1.8565021-1.5103236-1.4747106-1.1999916-2.5378682-2.0664782-3.5492431-2.8933359-5.449123-4.4549746-8.6704854-7.1788744-10.7758666-9.1634188-7.3625555-6.9399874-13.53110736-15.9289097-18.51357751-26.95004179l-.69866927-1.54544356 7.84162528-6.65240516 24.0955281 13.57817531.257287.2990195c29.3180334 34.0734726 47.4775559 53.4068188 54.0164987 57.6039678 3.9485429 2.5344498 7.4150624 2.9864086 12.5794561 2.4846691 2.967384-.2882921 3.165441-.2996194 4.13379-.0563691 2.160494.5427188 2.87217 2.4321456 2.240364 4.6286502-.607954 1.4971969-4.322653 4.8630072-26.9348872 25.2695931zm22.5225622-26.2087335v.3171664c0-.1285691.000817-.2371386.003957-.3309205zm-16.9720476-2.3308066c-7.0672496-4.536253-25.1610486-23.7909965-54.7394734-58.1568787l-20.6778794-11.65228129-2.85459026 2.42167796c4.61861366 9.80425903 10.21776186 17.79701493 16.79063536 23.99264353 2.000928 1.8860863 5.1730456 4.5683459 10.5375127 8.9541094 1.0081542.8242246 2.0689408 1.6887788 3.5411918 2.886769.4295152.3495023.9197946.7483386 1.856114 1.5100078.7643182.6217946 1.3358351 1.0869096 1.9012447 1.5473628 3.1451519 2.5613209 5.5366411 4.5198631 7.8793127 6.4582379 1.3915352 1.151385 2.7116995 2.2513299 3.9790456 3.3160084 16.8042821 14.1170257 25.0322675 22.4684834 25.0322675 27.4256158 0 4.3849616.3931937 8.9828965 1.1810428 13.7938082 7.2735405-6.572767 12.8409402-11.6385423 16.7007607-15.1959806 1.8917224-1.7435229 3.3713938-3.123017 4.4365018-4.1359984-6.1950536.601852-10.5870873.0292263-15.5636866-3.1651018z"/><path d="m127.811534 142.801177 66.673333 71.14977 3.283599-3.077009-66.673333-71.149769z"/></g><path d="m74.46 102.407834c-.6488889 13.456221 4.2177778 20.857143 14.6 22.202765s17.753791 12.615207 22.114706 33.808756l36.771961-39.359447c-16.36536-7.400922-26.58536-16.483871-30.66-27.2488481-4.074641-10.764977-9.265752-16.1474654-15.573334-16.1474654z" fill="#d8d8d8"/><path d="m78.0526115 102.29946.0424488-.880275 28.5386947-28.0055905h.919578c7.465067 0 13.309068 6.0594476 17.677637 17.6009678 3.833121 10.1268977 13.612364 18.8181267 29.482819 25.9952377l2.859314 1.29307-41.885153 44.832433-.877073-4.262475c-4.188285-20.354585-11.050182-30.84499-20.2000767-32.030892-11.670618-1.512609-17.2589306-10.010965-16.5581888-24.542476zm17.1365882 20.079802c10.8536833 1.406728 18.4471703 12.02073 23.0951513 31.385275l31.745832-33.979651c-15.228467-7.388634-24.938279-16.425825-29.007819-27.1773285-3.565647-9.4202429-7.805073-14.1415213-12.59611-14.648177l-25.9133966 25.4293335c-.3626756 11.805167 3.7986536 17.839926 12.6763423 18.990548z" fill="#000" fill-rule="nonzero"/></g></g></svg>