<svg height="300" viewBox="0 0 301 300" width="301" xmlns="http://www.w3.org/2000/svg"><g fill="none" fill-rule="evenodd" transform="translate(43 19)"><path d="m21.9222588 51.6071699c-12.843639 1.3552133-20.11043473 3.557435-21.80038723 6.606665-1.68995249 3.04923 14.19560093 64.7114361 47.65666033 184.9866191-1.351962 10.502904 3.5489003 15.415552 14.7025868 14.737945 11.1536864-.677606 59.9933133-14.060338 146.5188813-40.148195l-54.247475-203.790204z" fill="#67c9ed"/><path d="m162.338848 13.2124374 55.395606 208.1033606-2.084948.628622c-86.858752 26.188313-135.6058154 39.545681-147.0319473 40.239839-12.3670599.751321-18.4492334-5.175522-17.126397-16.811003-16.6732255-59.937043-28.9733104-105.290249-36.9014464-136.064522-3.9775844-15.4396023-6.85623712-27.2152969-8.63764197-35.33593-2.05307165-9.3590413-2.6554567-13.3028303-1.79816815-14.8496608 2.20019288-3.9698714 9.80882982-6.2912141 23.34015532-7.7331816zm-3.172646 5.5751252-130.8163164 37.0369764c-12.2273636 1.2901863-19.09072571 3.3701463-20.26004764 5.4799875.19576829.6172044.28801129 1.4238385.44635715 2.460522.32936199 2.1563188.93359415 5.2421808 1.81136069 9.2435285 1.7674954 8.057226 4.6346811 19.7860126 8.5998735 35.177513 7.9384579 30.814339 20.2717844 76.286422 36.9987794 136.411308l.063911.890312c-1.167083 9.066646 2.5562004 12.798883 12.3345589 12.20483 10.7931927-.655706 59.0240294-13.852995 143.9207924-39.428171z" fill="#000" fill-rule="nonzero"/><path d="m28.6616766 72.5151515-13.6616766 4.0606061 47.5628743 162.4242424 121.4371257-31.977273c-15.854291-91.70202-25.636727-140.2601007-29.347305-145.6742422-3.710579-5.4141414-7.589821-13.1969696-11.637725-23.3484848z" fill="#fff"/><path d="m32.0160796 70.3597566 116.3244704-35.11011.764393 1.9169792c3.991514 10.0100982 7.801291 17.6535603 11.403707 22.9098808 4.013169 5.8556532 13.663423 53.7576154 29.708459 146.5629064l.35159 2.033615-125.5499158 33.060267-48.8078717-166.6758308zm1.2957435 4.3094166-11.5227346 3.4248778 46.3178768 158.172654 117.3241087-30.894218c-15.460235-89.301672-25.251932-137.8167273-28.634335-142.752024-3.578503-5.2214283-7.271134-12.5066827-11.098976-21.8726369z" fill="#000" fill-rule="nonzero"/><path d="m27 82 109-33.0716876c-9.254717-15.9033252-16.45283-23.4935486-21.59434-22.7706702-5.141509.7228784-9.083333.7228784-11.825471 0-3.7704406-8.3131018-8.2264154-12.1082135-13.3679248-11.3853351-7.7122642 1.0843176-7.1869604-8.03032468-12.8537736-10.30101746-5.6668132-2.27069277-15.4245283-1.62647644-17.9952831 0-2.5707547 1.62647645-8.740566 8.67454106-7.1981132 15.72260556 1.5424529 7.0480646-3.0849056 7.5902234-4.6273585 10.3010175-1.0283018 1.807196-1.0283018 5.8088918 0 12.0050873-8.9119496 2.4783455-14.2248427 4.9825555-15.9386792 7.51263s-2.913522 13.1925311-3.5990566 31.98737z" fill="#d8d8d8"/><ellipse cx="71.5" cy="20" fill="#fff" rx="7.5" ry="7"/><path d="m73.5 29.25c-5.3514109 0-9.75-4.1053498-9.75-9.25s4.3985891-9.25 9.75-9.25 9.75 4.1053498 9.75 9.25-4.3985891 9.25-9.75 9.25zm0-4.5c2.9328604 0 5.25-2.1626637 5.25-4.75s-2.3171396-4.75-5.25-4.75-5.25 2.1626637-5.25 4.75 2.3171396 4.75 5.25 4.75z" fill="#000" fill-rule="nonzero"/><path d="m120.111877 22.4612308c6.428054-.846562 14.053146 6.6850091 23.799328 22.3728787l1.575245 2.5355806-114.8554551 32.6427031.1207089-3.0999399c.7124054-18.2953636 1.9106799-28.2712339 4.0241322-31.1937775 1.9818799-2.7406014 6.9737676-5.079214 15.2132011-7.363783-.772274-5.2007467-.6321105-8.6976757.6256891-10.7682972.5035396-.8289396 1.0995325-1.4219833 2.096991-2.2303729.1010684-.0819108.5272149-.4231177.6355538-.5111038 1.8476142-1.5005173 2.2748465-2.4539075 1.6268268-5.227552-1.5286574-6.5429379 3.2987825-14.24546672 8.2419849-17.17501163 3.5530888-2.10570643 14.1635561-2.33641353 19.9330623-.17089075 2.5057302.94049915 3.873232 2.41552817 5.8680175 5.52029957.1261174.19653192.1261174.19653192.2496458.38916572 2.0675416 3.22139899 3.0501146 3.95797679 5.6516721 3.61535679 6.0474706-.7964399 11.1202486 3.0260204 15.1847156 10.9098185 2.391726.3882463 5.742061.3168311 10.008681-.2450743zm18.376448 22.2191626c-7.98794-12.375872-14.171973-18.2340266-17.788881-17.757687-5.39518.7105346-9.593521.7105346-12.658654-.0463503l-1.025404-.2532069-.460295-.9506294c-3.394761-7.0110788-7.0651113-9.9392336-11.0490431-9.4145576-4.7905746.6309092-7.1168082-1.1129325-10.0263373-5.6462171-.1252341-.1952925-.1252341-.1952925-.2484829-.3873547-1.4994307-2.33377966-2.3436268-3.24435516-3.6633916-3.73971482-4.5787392-1.71858106-13.7837103-1.51843415-16.0575037-.17089076-3.4312258 2.03348543-7.1586639 7.98088198-6.1542416 12.27999638 1.0812221 4.6278313-.090041 7.2415633-3.1719152 9.7444698-.1239582.1006712-.5524968.4437934-.6391121.5139907-.6225873.5045755-.9206168.8011302-1.084318 1.0706194-.6410627 1.0553335-.6410627 4.415393.2924875 9.6846186l.3625008 2.0460585-2.0108192.5238015c-8.3976453 2.1875162-13.3909857 4.3921451-14.6826374 6.1782787-1.2317427 1.7032899-2.3641148 10.5938522-3.0436686 25.629259z" fill="#000" fill-rule="nonzero"/><path d="m57 147.263158 7.8169014 28.736842 29.1830986-7.184211-7.2957746-31.815789z" fill="#d8d8d8"/><path d="m69 190.263158 7.8169014 28.736842 29.1830986-7.184211-7.2957746-31.815789z" fill="#d8d8d8" transform="matrix(-.99862953 .05233596 -.05233596 -.99862953 185.321108 394.147196)"/><path d="m45 104.263158 7.8169014 28.736842 29.1830986-7.184211-7.2957746-31.815789z" fill="#d8d8d8"/><g fill="#000" fill-rule="nonzero"><path d="m60.2766565 145.82359 34.0606924-11.768369 8.3506661 36.416016-33.4657746 8.238508zm12.1349059 27.466665 24.9004222-6.129913-6.2408828-27.215563-25.3477583 8.757947z"/><path d="m71.2766565 188.82359 34.0606925-11.768369 8.350666 36.416016-33.4657746 8.238508zm12.1349059 27.466665 24.9004226-6.129913-6.240883-27.215563-25.3477585 8.757947z"/><path d="m117.566176 151.177601 50-13-1.132352-4.355202-50 13z"/><path d="m48.2766565 102.82359 34.0606924-11.7683686 8.3506665 36.4160156-33.465775 8.238508zm12.1349059 27.466665 24.9004222-6.129913-6.2408828-27.2155634-25.3477583 8.7579474z"/></g><g transform="translate(165 72)"><path d="m28.1547619 18.3801653 13.3095238 2.5413223-3.4642857-17.4214876z" fill="#d8d8d8"/><path d="m18.4285714 34.1363636c12.6269842-22.7024793 19.452381-33.88429748 20.4761905-33.54545451 1.0238095.33884298 2.218254 13.72314051 3.5833333 40.15289261l-13.8214285 1.0165289z" stroke="#000" stroke-width="4.5"/><path d="m1.02380952 104.27686c-.68253968 5.421487.68253969 8.979338 4.0952381 10.673553s7.33730158 2.541323 11.77380948 2.541323c4.436508-1.016529 6.6547619-2.371901 6.6547619-4.066116s-1.1944444-6.607438-3.5833333-14.7396696z" fill="#d8d8d8"/><path d="m1.02380952 104.27686c-.68253968 5.421487.68253969 8.979338 4.0952381 10.673553s7.33730158 2.541323 11.77380948 2.541323c4.436508-1.016529 6.6547619-2.371901 6.6547619-4.066116s-1.1944444-6.607438-3.5833333-14.7396696z" stroke="#000" stroke-width="4.5"/></g><path d="m180.121951 106 29.878049 6.583333-23.780488 72.416667-26.219512-8.102564z" fill="#67c9ed"/><g fill="#000" fill-rule="nonzero"><path d="m168.652021 175.475658 17.85376 6.568229 18.719325-67.862316-20.667669-5.421329zm42.122873-64.490563-21.231895 76.971018-26.19502-9.636899 17.899462-75.079456z"/><path d="m193.454295 93.1828206 12 3 1.09141-4.3656412-12-3z"/><path d="m192.822861 108.432051-18 69 4.354278 1.135898 18-69z"/><path d="m66.2487273 106.788699-2.4974546 3.743357 14.8316421 9.895224 1.014528-2.612888c5.1862766-13.357109 10.1698012-21.7165696 14.7166376-24.9880041l-2.6281608-3.6527758c-5.1103335 3.6768689-10.1298991 11.7890269-15.2512272 24.4108549z"/><path d="m102.588185 107.171759 48-12.9999997-1.17637-4.3435186-48 13.0000003z"/></g></g></svg>