<svg height="300" viewBox="0 0 300 300" width="300" xmlns="http://www.w3.org/2000/svg"><g fill="none" fill-rule="evenodd"><g transform="translate(19 22)"><path d="m0 71.8567639v112.2355081l71.1853531 71.170327 114.3072499 2.737401c47.456902-45.623342 70.957195-71.400531 70.500878-77.331565-.456316-5.931034-.456316-43.114058 0-111.5490716-41.981105-46.0795756-67.078506-69.1193634-75.2922-69.1193634-8.213695 0-44.719004 0-109.5159279 0z" fill="#d8d8d8"/><path d="m5 70.9071618v109.1903592l69.2388786 69.239349 111.1816604 2.66313c46.159253-37.469381 69.016959-59.089129 68.57312-64.859244s-.443839-45.402356 0-118.8967242c-40.833184-44.8293545-65.244327-67.2440318-73.233429-67.2440318-7.989101 0-43.496218 0-106.5213514 0z" stroke="#000" stroke-width="4.5"/><path d="m0 69.0759945v103.9625715l66.9060619 57.961434h98.5508211c42.193012-33.120819 63.289518-52.441297 63.289518-57.961434 0-5.520136 0-41.1934 0-107.01979l-60.444798-62.33868496c-58.732084-4.90678805-92.9201852-4.90678805-102.5643022 0-9.644117 4.90678804-31.5565506 26.70542256-65.7373008 65.39590346z" fill="#e87450" transform="translate(10 8)"/><path d="m17 76.7769642v103.5125168l66.687747 57.710519h98.229249c42.055336-32.977439 63.083004-52.214279 63.083004-57.710519 0-5.496239 0-41.015073 0-106.5565006l-60.247566-62.0688205c-58.540441-4.88554654-92.6169862-4.88554654-102.2296344 0-9.6126482 4.8855465-31.4535814 26.5898146-65.5227996 65.1128043z" stroke="#000" stroke-width="4.5"/></g><g fill-rule="nonzero"><path d="m131.465063 22.1337487c-8.002933-8.0459336-24.85889-18.81613525-41.3297689-21.3140276-20.012972-3.03506874-39.5136837 3.24128071-42.5902607 4.52105498-28.7791243 11.97135082-47.5450334 40.18391672-47.5450334 71.47894502 0 20.0242816 11.3856615 36.0067529 24.4588235 50.0598799 7.3582814 7.909859 9.111814 12.981992 19.4764706 17.293414 28.7791243 11.97135 65.5118959 9.468856 87.5297689-12.667321 30.046583-30.208026 30.046583-79.1639202 0-109.3719453zm-20.9825 7.5428927c-17.8837654 14.9119275-31.007365 26.5592706-39.3707983 34.9420293-9.5176778 9.5396702-23.2157449 24.7759705-41.0942012 45.7089013-16.242956-23.0230088-13.6431777-54.4490486 6.16-74.4618904 19.947219-20.003003 51.3516243-22.6187506 74.3049995-6.1890402zm-66.8937495 94.4795666c16.0405831-19.226937 28.3854884-33.1854063 37.0347159-41.8754091 9.2104947-9.2539159 23.6551726-22.211324 43.3340336-38.8722245 8.392101 11.8950881 12.007476 32.1089682 10.565966 45.7572527-1.34854 12.7680449-7.154315 19.0316479-16.725966 28.7046369-19.8509686 20.099707-51.2553739 22.715455-74.2087495 6.285744z" fill="#fff" transform="translate(76 77)"/><path d="m131.465063 22.6792971c-8.002933-8.0459336-24.85889-18.81613529-41.3297689-21.31402764-20.012972-3.03506874-39.5136837 3.24128071-42.5902607 4.52105499-28.7791243 11.97135085-47.5450334 40.18391665-47.5450334 71.47894505 0 20.0242816 11.3856615 36.0067525 24.4588235 50.0598805 7.3582814 7.909859 9.111814 12.981991 19.4764706 17.293413 28.7791243 11.971351 65.5118959 9.468857 87.5297689-12.667321 30.046583-30.208025 30.046583-79.1639198 0-109.3719449zm-20.9825 7.5428927c-17.8837654 14.9119275-31.007365 26.5592706-39.3707983 34.9420293-9.5176778 9.5396702-23.2157449 24.7759705-41.0942012 45.7089009-16.242956-23.0230084-13.6431777-54.4490482 6.16-74.46189 19.947219-20.0030031 51.3516243-22.6187507 74.3049995-6.1890402zm-66.8937495 94.4795672c16.0405831-19.226937 28.3854884-33.185407 37.0347159-41.8754097 9.2104947-9.2539159 23.6551726-22.2113241 43.3340336-38.8722246 8.392101 11.8950882 12.007476 32.1089682 10.565966 45.7572528-1.34854 12.7680455-7.154315 19.0316485-16.725966 28.7046375-19.8509686 20.099706-51.2553739 22.715454-74.2087495 6.285744z" stroke="#000" stroke-width="4.5" transform="translate(71 72)"/></g></g></svg>