<svg width="20" height="19" viewBox="0 0 20 19" fill="none" xmlns="http://www.w3.org/2000/svg">
<path d="M2.125 6.4375C1.49219 6.4375 1 5.94531 1 5.3125C1 4.71484 1.49219 4.1875 2.125 4.1875H15.1328L13.1289 2.18359C12.6719 1.76172 12.6719 1.02344 13.1289 0.601562C13.5508 0.144531 14.2891 0.144531 14.7109 0.601562L18.6484 4.53906C19.1055 4.96094 19.1055 5.69922 18.6484 6.12109L14.7109 10.0586C14.5 10.2695 14.2188 10.375 13.9375 10.375C13.6211 10.375 13.3398 10.2695 13.1289 10.0586C12.6719 9.63672 12.6719 8.89844 13.1289 8.47656L15.1328 6.4375H2.125ZM17.875 12.0625C18.4727 12.0625 19 12.5898 19 13.1875C19 13.8203 18.4727 14.3125 17.875 14.3125H4.83203L6.83594 16.3516C7.29297 16.7734 7.29297 17.5117 6.83594 17.9336C6.625 18.1445 6.34375 18.25 6.0625 18.25C5.74609 18.25 5.46484 18.1445 5.25391 17.9336L1.31641 13.9961C0.859375 13.5742 0.859375 12.8359 1.31641 12.4141L5.25391 8.47656C5.67578 8.01953 6.41406 8.01953 6.83594 8.47656C7.29297 8.89844 7.29297 9.63672 6.83594 10.0586L4.83203 12.0625H17.875Z" fill="#818CF8"/>
</svg>
