<svg width="16" height="12" viewBox="0 0 16 12" fill="none" xmlns="http://www.w3.org/2000/svg">
<path d="M15.875 1.77515C15.875 2.09155 15.7344 2.3728 15.5234 2.58374L6.52344 11.5837C6.3125 11.7947 6.03125 11.9001 5.75 11.9001C5.43359 11.9001 5.15234 11.7947 4.94141 11.5837L0.441406 7.08374C0.230469 6.8728 0.125 6.59155 0.125 6.27515C0.125 5.64233 0.617188 5.15015 1.25 5.15015C1.53125 5.15015 1.8125 5.29077 2.02344 5.50171L5.75 9.19312L13.9414 1.00171C14.1523 0.790771 14.4336 0.650146 14.75 0.650146C15.3477 0.650146 15.875 1.14233 15.875 1.77515Z" fill="#22C55E"/>
</svg>
