<svg width="23" height="19" viewBox="0 0 23 19" fill="none" xmlns="http://www.w3.org/2000/svg">
<path d="M14.625 1.375C14.625 1.48047 14.5898 1.58594 14.5547 1.69141L10.0547 17.4414C9.91406 17.9336 9.45703 18.25 9 18.25C8.15625 18.25 7.83984 17.5117 7.83984 17.125C7.83984 17.0547 7.875 16.9492 7.91016 16.8438L12.4102 1.09375C12.5508 0.601562 13.0078 0.25 13.5 0.25C14.3438 0.25 14.625 1.02344 14.625 1.375ZM6.1875 5.3125C6.1875 5.62891 6.04688 5.91016 5.83594 6.08594L2.70703 9.25L5.83594 12.3789C6.04688 12.5898 6.1875 12.8711 6.1875 13.1875C6.1875 13.8203 5.66016 14.3125 5.0625 14.3125C4.74609 14.3125 4.46484 14.207 4.25391 13.9961L0.316406 10.0586C0.105469 9.84766 0 9.49609 0 9.25C0 8.96875 0.105469 8.6875 0.316406 8.44141L4.25391 4.50391C4.46484 4.29297 4.74609 4.1875 5.0625 4.1875C5.66016 4.1875 6.1875 4.64453 6.1875 5.3125ZM22.5 9.25C22.5 9.56641 22.3594 9.84766 22.1484 10.0234L18.2109 13.9609C18 14.1719 17.7188 14.3125 17.4375 14.3125C16.8047 14.3125 16.3125 13.8203 16.3125 13.1875C16.3125 12.9062 16.418 12.625 16.6289 12.3789L19.7578 9.25L16.6289 6.08594C16.418 5.875 16.3125 5.59375 16.3125 5.3125C16.3125 4.64453 16.8047 4.1875 17.4375 4.1875C17.7188 4.1875 18 4.32812 18.2109 4.50391L22.1484 8.44141C22.3594 8.65234 22.5 8.93359 22.5 9.25Z" fill="#818CF8"/>
</svg>
