<svg width="186" height="39" viewBox="0 0 186 39" fill="none" xmlns="http://www.w3.org/2000/svg">
<path d="M51.4396 20.0698C51.4141 20.1475 51.3629 20.277 51.2862 20.4582C51.2094 20.6136 51.1327 20.8208 51.0304 21.028C50.9281 21.2351 50.8514 21.4682 50.7235 21.7013C50.6211 21.9344 50.5189 22.1675 50.4165 22.4264C50.391 22.504 50.3398 22.5818 50.3143 22.6335C50.2886 22.6854 50.2374 22.7112 50.1607 22.7371C50.084 22.763 49.9816 22.763 49.8794 22.763C49.7515 22.763 49.5724 22.763 49.3678 22.7888L48.0378 22.8149L47.7821 25.7929H52.6929V26.1813C52.6674 26.1813 52.6162 26.2849 52.5395 26.4403C52.4628 26.5956 52.3349 26.777 52.207 27.0101C52.0791 27.2172 51.9512 27.4503 51.7978 27.6834C51.6699 27.9164 51.542 28.0977 51.4396 28.2271C51.3885 28.3308 51.3117 28.4344 51.2094 28.512C51.1327 28.5897 51.0304 28.6415 50.9281 28.6675C50.8258 28.6933 50.7235 28.7192 50.5956 28.7192C50.4677 28.7192 50.3398 28.7192 50.2119 28.7192C49.6492 28.7192 49.0354 28.7192 48.4214 28.6933C47.8076 28.6675 47.1682 28.6415 46.5544 28.5897C45.9404 28.5638 45.3266 28.512 44.7382 28.4602C44.15 28.4085 43.5874 28.3566 43.1013 28.3049C43.0501 28.3049 43.0246 28.279 42.9734 28.2271C42.9479 28.1754 42.9222 28.1235 42.9222 28.0718C42.8967 28.0718 42.9222 28.0199 42.9734 27.9164C43.0246 27.8128 43.127 27.6575 43.2292 27.502C43.3316 27.3208 43.4595 27.1396 43.5874 26.9065C43.7152 26.6734 43.8431 26.4662 43.971 26.2331L44.1244 24.0578C44.15 23.6953 44.1756 23.4104 44.1756 23.2292C44.2012 23.0478 44.2012 22.9443 44.2012 22.9443C43.8175 22.9443 43.5362 22.9183 43.3316 22.8925C43.1525 22.8666 43.0501 22.7889 43.0501 22.6854C43.0501 22.6335 43.1013 22.5299 43.178 22.4004C43.2804 22.2709 43.3828 22.0897 43.5106 21.9085C43.6385 21.7271 43.792 21.5199 43.9454 21.3387C44.0989 21.1315 44.2268 20.9503 44.3547 20.7949L44.5848 17.506H44.5593C44.4314 17.506 44.3035 17.506 44.1756 17.5319C44.0733 17.5319 43.9454 17.5319 43.8687 17.5319C43.5617 17.5319 43.3316 17.506 43.2037 17.4802C43.0758 17.4543 42.9991 17.3766 42.9991 17.2729C42.9991 17.2212 43.0246 17.1435 43.1013 16.9881C43.178 16.8586 43.2804 16.6773 43.3828 16.4961C43.485 16.3148 43.6129 16.1076 43.7408 15.9264C43.8687 15.7192 43.971 15.538 44.0733 15.3566L44.636 14.3725H48.6517L53.3835 14.0359C53.3835 14.0359 53.4091 14.0359 53.4347 14.0359C53.4602 14.0359 53.4859 14.036 53.5369 14.0618C53.5626 14.0877 53.5881 14.1136 53.6393 14.1396C53.6648 14.1654 53.6905 14.243 53.6905 14.2949L53.5369 14.787C53.4859 14.9164 53.4347 15.0718 53.3835 15.2271C53.3323 15.3825 53.2556 15.538 53.1789 15.7192L52.7697 16.8328C52.7185 16.9364 52.6674 17.014 52.6162 17.0917C52.565 17.1693 52.4371 17.1693 52.2582 17.1953C51.7721 17.1953 51.235 17.2212 50.6211 17.2471C50.0328 17.273 49.3423 17.2988 48.575 17.3248C48.5493 17.4024 48.5493 17.4802 48.5493 17.5319C48.5493 17.5838 48.5493 17.6873 48.5238 17.8427L48.4726 18.2829C48.4471 18.4901 48.4471 18.7232 48.4214 18.9562C48.3959 19.1893 48.3704 19.5001 48.3192 19.8367C48.6517 19.8367 48.9586 19.8108 49.2655 19.8108C49.5724 19.8108 49.8538 19.7849 50.1095 19.7849C50.3653 19.7849 50.5956 19.7591 50.7747 19.7591C50.9536 19.7591 51.1071 19.7591 51.1839 19.7591C51.235 19.7591 51.2862 19.7849 51.3629 19.8108C51.4141 19.8367 51.4652 19.9144 51.4652 20.0439C51.4908 19.9662 51.4652 20.018 51.4396 20.0698Z" fill="white"/>
<path d="M54.6327 19.9148C54.7094 19.0343 54.7606 18.1538 54.8116 17.2735C54.8628 16.4188 54.914 15.5125 54.9652 14.6061C54.9907 14.3989 54.9907 14.2436 55.0164 14.1658C55.0419 14.0882 55.1186 14.0363 55.221 14.0105C55.8092 13.9069 56.423 13.7774 57.0113 13.6738C57.5996 13.5703 58.2135 13.4148 58.8018 13.2336C58.8273 13.2336 58.853 13.2336 58.8785 13.2336C58.9552 13.2336 58.9809 13.2595 58.9809 13.3372L57.7275 27.1917V27.3472C57.7275 27.3989 57.7019 27.4506 57.6508 27.4766C57.5996 27.5025 57.4973 27.5543 57.3439 27.6061L54.8373 28.5384C54.7606 28.5642 54.6837 28.6161 54.5559 28.642C54.4536 28.6678 54.3257 28.6937 54.2234 28.6937C54.1211 28.6937 54.0444 28.6678 53.9932 28.6161C53.9165 28.5642 53.8909 28.4866 53.8909 28.383V28.3311C53.9421 27.6837 53.9932 27.0363 54.0444 26.4148C54.0955 25.7933 54.1467 25.1459 54.1978 24.4726C54.249 23.7993 54.3002 23.1001 54.3769 22.3491C54.4791 21.624 54.5559 20.8212 54.6327 19.9148Z" fill="white"/>
<path d="M65.6317 17.3008C66.2457 17.3008 66.7828 17.4044 67.2943 17.6375C67.7802 17.8704 68.2151 18.1554 68.5732 18.5178C68.9313 18.8804 69.2126 19.2949 69.3916 19.735C69.5707 20.1752 69.6731 20.6414 69.6731 21.0817C69.6731 21.4701 69.5452 21.8845 69.3149 22.2988C69.0847 22.7131 68.7267 23.0756 68.2918 23.3865C67.8571 23.723 67.3199 23.982 66.7061 24.1634C66.0921 24.3446 65.4271 24.4741 64.6855 24.4741C64.3018 24.4741 63.8925 24.4482 63.4833 24.3704C63.5088 24.6554 63.5856 24.8884 63.7135 25.0956C63.8414 25.3028 64.0203 25.4582 64.2249 25.5876C64.4297 25.7171 64.6598 25.8207 64.9156 25.8725C65.1714 25.9243 65.4527 25.9761 65.7085 25.9761C66.0154 25.9761 66.3224 25.9502 66.6037 25.8983C66.8851 25.8466 67.1664 25.7689 67.4222 25.6912C67.678 25.6135 67.9338 25.5099 68.1896 25.3804C68.4197 25.2769 68.6499 25.1473 68.8801 25.0438C68.9313 25.0438 68.9824 25.0178 69.0336 25.0178C69.0847 25.0178 69.1103 24.992 69.1615 24.992C69.1615 25.1992 69.1615 25.4064 69.1615 25.5876C69.1615 25.7689 69.1615 26.0019 69.1615 26.2609C69.1615 26.5199 69.1615 26.8307 69.1359 27.1414C69.1615 27.1673 69.1615 27.2191 69.1615 27.245C69.1615 27.2709 69.1615 27.2967 69.1615 27.3227C69.1615 27.4004 69.0847 27.4781 68.9569 27.5817C68.829 27.6593 68.6243 27.7629 68.3942 27.8665C68.1639 27.9701 67.9081 28.0478 67.6268 28.1514C67.3455 28.2291 67.0385 28.3326 66.7316 28.4103C66.4246 28.4881 66.1433 28.5398 65.862 28.5917C65.5806 28.6434 65.3248 28.6434 65.1202 28.6434C64.4297 28.6434 63.7646 28.5139 63.0996 28.2808C62.4601 28.0478 61.8718 27.6852 61.3859 27.245C60.8744 26.8047 60.4907 26.235 60.1837 25.5876C59.8768 24.9402 59.7234 24.2151 59.7234 23.4123C59.7234 22.5577 59.8768 21.7808 60.1582 21.0298C60.4395 20.2788 60.8487 19.6314 61.3603 19.0876C61.8719 18.5438 62.5113 18.1035 63.2275 17.7928C63.9692 17.4561 64.7622 17.3008 65.6317 17.3008ZM65.5039 19.8904C65.2481 19.8904 64.9923 19.9423 64.7877 20.0717C64.5576 20.1752 64.3785 20.3566 64.1739 20.5638C63.9948 20.7709 63.8414 21.0298 63.6879 21.3147C63.5344 21.5996 63.4577 21.9362 63.3554 22.2988C64.0203 22.1952 64.5576 22.0657 64.9923 21.9362C65.4271 21.8067 65.7853 21.6772 66.0411 21.5478C66.2967 21.4183 66.4758 21.2888 66.6037 21.1593C66.7316 21.0298 66.7572 20.9004 66.7572 20.7709C66.7572 20.6673 66.7061 20.5378 66.6293 20.4343C66.5525 20.3307 66.4246 20.253 66.2967 20.1752C66.1688 20.0976 66.0409 20.0457 65.8875 19.994C65.7596 19.9163 65.6317 19.8904 65.5039 19.8904Z" fill="white"/>
<path d="M70.672 23.3865C70.672 22.5319 70.8254 21.755 71.1324 21.004C71.4392 20.253 71.8741 19.6056 72.4112 19.0618C72.9484 18.5178 73.6134 18.0777 74.3551 17.767C75.0969 17.4561 75.9154 17.3008 76.785 17.3008C77.3733 17.3008 77.8848 17.3525 78.3197 17.4561C78.7289 17.5597 79.0869 17.6634 79.3427 17.7928C79.5985 17.9223 79.8032 18.0259 79.931 18.1294C80.0589 18.233 80.1101 18.2849 80.1101 18.2849C80.1101 18.3108 80.0845 18.4402 80.0589 18.6215C80.0333 18.8028 80.0078 19.0099 79.9566 19.243C79.9311 19.4761 79.8799 19.7092 79.8543 19.9681C79.8287 20.2271 79.8032 20.4343 79.8032 20.6155C79.8032 20.6414 79.8032 20.6933 79.7776 20.7191C79.752 20.745 79.7009 20.7709 79.6241 20.7709C79.5474 20.7709 79.4451 20.745 79.2917 20.6933C79.1381 20.6414 78.959 20.5897 78.7544 20.5119C78.5498 20.4343 78.294 20.3824 78.0127 20.3307C77.7314 20.2788 77.4245 20.253 77.092 20.253C76.6826 20.253 76.299 20.3307 75.941 20.486C75.6085 20.6414 75.3015 20.8486 75.0712 21.1076C74.8411 21.3665 74.6365 21.7031 74.5086 22.0657C74.3807 22.4282 74.304 22.8426 74.304 23.257C74.304 23.6972 74.3807 24.0856 74.5086 24.3964C74.6365 24.7071 74.8411 24.9661 75.0712 25.1733C75.3015 25.3804 75.5573 25.5099 75.8642 25.6135C76.1711 25.6912 76.4781 25.743 76.8105 25.743C77.1942 25.743 77.5779 25.6912 77.9616 25.5876C78.3452 25.484 78.7289 25.3287 79.0614 25.1473C79.0869 25.1473 79.0869 25.1473 79.1381 25.1473C79.1638 25.1473 79.1893 25.1733 79.2148 25.1992C79.2405 25.2251 79.2405 25.3028 79.2405 25.3804C79.2405 25.5876 79.2405 25.8466 79.2405 26.1314C79.2405 26.4163 79.2405 26.7012 79.2405 26.986C79.2405 27.245 79.2405 27.4781 79.2148 27.6593C79.2148 27.8407 79.1893 27.9441 79.1893 27.9441C78.959 28.0996 78.7034 28.2291 78.4476 28.3326C78.1918 28.4362 77.9104 28.5139 77.6291 28.5657C77.3478 28.6175 77.0663 28.6693 76.7595 28.6693C76.4781 28.6952 76.1967 28.6951 75.9153 28.6951C75.1736 28.6951 74.483 28.5657 73.818 28.3067C73.1785 28.0478 72.6159 27.7112 72.1299 27.245C71.644 26.7788 71.2858 26.235 71.0045 25.5876C70.7999 24.8884 70.672 24.1892 70.672 23.3865Z" fill="white"/>
<path d="M86.3496 20.6388C86.2472 21.3121 86.1705 21.9855 86.0938 22.6587C86.017 23.332 85.9659 23.9794 85.9402 24.5492C85.9402 24.8081 85.9659 25.0152 85.9914 25.1706C86.0171 25.3519 86.0938 25.4814 86.1705 25.5592C86.2472 25.6626 86.3239 25.7145 86.4263 25.7662C86.5285 25.8181 86.6309 25.8181 86.7588 25.8181C86.9634 25.8181 87.1936 25.7921 87.4238 25.7145C87.654 25.6368 87.9098 25.585 88.1399 25.4814C88.2166 25.4555 88.2935 25.4297 88.3445 25.4037C88.3957 25.3778 88.4469 25.3778 88.4724 25.3778C88.5236 25.3778 88.5748 25.4037 88.6003 25.4555C88.626 25.5073 88.6515 25.6109 88.6771 25.7662C88.7027 25.9216 88.7282 26.1029 88.7794 26.3619C88.8306 26.595 88.9073 26.9057 89.0096 27.2941C89.0096 27.32 89.0096 27.346 89.0352 27.3719C89.0352 27.3977 89.0352 27.4236 89.0352 27.4236C89.0352 27.5014 89.0096 27.579 88.9329 27.605C88.8561 27.6308 88.7538 27.6826 88.6003 27.7344C88.3445 27.8121 88.0632 27.9157 87.7819 28.0193C87.5005 28.1229 87.1936 28.2005 86.9122 28.2782C86.6309 28.3558 86.3496 28.4077 86.0938 28.4595C85.838 28.5113 85.6078 28.5372 85.4032 28.5372C84.3288 28.5372 83.5616 28.2782 83.0756 27.7344C82.5897 27.1905 82.3339 26.3878 82.3339 25.2742C82.3339 25.093 82.3339 24.8858 82.3594 24.7045C82.385 24.4973 82.385 24.2902 82.4106 24.083C82.4618 23.4356 82.5385 22.8141 82.5897 22.2444C82.6407 21.6746 82.6919 21.105 82.7431 20.587H81.7456C81.413 20.587 81.1572 20.561 81.0038 20.5352C80.8504 20.5093 80.7737 20.4576 80.7737 20.354C80.7737 20.328 80.7992 20.2503 80.8759 20.1467C80.9271 20.0431 81.0293 19.8878 81.1317 19.7324C81.2341 19.5771 81.3363 19.3957 81.4642 19.2145C81.5666 19.0332 81.6944 18.8519 81.7967 18.6966C81.899 18.5411 82.0013 18.4116 82.0781 18.2821C82.1548 18.1787 82.206 18.1009 82.2315 18.0751H82.9222C82.9734 17.583 83.0244 17.1687 83.0501 16.832C83.0756 16.4953 83.1268 16.2105 83.1268 16.0034C83.1523 15.7962 83.178 15.6149 83.178 15.4853C83.178 15.3558 83.229 15.2782 83.229 15.2264C83.2547 15.1746 83.2802 15.1229 83.3059 15.1229C83.3314 15.0969 83.3826 15.0969 83.4337 15.071C83.7151 15.0193 83.9964 14.9674 84.2778 14.9157C84.5336 14.8639 84.8149 14.8121 85.0707 14.7603C85.3265 14.7084 85.6078 14.6567 85.8891 14.579C86.1705 14.5014 86.4518 14.4236 86.7588 14.346C86.7843 14.346 86.7843 14.346 86.7843 14.346H86.81C86.8867 14.346 86.9122 14.3719 86.9122 14.4236V14.4495C86.8867 14.8121 86.8355 15.3041 86.7588 15.9256C86.6821 16.5472 86.6054 17.2723 86.5285 18.0751H89.0863C89.1375 18.0751 89.1886 18.1009 89.2398 18.1268C89.2909 18.1527 89.3165 18.2304 89.3165 18.3081C89.3165 18.334 89.2909 18.4635 89.2142 18.6447C89.1375 18.8519 89.0352 19.1109 88.8817 19.4216L88.5493 20.1985C88.4981 20.3021 88.4469 20.354 88.4214 20.4057C88.3702 20.4576 88.2678 20.4834 88.1399 20.4834H86.3496V20.6388Z" fill="white"/>
<path d="M90.4925 24.0043C90.5692 23.1238 90.6715 22.2434 90.7482 21.3629C90.825 20.5084 90.9017 19.602 90.9784 18.6957C91.004 18.4884 91.004 18.3331 91.0296 18.2554C91.0552 18.1777 91.1319 18.1259 91.2342 18.1C91.7714 17.9964 92.334 17.8669 92.9479 17.7633C93.5362 17.6338 94.1245 17.4785 94.6616 17.2973C94.6872 17.2973 94.7127 17.2973 94.7383 17.2973C94.8151 17.2973 94.8406 17.3231 94.8406 17.3749L93.9711 26.827C93.9454 27.0343 93.9199 27.1896 93.8942 27.2673C93.8687 27.345 93.792 27.3968 93.6896 27.4227C93.1525 27.578 92.5898 27.7853 92.0527 27.9925C91.4899 28.1996 90.9017 28.4068 90.2879 28.6139C90.2622 28.6139 90.2367 28.6139 90.2112 28.6139C90.1343 28.6139 90.1088 28.588 90.1088 28.5104C90.1088 28.5104 90.1088 28.4068 90.1343 28.2514C90.16 28.096 90.16 27.8629 90.1855 27.6039C90.2112 27.345 90.2367 27.0343 90.2622 26.7236C90.2879 26.3869 90.3134 26.076 90.339 25.7395C90.3646 25.4028 90.3901 25.0921 90.4158 24.7812C90.4413 24.4964 90.4668 24.2374 90.4925 24.0043ZM91.2086 16.2613C91.2342 15.9765 91.2342 15.7694 91.2598 15.6139C91.2598 15.4585 91.2853 15.3549 91.2853 15.2773C91.2853 15.1996 91.2853 15.1478 91.2853 15.1478C91.2853 15.122 91.2853 15.122 91.2853 15.096C91.2853 15.096 91.2853 15.0701 91.2853 15.0442C91.2853 15.0184 91.2853 14.9406 91.311 14.8629C91.311 14.7594 91.3365 14.6299 91.3365 14.4486C91.3621 14.2673 91.3621 14.0084 91.3877 13.6976C91.4132 13.4905 91.4132 13.3351 91.4388 13.2574C91.4644 13.1796 91.5411 13.1279 91.6435 13.102C92.1806 12.9984 92.7433 12.8689 93.3571 12.7653C93.971 12.6617 94.5337 12.4805 95.0709 12.2992C95.0964 12.2992 95.1219 12.2992 95.1476 12.2992C95.1731 12.3251 95.1988 12.3769 95.2243 12.3769L95.2498 12.4028L95.0452 15.0701C95.0197 15.2773 94.9941 15.4327 94.9685 15.5104C94.943 15.588 94.8662 15.6399 94.7639 15.6658C94.2268 15.7694 93.6641 15.8728 93.127 16.0023C92.5642 16.1318 91.976 16.2354 91.362 16.3649C91.3365 16.3649 91.311 16.3649 91.2853 16.3649C91.2342 16.3649 91.2086 16.339 91.2086 16.2613Z" fill="white"/>
<path d="M101.364 28.6423C100.469 28.6423 99.6761 28.4869 98.9856 28.2021C98.295 27.8912 97.7322 27.5028 97.2718 27.0108C96.8115 26.5187 96.479 25.949 96.2487 25.3016C96.0186 24.6542 95.9162 23.981 95.9162 23.3076C95.9162 22.6084 96.0186 21.961 96.2487 21.3395C96.479 20.718 96.7859 20.1482 97.1951 19.6563C97.6043 19.1642 98.0904 18.7498 98.6531 18.4132C99.2157 18.0765 99.8297 17.8434 100.52 17.7399C100.623 17.7399 100.674 17.7139 100.674 17.6622C100.674 17.5845 100.674 17.5327 100.648 17.455C100.623 17.4032 100.623 17.3515 100.623 17.2996C100.623 17.222 100.648 17.1701 100.648 17.1443C100.674 17.1184 100.699 17.1184 100.725 17.1184C101.953 17.1184 102.976 17.2479 103.845 17.5327C104.689 17.8175 105.406 18.206 105.943 18.6722C106.48 19.1642 106.863 19.7339 107.119 20.3813C107.349 21.0287 107.477 21.7538 107.477 22.5048C107.477 23.4629 107.324 24.3175 106.991 25.0944C106.684 25.8454 106.224 26.4928 105.687 27.0108C105.124 27.5287 104.485 27.9431 103.743 28.2021C102.976 28.4869 102.183 28.6423 101.364 28.6423ZM99.5739 23.1781C99.5739 23.5148 99.5994 23.8774 99.6761 24.2139C99.753 24.5506 99.8809 24.8613 100.034 25.1463C100.213 25.4311 100.418 25.6383 100.699 25.8196C100.981 26.0008 101.313 26.0785 101.722 26.0785C102.004 26.0527 102.285 26.0008 102.49 25.8713C102.72 25.7418 102.899 25.5865 103.052 25.4053C103.206 25.2239 103.334 24.9908 103.462 24.7579C103.564 24.5248 103.641 24.2658 103.717 24.0068C103.769 23.7479 103.82 23.4889 103.845 23.2558C103.871 23.0227 103.871 22.7897 103.871 22.5826C103.871 22.2459 103.82 21.9092 103.717 21.5985C103.615 21.2618 103.462 21.0028 103.283 20.7438C103.104 20.4849 102.848 20.3037 102.566 20.1482C102.285 19.9928 101.953 19.9152 101.594 19.9152C101.211 19.9152 100.878 20.0187 100.623 20.2518C100.367 20.4849 100.162 20.7697 99.9831 21.1064C99.8297 21.4431 99.7018 21.8056 99.6506 22.1681C99.6251 22.5826 99.5739 22.8933 99.5739 23.1781Z" fill="white"/>
<path d="M116.662 28.4845C116.585 28.5104 116.508 28.5364 116.38 28.5881C116.278 28.6398 116.15 28.6398 116.048 28.6398C115.945 28.6398 115.869 28.614 115.818 28.5622C115.741 28.5104 115.715 28.4327 115.715 28.3291V28.2774C115.741 27.9407 115.792 27.6299 115.818 27.3969C115.843 27.1638 115.869 26.9307 115.894 26.7495C115.92 26.5423 115.945 26.3611 115.945 26.1538C115.971 25.9466 115.971 25.7395 115.997 25.4546C116.022 25.1956 116.048 24.8849 116.099 24.5223C116.125 24.1598 116.176 23.7196 116.227 23.1758C116.252 22.8391 116.278 22.5024 116.304 22.1658C116.329 21.8291 116.329 21.5184 116.329 21.2076C116.329 21.0264 116.304 20.845 116.278 20.6638C116.252 20.5085 116.201 20.353 116.124 20.2495C116.048 20.12 115.945 20.0423 115.818 19.9645C115.69 19.9128 115.536 19.8611 115.332 19.8611C115.178 19.8611 114.973 19.8869 114.718 19.9645C114.462 20.0423 114.206 20.1459 113.95 20.2754C113.695 20.4307 113.464 20.6119 113.26 20.8709C113.055 21.104 112.953 21.4148 112.927 21.7774C112.902 22.2434 112.851 22.6578 112.825 22.9945C112.799 23.3312 112.774 23.616 112.748 23.8491C112.723 24.0822 112.697 24.2893 112.697 24.4187C112.672 24.5742 112.672 24.7037 112.672 24.8072C112.672 24.8332 112.646 24.9108 112.646 25.0144C112.646 25.118 112.62 25.2734 112.595 25.4287C112.569 25.5841 112.569 25.7654 112.544 25.9466C112.518 26.128 112.518 26.3092 112.492 26.4645C112.467 26.62 112.467 26.7754 112.467 26.879C112.467 26.9825 112.441 27.0602 112.441 27.0861C112.441 27.1379 112.441 27.1897 112.441 27.2156C112.441 27.2414 112.441 27.2933 112.441 27.3192C112.441 27.3709 112.416 27.4228 112.365 27.4486C112.313 27.4745 112.211 27.5264 112.032 27.5781L109.5 28.4586C109.423 28.4845 109.346 28.5104 109.219 28.5622C109.116 28.5881 108.988 28.614 108.886 28.614C108.784 28.614 108.707 28.5881 108.656 28.5364C108.579 28.4845 108.554 28.4069 108.554 28.3033L109.423 18.3849C109.449 18.1777 109.474 18.0223 109.5 17.9446C109.525 17.867 109.602 17.8151 109.705 17.7893C110.293 17.6856 110.881 17.5562 111.495 17.4267C112.109 17.2972 112.697 17.1419 113.285 16.9606C113.337 16.9606 113.362 16.9606 113.388 16.9865C113.388 17.0124 113.413 17.0382 113.413 17.0642C113.413 17.0901 113.413 17.0901 113.413 17.116C113.413 17.1419 113.388 17.1937 113.388 17.2972C113.362 17.4008 113.362 17.5303 113.311 17.7116C113.285 17.8929 113.234 18.1518 113.183 18.4885C113.618 18.2296 114.027 18.0223 114.436 17.867C114.82 17.7116 115.178 17.5822 115.536 17.5044C115.869 17.4267 116.201 17.3491 116.508 17.3232C116.815 17.2972 117.096 17.2713 117.352 17.2713C118.247 17.2713 118.912 17.5562 119.322 18.1001C119.731 18.6439 119.936 19.4725 119.936 20.5861C119.936 20.7414 119.936 20.8969 119.936 21.0781C119.936 21.2335 119.91 21.4148 119.91 21.596L119.45 25.7913C119.424 26.0502 119.398 26.3092 119.398 26.5423C119.398 26.7754 119.398 27.0343 119.398 27.345C119.398 27.3969 119.398 27.4486 119.398 27.4745C119.398 27.5004 119.398 27.5523 119.398 27.5781C119.398 27.6299 119.373 27.6817 119.322 27.7076C119.27 27.7335 119.168 27.7853 118.989 27.8371L116.662 28.4845Z" fill="white"/>
<path d="M122.594 27.9921C122.466 27.9662 122.389 27.9145 122.338 27.8368C122.287 27.7592 122.261 27.6814 122.261 27.6037C122.261 27.5778 122.261 27.5778 122.261 27.5778V27.5519C122.312 26.8528 122.363 26.1277 122.44 25.3508C122.491 24.5739 122.568 23.797 122.645 23.02C122.722 22.2173 122.773 21.4404 122.85 20.6376C122.926 19.8607 122.977 19.0839 123.054 18.3329C123.028 18.3329 122.952 18.3587 122.85 18.3846C122.722 18.4363 122.594 18.4623 122.44 18.5141C122.287 18.5658 122.133 18.6177 121.98 18.6436C121.826 18.6694 121.698 18.6953 121.596 18.6953C121.519 18.6953 121.443 18.6694 121.417 18.5918C121.392 18.5141 121.366 18.4623 121.366 18.3846C121.366 18.3328 121.366 18.281 121.392 18.2292C121.571 17.7372 121.75 17.2451 121.929 16.805C122.108 16.3647 122.287 15.9245 122.491 15.4583C122.977 15.1993 123.489 14.9662 124 14.7592C124.512 14.5519 125.049 14.3966 125.586 14.2671C126.123 14.1376 126.661 14.034 127.172 13.9563C127.709 13.8787 128.221 13.8527 128.707 13.8527C129.397 13.8527 130.063 13.9304 130.676 14.0858C131.29 14.2412 131.828 14.4483 132.287 14.7592C132.748 15.0699 133.107 15.4324 133.362 15.8986C133.617 16.3647 133.771 16.8826 133.771 17.5041C133.771 17.7631 133.72 18.022 133.592 18.281C133.49 18.5141 133.336 18.773 133.157 18.9803C132.978 19.2133 132.773 19.4204 132.544 19.6018C132.313 19.783 132.109 19.9642 131.878 20.1197C132.186 20.3527 132.467 20.5599 132.696 20.7412C132.953 20.9225 133.157 21.1297 133.336 21.3109C133.516 21.5181 133.643 21.7252 133.72 21.9842C133.822 22.2431 133.848 22.5281 133.848 22.8905C133.848 23.4344 133.746 23.9524 133.566 24.4444C133.388 24.9363 133.131 25.4025 132.799 25.8168C132.467 26.2313 132.083 26.6197 131.623 26.9563C131.162 27.293 130.676 27.6037 130.164 27.8368C129.628 28.0699 129.09 28.2771 128.502 28.4065C127.914 28.536 127.326 28.6136 126.737 28.6136C126.533 28.6136 126.226 28.5878 125.868 28.536C125.51 28.4842 125.126 28.4324 124.717 28.3805C124.307 28.3288 123.924 28.2511 123.54 28.1735C123.182 28.1216 122.85 28.0698 122.594 27.9921ZM126.993 17.3488C126.865 18.0998 126.763 18.8766 126.686 19.6794C126.609 20.4563 126.533 21.2332 126.482 21.9583C126.43 22.7093 126.379 23.4084 126.328 24.056C126.277 24.7292 126.226 25.3249 126.2 25.8428C126.456 25.8428 126.737 25.8168 127.019 25.791C127.326 25.7651 127.607 25.7133 127.914 25.6356C128.195 25.5579 128.502 25.4803 128.784 25.3508C129.065 25.2472 129.296 25.0918 129.525 24.9363C129.729 24.781 129.909 24.5739 130.037 24.3408C130.164 24.1077 130.215 23.8487 130.215 23.5379C130.215 23.3567 130.164 23.2014 130.063 23.046C129.96 22.8905 129.806 22.787 129.654 22.6834C129.474 22.5798 129.296 22.5021 129.09 22.4245C128.885 22.3467 128.681 22.295 128.502 22.2691C128.298 22.2172 128.118 22.1914 127.965 22.1655C127.811 22.1396 127.684 22.1136 127.607 22.1136C127.505 22.1136 127.453 22.0619 127.428 22.0102C127.402 21.9583 127.402 21.9066 127.402 21.8288C127.402 21.7511 127.453 21.6216 127.556 21.4404C127.658 21.2592 127.786 21.0519 127.965 20.7412L128.375 20.0937C128.553 20.0161 128.732 19.9383 128.936 19.8607C129.142 19.7571 129.32 19.6535 129.5 19.524C129.679 19.3946 129.806 19.2651 129.934 19.1097C130.037 18.9544 130.114 18.773 130.114 18.5918C130.114 18.0739 130.011 17.6595 129.781 17.3746C129.551 17.0898 129.219 16.9603 128.809 16.9603C128.246 17.012 127.658 17.1157 126.993 17.3488Z" fill="white"/>
<path d="M145.43 26.9343C145.404 27.1414 145.38 27.2967 145.354 27.3745C145.329 27.4522 145.252 27.504 145.149 27.5298C144.612 27.6852 144.05 27.8407 143.435 27.996C142.848 28.1514 142.259 28.3586 141.722 28.6175C141.696 28.6175 141.67 28.6175 141.645 28.6175C141.593 28.6175 141.569 28.6175 141.543 28.5917C141.543 28.5657 141.518 28.5398 141.518 28.5139C141.518 28.5139 141.518 28.4881 141.518 28.4362C141.518 28.4103 141.518 28.3326 141.543 28.255C141.569 28.1772 141.569 28.0478 141.593 27.8924C141.619 27.7371 141.645 27.5298 141.696 27.2709C140.98 27.7371 140.34 28.0996 139.804 28.3067C139.241 28.5139 138.755 28.6434 138.32 28.6434C137.246 28.6434 136.479 28.3845 135.993 27.8665C135.507 27.3486 135.251 26.5717 135.251 25.5359C135.251 25.3545 135.251 25.1473 135.251 24.9661C135.251 24.7589 135.276 24.5777 135.301 24.3704C135.378 23.6196 135.43 22.9462 135.481 22.4024C135.532 21.8586 135.584 21.3924 135.609 21.004C135.635 20.6155 135.661 20.3047 135.685 20.0717C135.711 19.8386 135.736 19.6314 135.736 19.4761C135.762 19.3207 135.762 19.1912 135.762 19.0618C135.762 18.9582 135.788 18.8545 135.788 18.7509C135.813 18.5438 135.839 18.3884 135.865 18.3108C135.89 18.233 135.967 18.1813 136.07 18.1554C136.376 18.1035 136.657 18.0518 136.94 17.9999C137.22 17.9482 137.476 17.8964 137.732 17.8446C137.988 17.7928 138.268 17.741 138.551 17.6634C138.832 17.5856 139.113 17.508 139.42 17.4303C139.446 17.4303 139.446 17.4303 139.446 17.4303C139.472 17.4303 139.472 17.4303 139.472 17.4303C139.547 17.4303 139.573 17.4561 139.573 17.508V17.5339C139.547 17.767 139.522 17.9482 139.496 18.1554C139.472 18.3625 139.472 18.5438 139.446 18.7509C139.42 18.9582 139.395 19.1654 139.395 19.3983C139.369 19.6314 139.343 19.8904 139.318 20.2012C139.292 20.5119 139.241 20.8745 139.215 21.2629C139.164 21.6514 139.112 22.1175 139.061 22.6613C139.037 23.0498 138.986 23.4382 138.96 23.8267C138.934 24.2151 138.909 24.5777 138.909 24.8884C138.909 25.0697 138.934 25.2251 138.934 25.3804C138.96 25.5359 139.011 25.6654 139.061 25.7689C139.138 25.8725 139.215 25.9502 139.318 26.0278C139.42 26.0797 139.573 26.1055 139.727 26.1055C139.855 26.1055 140.034 26.0797 140.264 26.0019C140.494 25.9243 140.725 25.8207 140.955 25.6912C141.184 25.5359 141.389 25.3287 141.569 25.0956C141.747 24.8366 141.85 24.5259 141.876 24.1375C141.927 23.49 141.953 22.972 142.004 22.5319C142.028 22.0917 142.08 21.7291 142.105 21.4441C142.131 21.1593 142.156 20.9004 142.182 20.6933C142.208 20.486 142.208 20.3047 142.233 20.1235C142.259 19.9423 142.259 19.735 142.285 19.5278C142.31 19.3207 142.31 19.0618 142.31 18.7251C142.336 18.5178 142.362 18.3625 142.387 18.2849C142.413 18.2071 142.489 18.1554 142.591 18.1294C143.18 18.0259 143.768 17.8964 144.382 17.767C144.995 17.6375 145.584 17.482 146.173 17.3008C146.224 17.3008 146.248 17.3008 146.274 17.3267C146.274 17.3525 146.3 17.3785 146.3 17.4044L145.43 26.9343Z" fill="white"/>
<path d="M158.226 27.1403C158.226 27.1661 158.226 27.1661 158.226 27.192C158.226 27.2179 158.226 27.2179 158.226 27.2439C158.226 27.2698 158.226 27.2956 158.226 27.3215C158.226 27.3474 158.226 27.3474 158.226 27.3734C158.226 27.4251 158.2 27.4768 158.174 27.5028C158.123 27.5287 158.02 27.5805 157.842 27.6323L155.284 28.4868C155.207 28.5128 155.13 28.5387 155.002 28.5904C154.901 28.6163 154.772 28.6423 154.67 28.6423C154.567 28.6423 154.49 28.6163 154.44 28.5646C154.363 28.5128 154.338 28.4351 154.338 28.3056C154.338 28.202 154.338 28.0984 154.338 28.0208C154.338 27.943 154.338 27.8913 154.338 27.8135C154.338 27.7618 154.338 27.6841 154.363 27.6063C154.363 27.5287 154.389 27.451 154.389 27.3215C153.903 27.7099 153.417 28.0208 152.905 28.2539C152.393 28.4868 151.857 28.5904 151.294 28.5904C150.68 28.5904 150.143 28.4351 149.657 28.1502C149.171 27.8654 148.787 27.451 148.455 26.9589C148.123 26.467 147.892 25.8972 147.713 25.2498C147.534 24.6024 147.457 23.955 147.457 23.2557C147.457 22.3494 147.611 21.5466 147.892 20.7956C148.173 20.0446 148.582 19.4231 149.068 18.9052C149.554 18.3872 150.143 17.9729 150.807 17.6881C151.473 17.4031 152.189 17.2478 152.93 17.2478C153.34 17.2478 153.723 17.3514 154.081 17.5586C154.44 17.7657 154.798 18.0507 155.13 18.3872C155.156 18.0765 155.182 17.714 155.207 17.3514C155.233 16.9888 155.259 16.6004 155.284 16.212C155.31 15.8235 155.334 15.4351 155.36 15.0725C155.386 14.6841 155.411 14.3474 155.437 14.0367C155.437 13.9849 155.463 13.9331 155.488 13.9072C155.54 13.8813 155.642 13.8294 155.82 13.7777L158.507 13.1303C158.583 13.1044 158.66 13.0786 158.787 13.0526C158.89 13.0008 159.018 12.9749 159.121 12.9749C159.197 12.9749 159.274 13.0008 159.351 13.0267C159.428 13.0526 159.453 13.1303 159.453 13.2598C159.453 13.2598 159.453 13.3115 159.453 13.3375C159.453 13.3893 159.453 13.4151 159.453 13.4151L158.226 27.1403ZM154.875 22.6083C154.901 22.4013 154.925 22.194 154.925 21.9609C154.951 21.7279 154.976 21.4949 155.002 21.2618C154.849 20.8734 154.644 20.5625 154.389 20.3036C154.132 20.0705 153.774 19.941 153.391 19.941C153.007 19.941 152.649 20.0446 152.393 20.2777C152.112 20.5108 151.908 20.7956 151.728 21.1323C151.549 21.4689 151.448 21.8315 151.371 22.194C151.294 22.5566 151.268 22.8933 151.268 23.1781C151.268 23.5147 151.294 23.8773 151.319 24.214C151.371 24.5507 151.422 24.8614 151.524 25.1462C151.626 25.431 151.728 25.6383 151.882 25.8195C152.035 26.0008 152.215 26.0784 152.444 26.0784C153.007 26.0526 153.468 25.9231 153.826 25.69C154.184 25.457 154.466 25.1721 154.67 24.8096L154.875 22.6083Z" fill="white"/>
<path d="M170.983 27.1403C170.983 27.1661 170.983 27.1661 170.983 27.192C170.983 27.2179 170.983 27.2179 170.983 27.2439C170.983 27.2698 170.983 27.2956 170.983 27.3215C170.983 27.3474 170.983 27.3474 170.983 27.3734C170.983 27.4251 170.957 27.4768 170.932 27.5028C170.88 27.5287 170.778 27.5805 170.599 27.6323L168.041 28.4868C167.964 28.5128 167.888 28.5387 167.761 28.5904C167.658 28.6163 167.53 28.6423 167.427 28.6423C167.326 28.6423 167.249 28.6163 167.197 28.5646C167.12 28.5128 167.095 28.4351 167.095 28.3056C167.095 28.202 167.095 28.0984 167.095 28.0208C167.095 27.943 167.095 27.8913 167.095 27.8135C167.095 27.7618 167.095 27.6841 167.12 27.6063C167.12 27.5287 167.146 27.451 167.146 27.3215C166.66 27.7099 166.174 28.0208 165.663 28.2539C165.151 28.4868 164.614 28.5904 164.051 28.5904C163.438 28.5904 162.9 28.4351 162.414 28.1502C161.928 27.8654 161.544 27.451 161.212 26.9589C160.88 26.467 160.649 25.8972 160.471 25.2498C160.291 24.6024 160.214 23.955 160.214 23.2557C160.214 22.3494 160.368 21.5466 160.649 20.7956C160.931 20.0446 161.34 19.4231 161.826 18.9052C162.311 18.3872 162.9 17.9729 163.566 17.6881C164.23 17.4031 164.946 17.2478 165.688 17.2478C166.098 17.2478 166.482 17.3514 166.839 17.5586C167.197 17.7657 167.555 18.0507 167.888 18.3872C167.913 18.0765 167.939 17.714 167.964 17.3514C167.99 16.9888 168.016 16.6004 168.041 16.212C168.067 15.8235 168.093 15.4351 168.118 15.0725C168.144 14.6841 168.17 14.3474 168.195 14.0367C168.195 13.9849 168.22 13.9331 168.245 13.9072C168.297 13.8813 168.399 13.8294 168.579 13.7777L171.264 13.1303C171.341 13.1044 171.418 13.0786 171.546 13.0526C171.647 13.0008 171.776 12.9749 171.878 12.9749C171.955 12.9749 172.031 13.0008 172.108 13.0267C172.185 13.0526 172.21 13.1303 172.21 13.2598C172.21 13.2598 172.21 13.3115 172.21 13.3375C172.21 13.3893 172.21 13.4151 172.21 13.4151L170.983 27.1403ZM167.658 22.6083C167.684 22.4013 167.709 22.194 167.709 21.9609C167.735 21.7279 167.761 21.4949 167.786 21.2618C167.632 20.8734 167.427 20.5625 167.172 20.3036C166.916 20.0705 166.557 19.941 166.174 19.941C165.79 19.941 165.432 20.0446 165.177 20.2777C164.895 20.5108 164.691 20.7956 164.511 21.1323C164.333 21.4689 164.23 21.8315 164.153 22.194C164.076 22.5566 164.051 22.8933 164.051 23.1781C164.051 23.5147 164.076 23.8773 164.102 24.214C164.153 24.5507 164.205 24.8614 164.307 25.1462C164.41 25.431 164.511 25.6383 164.665 25.8195C164.819 26.0008 164.997 26.0784 165.228 26.0784C165.79 26.0526 166.251 25.9231 166.609 25.69C166.966 25.457 167.249 25.1721 167.453 24.8096L167.658 22.6083Z" fill="white"/>
<path d="M177.125 32.5537C177.099 32.5796 177.099 32.6054 177.073 32.6054C177.049 32.6313 177.023 32.6313 176.998 32.6313C176.972 32.6313 176.921 32.6313 176.921 32.6313C176.69 32.5537 176.486 32.476 176.281 32.4242C176.077 32.3723 175.871 32.3206 175.667 32.2687C175.462 32.217 175.258 32.1653 175.053 32.1393C174.849 32.0875 174.618 32.0616 174.388 32.0098C174.337 31.9839 174.286 31.9839 174.235 31.958C174.209 31.9322 174.183 31.8803 174.183 31.8027C174.183 31.7768 174.183 31.7249 174.209 31.6732C174.235 31.5955 174.286 31.4401 174.388 31.207C174.491 30.9739 174.618 30.6374 174.798 30.1971C174.976 29.7569 175.233 29.1612 175.565 28.4361C175.462 28.0995 175.361 27.7111 175.233 27.2708C175.104 26.8306 174.976 26.3127 174.849 25.7947C174.721 25.2508 174.567 24.6812 174.414 24.0855C174.26 23.49 174.106 22.8943 173.979 22.2728C173.825 21.6512 173.673 21.0557 173.519 20.4601C173.365 19.8644 173.212 19.2947 173.084 18.7508C173.033 18.6473 173.007 18.5696 173.007 18.4919C173.007 18.4142 173.007 18.3624 173.007 18.3106C173.007 18.2329 173.058 18.1553 173.161 18.1294C173.647 18.0258 174.183 17.8963 174.721 17.7927C175.258 17.6632 175.77 17.5079 176.255 17.3265C176.281 17.3265 176.306 17.3265 176.332 17.3265C176.409 17.3265 176.46 17.3524 176.46 17.4301L177.636 23.956C177.662 23.8784 177.713 23.7489 177.79 23.5417C177.867 23.3345 177.943 23.1015 178.046 22.8166C178.148 22.5317 178.251 22.221 178.378 21.8843C178.506 21.5476 178.634 21.1852 178.761 20.8485C178.89 20.4859 179.018 20.1492 179.146 19.7868C179.273 19.4242 179.376 19.1134 179.504 18.8027C179.605 18.4919 179.708 18.2329 179.785 17.9999C179.862 17.7668 179.939 17.5855 179.965 17.4819C179.99 17.4043 180.04 17.3784 180.117 17.3784C180.143 17.3784 180.143 17.3784 180.143 17.3784H180.169C180.655 17.5596 181.141 17.715 181.653 17.8445C182.163 17.9739 182.649 18.0775 183.161 18.1812C183.29 18.207 183.341 18.2848 183.341 18.3884C183.341 18.466 183.315 18.5955 183.238 18.7768L179.299 27.8147L177.125 32.5537Z" fill="white"/>
<path d="M9.40961 20.1224C10.2792 21.7022 11.2 23.3596 11.3024 23.5408C11.4814 23.8516 11.6349 24.1106 11.7627 24.3177C11.7883 24.3695 11.8139 24.3954 11.8651 24.4213C11.9162 24.4471 11.9418 24.4731 11.9929 24.4731C12.0441 24.4731 12.0953 24.4731 12.1464 24.4471C12.172 24.4471 12.1976 24.4213 12.1976 24.4213C12.2231 24.4213 12.2231 24.3954 12.2487 24.3954C12.6324 24.1364 12.9904 23.9292 13.3486 23.748C13.7066 23.5408 14.0647 23.3854 14.4229 23.2042C14.4739 23.1782 14.5506 23.1523 14.5763 23.1006C14.6275 23.0487 14.6785 22.997 14.7297 22.9193C14.7554 22.8675 14.7809 22.7898 14.8064 22.7122C14.8321 22.6344 14.8321 22.5567 14.8576 22.4532L17.5688 8.33961C17.5944 8.15834 17.5944 8.02886 17.5688 7.92527C17.5177 7.744 17.3642 7.61451 17.1596 7.61451C16.955 7.61451 16.6736 7.64042 16.3923 7.66631C16.0853 7.69221 15.7528 7.71811 15.5482 7.744C15.318 7.744 14.9343 7.66631 14.6018 7.61451C14.3972 7.56272 14.1926 7.53682 14.0392 7.51093C14.0136 7.51093 14.0136 7.51093 13.988 7.51093C13.9624 7.51093 13.9113 7.51093 13.9113 7.51093C13.7578 7.53682 13.6555 7.66631 13.6555 7.79579L13.6044 8.23603C13.5787 8.33961 13.2462 11.7838 12.9137 15.0986C12.7347 16.7818 12.5812 18.4133 12.4789 19.3456L10.6118 15.3317C10.5606 15.2022 10.4327 15.0986 10.2281 15.1503C10.1769 15.1763 10.1258 15.1763 10.1002 15.2022C9.7677 15.4353 9.40961 15.6424 9.05153 15.8496L7.92612 16.4193C7.77265 16.497 7.69591 16.6782 7.72149 16.8337C7.74707 16.9113 7.79823 17.0408 7.90054 17.1961C7.95169 17.4292 8.66786 18.724 9.40961 20.1224Z" fill="#7678FF"/>
<path d="M21.5144 18.54C22.1027 19.7312 22.5887 20.7153 22.6399 20.8189C22.7933 21.1555 22.9468 21.4144 23.0491 21.6216C23.0747 21.6734 23.1003 21.6994 23.1514 21.7511C23.2025 21.777 23.2537 21.8029 23.3049 21.8029C23.356 21.8029 23.3816 21.8029 23.4327 21.8029C23.4583 21.8029 23.4839 21.8028 23.4839 21.777C23.5095 21.777 23.5095 21.777 23.5351 21.7511C23.9188 21.5439 24.3023 21.3368 24.6605 21.1814C25.0186 21.026 25.4022 20.8706 25.7603 20.7153C25.837 20.6894 25.8882 20.6635 25.9137 20.6375C25.9649 20.5858 26.0416 20.534 26.0673 20.4563C26.0928 20.4046 26.1185 20.3268 26.144 20.2491C26.1695 20.1715 26.1952 20.0937 26.2207 19.9901L29.9039 6.10968C29.9551 5.92841 29.9551 5.79893 29.9551 5.69534C29.9294 5.48817 29.776 5.38459 29.5714 5.35869C29.1365 5.3328 26.8346 5.09972 26.3998 5.02203C26.3741 5.02203 26.3231 5.02203 26.3231 5.02203C26.1695 5.04793 26.0673 5.15151 26.0416 5.30689L25.9649 5.74713C25.9394 5.85072 25.2999 9.6057 24.7372 12.8945C24.4559 14.5001 24.2001 15.9762 24.0722 16.8049L21.9492 11.8587C21.9237 11.7292 21.7702 11.5997 21.5656 11.6256C21.5144 11.6256 21.4633 11.6515 21.4121 11.6774C21.0797 11.8846 20.696 12.0659 20.3123 12.2471L19.1358 12.7392C18.9567 12.8169 18.88 12.9722 18.9055 13.1536C18.9312 13.257 18.9567 13.3607 19.0591 13.542C19.2125 13.8268 20.5169 16.52 21.5144 18.54Z" fill="#7678FF"/>
<path d="M36.5505 15.9279C36.5505 15.7466 36.4738 15.5653 36.3459 15.4617C36.2181 15.3322 36.0646 15.2805 35.8856 15.2805L33.4558 15.3063C33.1231 15.3063 32.8418 15.5912 32.8418 15.9537C32.8674 21.3403 30.0027 25.8979 25.0407 28.4617C19.2346 31.4398 15.0398 31.0255 12.5333 30.145C9.84762 29.2127 7.69911 27.2705 6.54811 24.7068C6.47138 24.5514 6.34349 24.4219 6.19003 24.3701C6.03656 24.3183 5.88309 24.3183 5.72964 24.3961L3.52996 25.4319C3.37649 25.5095 3.24861 25.639 3.19746 25.7945C3.1463 25.9498 3.1463 26.1569 3.22304 26.3124C4.1694 28.3582 7.11082 32.2426 11.9706 33.9777C13.1983 34.4179 14.4516 34.6768 15.756 34.7805C18.9021 35.0394 22.2528 34.2884 25.7569 32.5793C32.2024 29.4458 36.525 22.7387 36.5505 15.9279Z" fill="#7678FF"/>
</svg>
