<svg width="121" height="20" viewBox="0 0 121 20" fill="none" xmlns="http://www.w3.org/2000/svg">
<path d="M9.10547 1.88281C9.52734 1.03906 10.7227 1.07422 11.1094 1.88281L13.4297 6.55859L18.5625 7.29688C19.4766 7.4375 19.8281 8.5625 19.1602 9.23047L15.4688 12.8516L16.3477 17.9492C16.4883 18.8633 15.5039 19.5664 14.6953 19.1445L10.125 16.7188L5.51953 19.1445C4.71094 19.5664 3.72656 18.8633 3.86719 17.9492L4.74609 12.8516L1.05469 9.23047C0.386719 8.5625 0.738281 7.4375 1.65234 7.29688L6.82031 6.55859L9.10547 1.88281Z" fill="#EAB308"/>
<path d="M34.1055 1.88281C34.5273 1.03906 35.7227 1.07422 36.1094 1.88281L38.4297 6.55859L43.5625 7.29688C44.4766 7.4375 44.8281 8.5625 44.1602 9.23047L40.4688 12.8516L41.3477 17.9492C41.4883 18.8633 40.5039 19.5664 39.6953 19.1445L35.125 16.7188L30.5195 19.1445C29.7109 19.5664 28.7266 18.8633 28.8672 17.9492L29.7461 12.8516L26.0547 9.23047C25.3867 8.5625 25.7383 7.4375 26.6523 7.29688L31.8203 6.55859L34.1055 1.88281Z" fill="#EAB308"/>
<path d="M59.1055 1.88281C59.5273 1.03906 60.7227 1.07422 61.1094 1.88281L63.4297 6.55859L68.5625 7.29688C69.4766 7.4375 69.8281 8.5625 69.1602 9.23047L65.4688 12.8516L66.3477 17.9492C66.4883 18.8633 65.5039 19.5664 64.6953 19.1445L60.125 16.7188L55.5195 19.1445C54.7109 19.5664 53.7266 18.8633 53.8672 17.9492L54.7461 12.8516L51.0547 9.23047C50.3867 8.5625 50.7383 7.4375 51.6523 7.29688L56.8203 6.55859L59.1055 1.88281Z" fill="#EAB308"/>
<path d="M84.1055 1.88281C84.5273 1.03906 85.7227 1.07422 86.1094 1.88281L88.4297 6.55859L93.5625 7.29688C94.4766 7.4375 94.8281 8.5625 94.1602 9.23047L90.4688 12.8516L91.3477 17.9492C91.4883 18.8633 90.5039 19.5664 89.6953 19.1445L85.125 16.7188L80.5195 19.1445C79.7109 19.5664 78.7266 18.8633 78.8672 17.9492L79.7461 12.8516L76.0547 9.23047C75.3867 8.5625 75.7383 7.4375 76.6523 7.29688L81.8203 6.55859L84.1055 1.88281Z" fill="#EAB308"/>
<path d="M109.105 1.88281C109.527 1.03906 110.723 1.07422 111.109 1.88281L113.43 6.55859L118.562 7.29688C119.477 7.4375 119.828 8.5625 119.16 9.23047L115.469 12.8516L116.348 17.9492C116.488 18.8633 115.504 19.5664 114.695 19.1445L110.125 16.7188L105.52 19.1445C104.711 19.5664 103.727 18.8633 103.867 17.9492L104.746 12.8516L101.055 9.23047C100.387 8.5625 100.738 7.4375 101.652 7.29688L106.82 6.55859L109.105 1.88281Z" fill="#EAB308"/>
</svg>
