<svg width="1320" height="126" viewBox="0 0 1320 126" fill="none" xmlns="http://www.w3.org/2000/svg">
<g opacity="0.05">
<path d="M0 268.601V3.62275H94.2051C114.681 3.62275 131.672 7.15924 145.179 14.2322C158.772 21.3052 168.924 31.0953 175.634 43.6024C182.345 56.0232 185.7 70.3848 185.7 86.6872C185.7 102.903 182.302 117.179 175.505 129.513C168.795 141.762 158.643 151.293 145.05 158.107C131.543 164.921 114.552 168.328 94.076 168.328H22.7125V133.912H90.4627C103.367 133.912 113.863 132.058 121.95 128.349C130.123 124.64 136.103 119.249 139.888 112.176C143.673 105.103 145.566 96.6066 145.566 86.6872C145.566 76.6815 143.63 68.0128 139.759 60.681C135.974 53.3493 129.994 47.7427 121.821 43.8611C113.734 39.8934 103.109 37.9095 89.9465 37.9095H39.8758V268.601H0ZM130.468 149.05L195.766 268.601H150.341L86.3331 149.05H130.468Z" fill="white"/>
<path d="M404.178 3.62275H444.183V177.903C444.183 196.448 439.839 212.88 431.149 227.198C422.46 241.43 410.244 252.644 394.5 260.838C378.756 268.946 360.302 273 339.138 273C318.06 273 299.65 268.946 283.906 260.838C268.162 252.644 255.945 241.43 247.256 227.198C238.567 212.88 234.222 196.448 234.222 177.903V3.62275H274.098V174.668C274.098 186.658 276.722 197.31 281.97 206.626C287.304 215.942 294.832 223.273 304.553 228.621C314.275 233.883 325.803 236.514 339.138 236.514C352.559 236.514 364.131 233.883 373.852 228.621C383.66 223.273 391.145 215.942 396.306 206.626C401.554 197.31 404.178 186.658 404.178 174.668V3.62275Z" fill="white"/>
<path d="M502.158 268.601V3.62275H598.944C617.699 3.62275 633.228 6.72796 645.53 12.9384C657.833 19.0626 667.039 27.3863 673.147 37.9095C679.255 48.3464 682.309 60.1204 682.309 73.2313C682.309 84.272 680.287 93.5877 676.244 101.178C672.2 108.682 666.78 114.72 659.984 119.292C653.273 123.777 645.875 127.055 637.788 129.125V131.713C646.563 132.144 655.123 134.991 663.468 140.252C671.899 145.427 678.868 152.802 684.374 162.377C689.88 171.951 692.633 183.596 692.633 197.31C692.633 210.853 689.45 223.015 683.083 233.797C676.803 244.492 667.082 252.989 653.919 259.285C640.756 265.496 623.936 268.601 603.461 268.601H502.158ZM542.034 234.314H599.589C618.688 234.314 632.368 230.605 640.627 223.187C648.886 215.769 653.015 206.497 653.015 195.37C653.015 187.003 650.908 179.326 646.692 172.339C642.476 165.353 636.454 159.789 628.625 155.649C620.882 151.509 611.677 149.438 601.009 149.438H542.034V234.314ZM542.034 118.257H595.46C604.407 118.257 612.451 116.532 619.592 113.082C626.819 109.631 632.54 104.801 636.755 98.5905C641.057 92.2938 643.208 84.8758 643.208 76.3365C643.208 65.382 639.379 56.1957 631.722 48.7777C624.065 41.3597 612.322 37.6507 596.492 37.6507H542.034V118.257Z" fill="white"/>
<path d="M719.539 3.62275H764.835L833.876 124.079H836.715L905.756 3.62275H951.052L855.169 164.576V268.601H815.422V164.576L719.539 3.62275Z" fill="white"/>
<path d="M1219.57 99.6256H1155.04C1154.18 92.9839 1152.42 86.9891 1149.75 81.6412C1147.09 76.2934 1143.56 71.7218 1139.17 67.9265C1134.78 64.1313 1129.58 61.2417 1123.56 59.2578C1117.62 57.1877 1111.04 56.1526 1103.81 56.1526C1090.99 56.1526 1079.94 59.3009 1070.65 65.5976C1061.44 71.8943 1054.34 80.9943 1049.35 92.8976C1044.45 104.801 1042 119.206 1042 136.112C1042 153.708 1044.49 168.458 1049.48 180.361C1054.56 192.178 1061.66 201.106 1070.78 207.144C1079.98 213.095 1090.86 216.071 1103.43 216.071C1110.48 216.071 1116.89 215.165 1122.65 213.354C1128.5 211.543 1133.62 208.912 1138.01 205.462C1142.48 201.925 1146.14 197.655 1148.98 192.653C1151.9 187.563 1153.93 181.827 1155.04 175.445L1219.57 175.833C1218.45 187.563 1215.05 199.122 1209.37 210.508C1203.78 221.893 1196.08 232.287 1186.27 241.689C1176.47 251.005 1164.51 258.423 1150.4 263.943C1136.38 269.464 1120.29 272.224 1102.13 272.224C1078.22 272.224 1056.8 266.962 1037.87 256.439C1019.03 245.829 1004.14 230.39 993.218 210.119C982.292 189.849 976.829 165.18 976.829 136.112C976.829 106.957 982.378 82.245 993.476 61.9749C1004.57 41.7047 1019.59 26.3081 1038.51 15.7848C1057.44 5.26161 1078.65 0 1102.13 0C1118.14 0 1132.93 2.24266 1146.53 6.72797C1160.12 11.127 1172.08 17.5962 1182.4 26.1355C1192.73 34.5886 1201.11 44.9825 1207.57 57.3171C1214.02 69.6517 1218.02 83.7545 1219.57 99.6256Z" fill="white"/>
<path d="M1320 3.62275V268.601H1256.12V3.62275H1320Z" fill="white"/>
</g>
</svg>
