<svg width="20" height="15" viewBox="0 0 20 15" fill="none" xmlns="http://www.w3.org/2000/svg">
<path d="M0 1.28906C0 0.507812 0.585938 0 1.25 0C1.52344 0 1.79688 0.117188 2.03125 0.3125L8.75 6.40625V1.28906C8.75 0.507812 9.33594 0 10 0C10.2734 0 10.5469 0.117188 10.8203 0.351562L17.5 6.44531V0.976562C17.5 0.46875 17.9297 0.0390625 18.4375 0.0390625C18.9453 0.0390625 19.375 0.429688 19.375 0.976562V14.0625C19.375 14.6094 18.9453 15 18.4375 15C17.8906 15 17.5 14.6094 17.5 14.0625V8.67188L10.7812 14.7266C10.5469 14.9219 10.2734 15 10 15C9.33594 15 8.75 14.5312 8.75 13.75V8.67188L2.03125 14.7266C1.79688 14.9219 1.52344 15 1.25 15C0.585938 15 0 14.5312 0 13.75V1.28906ZM10.625 2.69531V12.3438L15.9375 7.53906L10.625 2.69531ZM1.875 2.69531V12.3438L7.1875 7.53906L1.875 2.69531Z" fill="#818CF8"/>
</svg>
