<svg width="16" height="16" viewBox="0 0 16 16" fill="none" xmlns="http://www.w3.org/2000/svg">
<path d="M5.15625 12.4375C5.15625 12.5 5.09375 12.5312 5 12.5312C4.90625 12.5625 4.84375 12.5 4.84375 12.4375C4.84375 12.375 4.90625 12.3125 5 12.3125C5.09375 12.3125 5.15625 12.375 5.15625 12.4375ZM4.1875 12.2812C4.21875 12.2188 4.3125 12.1875 4.40625 12.2188C4.5 12.25 4.53125 12.3125 4.53125 12.375C4.5 12.4375 4.40625 12.4688 4.34375 12.4375C4.25 12.4375 4.1875 12.3438 4.1875 12.2812ZM5.59375 12.25C5.65625 12.2188 5.75 12.2812 5.75 12.3438C5.78125 12.4062 5.71875 12.4375 5.625 12.4688C5.53125 12.5 5.4375 12.4688 5.4375 12.4062C5.4375 12.3125 5.5 12.25 5.59375 12.25ZM7.625 0.25C11.9688 0.25 15.5 3.5625 15.5 7.875C15.5 11.3438 13.375 14.3125 10.25 15.3438C9.84375 15.4375 9.6875 15.1875 9.6875 14.9688C9.6875 14.7188 9.71875 13.4062 9.71875 12.375C9.71875 11.625 9.46875 11.1562 9.1875 10.9062C10.9375 10.7188 12.7812 10.4688 12.7812 7.46875C12.7812 6.59375 12.4688 6.1875 11.9688 5.625C12.0312 5.40625 12.3125 4.59375 11.875 3.5C11.2188 3.28125 9.71875 4.34375 9.71875 4.34375C9.09375 4.15625 8.4375 4.09375 7.75 4.09375C7.09375 4.09375 6.4375 4.15625 5.8125 4.34375C5.8125 4.34375 4.28125 3.3125 3.65625 3.5C3.21875 4.59375 3.46875 5.40625 3.5625 5.625C3.0625 6.1875 2.8125 6.59375 2.8125 7.46875C2.8125 10.4688 4.59375 10.7188 6.34375 10.9062C6.09375 11.125 5.90625 11.4688 5.84375 11.9688C5.375 12.1875 4.25 12.5312 3.5625 11.3125C3.125 10.5625 2.34375 10.5 2.34375 10.5C1.59375 10.5 2.3125 11 2.3125 11C2.8125 11.2188 3.15625 12.125 3.15625 12.125C3.625 13.5312 5.8125 13.0625 5.8125 13.0625C5.8125 13.7188 5.8125 14.7812 5.8125 15C5.8125 15.1875 5.6875 15.4375 5.28125 15.375C2.15625 14.3125 0 11.3438 0 7.875C0 3.5625 3.3125 0.25 7.625 0.25ZM3.03125 11.0312C3.0625 11 3.125 11.0312 3.1875 11.0625C3.25 11.125 3.25 11.2188 3.21875 11.25C3.15625 11.2812 3.09375 11.25 3.03125 11.2188C3 11.1562 2.96875 11.0625 3.03125 11.0312ZM2.6875 10.7812C2.71875 10.75 2.75 10.75 2.8125 10.7812C2.875 10.8125 2.90625 10.8438 2.90625 10.875C2.875 10.9375 2.8125 10.9375 2.75 10.9062C2.6875 10.875 2.65625 10.8438 2.6875 10.7812ZM3.6875 11.9062C3.75 11.8438 3.84375 11.875 3.90625 11.9375C3.96875 12 3.96875 12.0938 3.9375 12.125C3.90625 12.1875 3.8125 12.1562 3.75 12.0938C3.65625 12.0312 3.65625 11.9375 3.6875 11.9062ZM3.34375 11.4375C3.40625 11.4062 3.46875 11.4375 3.53125 11.5C3.5625 11.5625 3.5625 11.6562 3.53125 11.6875C3.46875 11.7188 3.40625 11.6875 3.34375 11.625C3.28125 11.5625 3.28125 11.4688 3.34375 11.4375Z" fill="white"/>
</svg>
