<svg width="123" height="37" viewBox="0 0 123 37" fill="none" xmlns="http://www.w3.org/2000/svg">
<mask id="mask0_4_105" style="mask-type:luminance" maskUnits="userSpaceOnUse" x="0" y="4" width="123" height="29">
<path d="M123 4.0213H0V32.9778H123V4.0213Z" fill="white"/>
</mask>
<g mask="url(#mask0_4_105)">
<path d="M36.6724 27.2358V8.34137H41.2234V15.8991H50.6286V8.34137H55.1795V27.2358H50.6286V20.1316H41.2234V27.2358H36.6724Z" fill="white"/>
<path d="M58.2228 21.1871V11.8154H62.4704V20.5824C62.4704 21.7111 62.7434 22.5778 63.2895 23.1823C63.8559 23.7668 64.6447 24.0591 65.6561 24.0591C66.6674 24.0591 67.5269 23.6762 68.2349 22.9103C68.9429 22.1445 69.2967 21.1669 69.2967 19.9779V11.8154H73.5442V27.2333H69.2967V25.1172H69.1451C68.9023 25.5807 68.5282 26.014 68.0226 26.4171C66.9303 27.2636 65.6863 27.6868 64.2908 27.6868C62.3692 27.6868 60.8724 27.1325 59.8005 26.0241C58.7486 24.9157 58.2228 23.3033 58.2228 21.1871Z" fill="white"/>
<path d="M75.2162 22.2447H79.6157C79.757 22.6075 79.9791 22.94 80.2831 23.2423C80.9299 23.8872 81.8203 24.2098 82.9526 24.2098C84.6722 24.2098 85.5316 23.7059 85.5316 22.6982C85.5316 22.537 85.4911 22.3958 85.4102 22.2749C85.3292 22.1338 85.188 22.0129 84.9856 21.9122C84.7833 21.7913 84.5912 21.6905 84.4087 21.6098C84.227 21.5292 83.9541 21.4486 83.5898 21.368C83.2461 21.2672 82.9629 21.1966 82.7407 21.1563C82.5383 21.1162 82.2043 21.0456 81.7392 20.9448C81.2941 20.8439 80.9703 20.7734 80.7679 20.7332C77.5725 20.0479 75.9746 18.486 75.9746 16.0473C75.9746 14.7574 76.5511 13.6591 77.704 12.7521C78.8771 11.825 80.4751 11.3615 82.4979 11.3615C85.2078 11.3615 87.2409 12.1979 88.5955 13.8706C89.1828 14.5962 89.5772 15.4225 89.7795 16.3496H85.5316C85.3904 16.0473 85.2078 15.7954 84.9856 15.5939C84.3587 15.09 83.5294 14.838 82.4979 14.838C81.7694 14.838 81.2337 14.959 80.8893 15.2008C80.5457 15.4225 80.3735 15.7046 80.3735 16.0473C80.3735 16.1682 80.3942 16.2891 80.4346 16.4102C80.495 16.5108 80.5862 16.6115 80.7077 16.7124C80.829 16.7931 80.9504 16.8736 81.0719 16.9542C81.1933 17.0147 81.3648 17.0853 81.5877 17.1659C81.8099 17.2264 82.0019 17.2868 82.1637 17.3472C82.3463 17.4077 82.5788 17.4681 82.8613 17.5286C83.1446 17.5891 83.3874 17.6395 83.5898 17.6798C83.7921 17.7201 84.0548 17.7806 84.3787 17.8612C84.7023 17.9216 84.965 17.9721 85.1674 18.0124C88.3431 18.7176 89.931 20.2797 89.931 22.6982C89.931 24.0485 89.3041 25.2175 88.0495 26.205C86.7958 27.1925 85.0967 27.6863 82.9526 27.6863C80.0808 27.6863 77.9568 26.7794 76.5815 24.9655C75.9543 24.1392 75.4992 23.2323 75.2162 22.2447Z" fill="white"/>
<path d="M91.7644 27.2358V8.34137H96.0123V17.5619H97.8327L101.928 11.8179H106.631L101.625 18.9222L107.086 27.2358H102.231L98.2874 21.1896H96.0123V27.2358H91.7644Z" fill="white"/>
<path d="M106.619 11.8154H111.018L114.052 23.6056H115.266L118.603 11.8154H123.002L116.782 32.9773H112.384L114.052 27.2333H110.715L106.619 11.8154Z" fill="white"/>
<path d="M9.07524 4.45234C9.07524 4.45234 8.64308 4.02129 7.99491 4.0213C7.15619 4.0213 6.53644 4.5768 5.96428 5.47417C2.46536 11.0079 -0.0218609 22.9656 0.000144868 22.9869L14.261 9.40931L9.07524 4.45234Z" fill="#FFB668"/>
<path d="M19.4481 4.45234C19.4481 4.45234 19.8803 4.0213 20.5286 4.0213C21.3672 4.0213 21.9869 4.5768 22.5591 5.47417C26.058 11.0079 28.5452 22.9656 28.5232 22.9869L14.2623 9.40931L19.4481 4.45234Z" fill="#FF8400"/>
<path d="M14.262 9.41022L0.00118024 22.9879C-0.106841 23.6345 7.22507 29.544 11.7197 31.8291C12.4368 32.1907 13.4611 32.464 14.262 32.4706C15.0684 32.4774 16.0935 32.2147 16.8044 31.8291C21.2991 29.544 28.6309 23.6345 28.5229 22.9879L14.262 9.41022Z" fill="#FF8400"/>
</g>
</svg>
