<svg width="119" height="32" viewBox="0 0 119 32" fill="none" xmlns="http://www.w3.org/2000/svg">
<path d="M9.14062 6.73438C9.6875 6.53906 10.2734 6.53906 10.8203 6.73438L18.3203 9.42969C19.2969 9.78125 20 10.7188 20 11.7734V21.2656C20 22.3203 19.2969 23.2578 18.3203 23.6094L10.8203 26.3047C10.2734 26.5 9.6875 26.5 9.14062 26.3047L1.64062 23.6094C0.664062 23.2578 0 22.3203 0 21.2656V11.7734C0 10.7188 0.664062 9.78125 1.64062 9.42969L9.14062 6.73438ZM10 9.07812L3.20312 11.5L10 13.9219L16.7578 11.5L10 9.07812ZM11.25 23.4922L17.5 21.2656V13.9219L11.25 16.1484V23.4922Z" fill="#3B82F6"/>
<path d="M29.9176 25V7.54545H36.1392C37.4915 7.54545 38.6136 7.77841 39.5057 8.24432C40.4034 8.71023 41.0739 9.35511 41.517 10.179C41.9602 10.9972 42.1818 11.9432 42.1818 13.017C42.1818 14.0852 41.9574 15.0256 41.5085 15.8381C41.0653 16.6449 40.3949 17.2727 39.4972 17.7216C38.6051 18.1705 37.483 18.3949 36.1307 18.3949H31.4176V16.1278H35.892C36.7443 16.1278 37.4375 16.0057 37.9716 15.7614C38.5114 15.517 38.9062 15.1619 39.1562 14.696C39.4062 14.2301 39.5312 13.6705 39.5312 13.017C39.5312 12.358 39.4034 11.7869 39.1477 11.304C38.8977 10.821 38.5028 10.4517 37.9631 10.196C37.429 9.93466 36.7273 9.80398 35.858 9.80398H32.5511V25H29.9176ZM38.5341 17.125L42.8466 25H39.8466L35.6193 17.125H38.5341ZM56.6108 7.54545H59.2528V19.0256C59.2528 20.2472 58.9659 21.3295 58.392 22.2727C57.8182 23.2102 57.0114 23.9489 55.9716 24.4886C54.9318 25.0227 53.7131 25.2898 52.3153 25.2898C50.9233 25.2898 49.7074 25.0227 48.6676 24.4886C47.6278 23.9489 46.821 23.2102 46.2472 22.2727C45.6733 21.3295 45.3864 20.2472 45.3864 19.0256V7.54545H48.0199V18.8125C48.0199 19.6023 48.1932 20.304 48.5398 20.9176C48.892 21.5312 49.3892 22.0142 50.0312 22.3665C50.6733 22.7131 51.4347 22.8864 52.3153 22.8864C53.2017 22.8864 53.9659 22.7131 54.608 22.3665C55.2557 22.0142 55.75 21.5312 56.0909 20.9176C56.4375 20.304 56.6108 19.6023 56.6108 18.8125V7.54545ZM63.0817 25V7.54545H69.4737C70.7124 7.54545 71.7379 7.75 72.5504 8.15909C73.3629 8.5625 73.9709 9.1108 74.3743 9.80398C74.7777 10.4915 74.9794 11.267 74.9794 12.1307C74.9794 12.858 74.8459 13.4716 74.5788 13.9716C74.3118 14.4659 73.9538 14.8636 73.505 15.1648C73.0618 15.4602 72.5732 15.6761 72.0391 15.8125V15.983C72.6186 16.0114 73.1839 16.1989 73.7351 16.5455C74.2919 16.8864 74.7521 17.3722 75.1158 18.0028C75.4794 18.6335 75.6612 19.4006 75.6612 20.304C75.6612 21.196 75.451 21.9972 75.0305 22.7074C74.6158 23.4119 73.9737 23.9716 73.1044 24.3864C72.2351 24.7955 71.1243 25 69.772 25H63.0817ZM65.7152 22.7415H69.5163C70.7777 22.7415 71.6811 22.4972 72.2266 22.0085C72.772 21.5199 73.0447 20.9091 73.0447 20.1761C73.0447 19.625 72.9055 19.1193 72.6271 18.6591C72.3487 18.1989 71.951 17.8324 71.4339 17.5597C70.9226 17.2869 70.3146 17.1506 69.6101 17.1506H65.7152V22.7415ZM65.7152 15.0966H69.2436C69.8345 15.0966 70.3658 14.983 70.8374 14.7557C71.3146 14.5284 71.6925 14.2102 71.9709 13.8011C72.255 13.3864 72.397 12.8977 72.397 12.3352C72.397 11.6136 72.1442 11.0085 71.6385 10.5199C71.1328 10.0312 70.3572 9.78693 69.3118 9.78693H65.7152V15.0966ZM77.4382 7.54545H80.4297L84.9893 15.4801H85.1768L89.7365 7.54545H92.728L86.3956 18.1477V25H83.7706V18.1477L77.4382 7.54545ZM110.462 13.8693H106.2C106.143 13.4318 106.027 13.0369 105.851 12.6847C105.675 12.3324 105.442 12.0312 105.152 11.7812C104.862 11.5312 104.518 11.3409 104.121 11.2102C103.729 11.0739 103.294 11.0057 102.817 11.0057C101.97 11.0057 101.24 11.2131 100.626 11.6278C100.018 12.0426 99.5497 12.642 99.2202 13.4261C98.8963 14.2102 98.7344 15.1591 98.7344 16.2727C98.7344 17.4318 98.8991 18.4034 99.2287 19.1875C99.5639 19.9659 100.033 20.554 100.635 20.9517C101.243 21.3437 101.962 21.5398 102.791 21.5398C103.257 21.5398 103.68 21.4801 104.061 21.3608C104.447 21.2415 104.786 21.0682 105.075 20.8409C105.371 20.608 105.612 20.3267 105.8 19.9972C105.993 19.6619 106.126 19.2841 106.2 18.8636L110.462 18.8892C110.388 19.6619 110.163 20.4233 109.788 21.1733C109.419 21.9233 108.911 22.608 108.263 23.2273C107.615 23.8409 106.825 24.3295 105.893 24.6932C104.967 25.0568 103.905 25.2386 102.706 25.2386C101.126 25.2386 99.7116 24.892 98.4616 24.1989C97.2173 23.5 96.2344 22.483 95.5128 21.1477C94.7912 19.8125 94.4304 18.1875 94.4304 16.2727C94.4304 14.3523 94.7969 12.7244 95.5298 11.3892C96.2628 10.054 97.2543 9.03977 98.5043 8.34659C99.7543 7.65341 101.155 7.30682 102.706 7.30682C103.763 7.30682 104.74 7.45455 105.638 7.75C106.536 8.03977 107.325 8.46591 108.007 9.02841C108.689 9.58523 109.243 10.2699 109.669 11.0824C110.095 11.8949 110.359 12.8239 110.462 13.8693ZM117.094 7.54545V25H112.876V7.54545H117.094Z" fill="white"/>
</svg>
