<svg width="111" height="27" viewBox="0 0 111 27" fill="none" xmlns="http://www.w3.org/2000/svg">
<g clip-path="url(#clip0_4_99)">
<mask id="mask0_4_99" style="mask-type:luminance" maskUnits="userSpaceOnUse" x="0" y="0" width="111" height="27">
<path d="M110.192 0H0.5V27H110.192V0Z" fill="white"/>
</mask>
<g mask="url(#mask0_4_99)">
<path d="M29.4818 13.9358V13.8848C29.4818 8.88232 33.2729 4.74766 38.5604 4.74766C43.8979 4.74766 47.5892 8.88233 47.5892 13.8337V13.8848C47.5892 18.8872 43.7981 23.0218 38.5106 23.0218C33.2229 23.0218 29.4818 18.8872 29.4818 13.9358ZM44.4466 13.9358V13.8848C44.4466 10.4647 42.0024 7.60621 38.5604 7.60621C35.1186 7.60621 32.7242 10.4137 32.7242 13.8337V13.8848C32.7242 17.3047 35.1684 20.1634 38.6103 20.1634C42.0522 20.1634 44.4466 17.3559 44.4466 13.9358ZM52.0786 6.48321V21.3373C52.0786 22.2051 52.7271 22.8688 53.5751 22.8688C54.4232 22.8688 55.0716 22.2051 55.0716 21.3373V10.72L59.2617 17.1516C59.6109 17.6621 59.96 17.9683 60.5089 17.9683C61.0575 17.9683 61.4566 17.6621 61.8057 17.1516L66.0458 10.6689V21.2863C66.0458 22.103 66.7441 22.8176 67.5422 22.8176C68.3902 22.8176 69.0886 22.1541 69.0886 21.2863V6.48321C69.0886 5.61544 68.4401 4.90081 67.5422 4.90081H67.243C66.6443 4.90081 66.1954 5.15602 65.8462 5.71753L60.5586 14.1399L55.3708 5.76857C55.0717 5.30917 54.6226 4.95185 53.9741 4.95185H53.6748C52.7771 4.90081 52.0786 5.61544 52.0786 6.48321ZM73.4783 20.7248L79.9131 6.07485C80.2623 5.30917 80.861 4.79872 81.7588 4.79872H81.9084C82.7565 4.79872 83.355 5.25813 83.7043 6.07485L90.139 20.7248C90.2388 20.9289 90.2887 21.1842 90.2887 21.3883C90.2887 22.2051 89.6902 22.8688 88.8422 22.8688C88.1439 22.8688 87.645 22.4604 87.3456 21.7967L85.9489 18.4788H77.5188L76.0721 21.8989C75.8228 22.5113 75.3239 22.8688 74.6755 22.8688C73.8774 22.8688 73.2787 22.2561 73.2787 21.4394C73.2787 21.1842 73.3785 20.9289 73.4783 20.7248ZM84.8515 15.6714L81.8086 8.52502L78.7658 15.6714H84.8515ZM94.4788 6.5853C94.4788 5.71753 95.1273 5.00289 96.0252 5.00289H100.964C106.401 5.00289 110.192 8.83128 110.192 13.7827V13.8337C110.192 18.836 106.401 22.6645 100.964 22.6645H96.0252C95.1771 22.6645 94.4788 22.001 94.4788 21.082V6.5853ZM100.964 19.9081C104.605 19.9081 106.999 17.4068 106.999 13.9358V13.8848C106.999 10.4137 104.605 7.86142 100.964 7.86142H97.5217V19.9081H100.964ZM0.5 22.2561C0.5 23.0729 1.14847 23.7874 1.99648 23.7874C2.7946 23.7874 3.49296 23.1239 3.49296 22.2561V7.35098L21.7999 22.9196C22.3486 23.3791 22.6977 23.7365 23.446 23.7365H23.5458C24.3937 23.7365 25.0423 23.0729 25.0423 22.2051V4.4414C25.0423 3.62468 24.3937 2.91004 23.5458 2.91004C22.7476 2.91004 22.0493 3.57364 22.0493 4.4414V19.1423L3.99179 3.77782C3.49296 3.3184 3.09389 2.91004 2.34566 2.91004H2.04635C1.14847 2.91004 0.5 3.62468 0.5 4.49245V22.2561ZM9.17958 13.8848C8.33157 13.8848 7.6831 14.5483 7.6831 15.4161V24.5531C7.6831 25.3699 8.33157 26.0845 9.17958 26.0845C9.97769 26.0845 10.676 25.4209 10.676 24.5531V15.365C10.676 14.5483 10.0276 13.8848 9.17958 13.8848ZM16.4126 19.9591C15.5646 19.9591 14.9161 20.6228 14.9161 21.4904V24.5531C14.9161 25.3699 15.5646 26.0845 16.4126 26.0845C17.2107 26.0845 17.909 25.4209 17.909 24.5531V21.4904C17.8592 20.6228 17.2107 19.9591 16.4126 19.9591ZM16.4126 0.970337C15.5646 0.970337 14.9161 1.63392 14.9161 2.5017V11.1284C14.9161 11.9451 15.5646 12.6597 16.4126 12.6597C17.2107 12.6597 17.909 11.996 17.909 11.1284V2.5017C17.8592 1.63392 17.2107 0.970337 16.4126 0.970337ZM9.17958 0.970337C8.33157 0.970337 7.6831 1.63392 7.6831 2.5017V5.05395C7.6831 5.87066 8.33157 6.5853 9.17958 6.5853C9.97769 6.5853 10.676 5.9217 10.676 5.05395V2.5017C10.676 1.63392 10.0276 0.970337 9.17958 0.970337Z" fill="white"/>
</g>
</g>
<defs>
<clipPath id="clip0_4_99">
<rect width="110" height="27" fill="white" transform="translate(0.5)"/>
</clipPath>
</defs>
</svg>
