<svg width="23" height="19" viewBox="0 0 23 19" fill="none" xmlns="http://www.w3.org/2000/svg">
<path d="M12.375 12.0625V11.5H3.375V12.0625C3.375 12.3789 3.09375 12.625 2.8125 12.625H0.5625C0.246094 12.625 0 12.3789 0 12.0625V9.8125C0 9.53125 0.246094 9.25 0.5625 9.25H1.125V3.625H0.5625C0.246094 3.625 0 3.37891 0 3.0625V0.8125C0 0.53125 0.246094 0.25 0.5625 0.25H2.8125C3.09375 0.25 3.375 0.53125 3.375 0.8125V1.375H12.375V0.8125C12.375 0.53125 12.6211 0.25 12.9375 0.25H15.1875C15.4688 0.25 15.75 0.53125 15.75 0.8125V3.0625C15.75 3.37891 15.4688 3.625 15.1875 3.625H14.625V9.25H15.1875C15.4688 9.25 15.75 9.53125 15.75 9.8125V12.0625C15.75 12.3789 15.4688 12.625 15.1875 12.625H12.9375C12.6211 12.625 12.375 12.3789 12.375 12.0625ZM3.375 9.25H12.375V3.625H3.375V9.25ZM21.9375 9.25H21.375V14.875H21.9375C22.2188 14.875 22.5 15.1562 22.5 15.4375V17.6875C22.5 18.0039 22.2188 18.25 21.9375 18.25H19.6875C19.3711 18.25 19.125 18.0039 19.125 17.6875V17.125H10.125V17.6875C10.125 18.0039 9.84375 18.25 9.5625 18.25H7.3125C6.99609 18.25 6.75 18.0039 6.75 17.6875V15.4375C6.75 15.1562 6.99609 14.875 7.3125 14.875H7.875V12.625H10.125V14.875H19.125V9.25H16.7695C16.5938 8.79297 16.207 8.40625 15.75 8.23047V7H19.125V6.4375C19.125 6.15625 19.3711 5.875 19.6875 5.875H21.9375C22.2188 5.875 22.5 6.15625 22.5 6.4375V8.6875C22.5 9.00391 22.2188 9.25 21.9375 9.25Z" fill="#818CF8"/>
</svg>
