<svg width="131" height="35" viewBox="0 0 131 35" fill="none" xmlns="http://www.w3.org/2000/svg">
<g clip-path="url(#clip0_4_480)">
<mask id="mask0_4_480" style="mask-type:luminance" maskUnits="userSpaceOnUse" x="0" y="0" width="131" height="35">
<path d="M131 0H0V35H131V0Z" fill="white"/>
</mask>
<g mask="url(#mask0_4_480)">
<mask id="mask1_4_480" style="mask-type:alpha" maskUnits="userSpaceOnUse" x="0" y="0" width="35" height="35">
<path fill-rule="evenodd" clip-rule="evenodd" d="M0 0H34.9995V35H0V0Z" fill="white"/>
</mask>
<g mask="url(#mask1_4_480)">
<path fill-rule="evenodd" clip-rule="evenodd" d="M23.3331 29.1667C16.89 29.1667 11.6665 23.9432 11.6665 17.5C11.6665 11.0569 16.89 5.83335 23.3331 5.83335C29.776 5.83335 34.9995 11.0569 34.9995 17.5C34.9995 7.83495 27.1647 0 17.4998 0C7.83484 0 0 7.83495 0 17.5C0 27.1651 7.83484 35 17.4998 35C27.1647 35 34.9995 27.1651 34.9995 17.5C34.9995 23.9432 29.776 29.1667 23.3331 29.1667Z" fill="url(#paint0_linear_4_480)"/>
</g>
<path fill-rule="evenodd" clip-rule="evenodd" d="M17.4987 27.6018C19.2152 28.5954 21.206 29.1663 23.3319 29.1663C29.7749 29.1663 34.9984 23.9432 34.9984 17.4997C34.9984 11.0565 29.7749 5.83301 23.3319 5.83301C21.206 5.83301 19.2152 6.40466 17.4987 7.39789C20.985 9.41505 23.3319 13.1822 23.3319 17.4997C23.3319 21.8175 20.985 25.5847 17.4987 27.6018Z" fill="url(#paint1_linear_4_480)"/>
<path fill-rule="evenodd" clip-rule="evenodd" d="M70.8746 6.07012C70.8746 5.75541 70.9644 5.50817 71.1438 5.32834C71.3232 5.14851 71.5701 5.05859 71.8843 5.05859H74.8121C75.1262 5.05859 75.373 5.14851 75.5524 5.32834C75.7318 5.50817 75.8217 5.75541 75.8217 6.07012V13.2183C75.8217 13.5555 75.889 13.724 76.0236 13.724C76.1358 13.724 76.2816 13.6341 76.4611 13.4543C76.9995 12.8924 77.6501 12.454 78.413 12.1393C79.1757 11.8246 80.0283 11.6672 80.9707 11.6672C81.9354 11.6672 82.8048 11.8134 83.5787 12.1056C84.3528 12.3978 85.0146 12.8136 85.5644 13.3531C86.114 13.8926 86.5403 14.5445 86.8432 15.3087C87.146 16.073 87.2974 16.9272 87.2974 17.8713V27.9192C87.2974 28.2338 87.2077 28.4811 87.0283 28.6609C86.8487 28.8407 86.602 28.9307 86.2878 28.9307H83.3937C83.0795 28.9307 82.8329 28.8407 82.6533 28.6609C82.4738 28.4811 82.384 28.2338 82.384 27.9192V19.1526C82.384 18.2085 82.1148 17.4555 81.5764 16.8935C81.0379 16.3316 80.3088 16.0506 79.389 16.0506C78.1999 16.0506 77.3081 16.5226 76.7135 17.4666C76.119 18.4107 75.8217 19.7594 75.8217 21.5129V27.9192C75.8217 28.2338 75.7318 28.4811 75.5524 28.6609C75.373 28.8407 75.1262 28.9307 74.8121 28.9307H71.8843C71.5701 28.9307 71.3232 28.8407 71.1438 28.6609C70.9644 28.4811 70.8746 28.2338 70.8746 27.9192V6.07012ZM45.1638 26.3005C45.3207 25.7386 45.7471 25.4575 46.4426 25.4575C47.0932 25.4351 47.6092 25.2834 47.9907 25.0024C48.372 24.7215 48.5628 24.3448 48.5628 23.8728C48.5628 23.4233 48.3384 23.0805 47.8898 22.8445C47.4411 22.6084 46.8856 22.4006 46.2238 22.2208C45.5621 22.041 44.844 21.8442 44.0701 21.6306C43.2959 21.4171 42.5781 21.1136 41.9162 20.7203C41.2543 20.3268 40.6991 19.8043 40.2503 19.1524C39.8016 18.5006 39.5772 17.6352 39.5772 16.5562C39.5772 15.8818 39.7175 15.2524 39.9979 14.6679C40.2784 14.0835 40.6823 13.5665 41.2095 13.117C41.7367 12.6674 42.3705 12.3133 43.111 12.0549C43.8513 11.7963 44.6926 11.6671 45.635 11.6671C47.1606 11.6671 48.5178 11.9593 49.707 12.5438C50.8961 13.1282 51.7711 13.9149 52.3319 14.904C52.489 15.1512 52.517 15.3985 52.4161 15.6457C52.3151 15.8931 52.1188 16.0729 51.8272 16.1853L49.707 17.0619C49.5724 17.1293 49.4266 17.1631 49.2694 17.1631C48.9331 17.1631 48.63 16.9607 48.3608 16.5562C48.0468 16.1066 47.6541 15.7694 47.1829 15.5445C46.7118 15.3198 46.2518 15.2075 45.8032 15.2075C45.2423 15.2075 44.7879 15.3142 44.4402 15.5278C44.0925 15.7414 43.9185 16.0392 43.9185 16.4213C43.9185 16.8709 44.143 17.208 44.5917 17.4328C45.0404 17.6576 45.6012 17.8487 46.2743 18.006C46.9474 18.1634 47.6821 18.3375 48.4787 18.5287C49.2751 18.7198 50.0098 19.0119 50.6829 19.4053C51.356 19.7988 51.9169 20.3382 52.3657 21.0238C52.8144 21.7093 53.0386 22.6253 53.0386 23.7717C53.0386 24.5136 52.876 25.2104 52.5506 25.8622C52.2253 26.5141 51.7711 27.0872 51.1877 27.5819C50.6044 28.0763 49.9033 28.4697 49.0844 28.7618C48.2654 29.0541 47.3625 29.2002 46.3753 29.2002H45.8704C45.7134 29.2002 45.5451 29.189 45.3656 29.1665C45.0741 29.1216 44.8608 28.9979 44.7262 28.7957C44.5917 28.5934 44.5692 28.3348 44.659 28.0201L45.1638 26.3005ZM40.8897 29.2004C40.0595 29.2004 39.3639 28.925 38.8031 28.3742C38.2422 27.8235 37.9618 27.1435 37.9618 26.3343C37.9618 25.5026 38.2422 24.8115 38.8031 24.2608C39.3639 23.71 40.0595 23.4347 40.8897 23.4347C41.7197 23.4347 42.4152 23.71 42.9761 24.2608C43.537 24.8115 43.8175 25.5026 43.8175 26.3343C43.8175 27.1435 43.537 27.8235 42.9761 28.3742C42.4152 28.925 41.7197 29.2004 40.8897 29.2004ZM66.8026 27.9191C68.1936 27.0648 69.136 25.8847 69.6295 24.3787C69.7192 24.0864 69.6968 23.8335 69.5623 23.6199C69.4276 23.4064 69.2033 23.266 68.8891 23.1986L66.0286 22.6253C65.6921 22.6253 65.4341 22.6647 65.2547 22.7433C65.075 22.822 64.8955 23.03 64.7161 23.367C64.4469 23.8841 64.0711 24.2831 63.5887 24.564C63.1063 24.845 62.5286 24.9856 61.8556 24.9856C60.7114 24.9856 59.7915 24.5754 59.0959 23.7549C58.4005 22.9343 58.0528 21.8273 58.0528 20.4336C58.0528 19.04 58.395 17.933 59.0791 17.1125C59.7635 16.2921 60.6889 15.8818 61.8556 15.8818C62.5511 15.8818 63.1568 16.0392 63.6728 16.3539C64.1889 16.6685 64.5702 17.1068 64.8171 17.6689C64.9965 18.006 65.1705 18.2195 65.3387 18.3095C65.507 18.3994 65.7594 18.4443 66.0959 18.4443L68.9228 17.9048C69.2369 17.8375 69.4667 17.697 69.6127 17.4834C69.7585 17.2699 69.7865 17.017 69.6968 16.7247C69.2482 15.1287 68.3171 13.8869 66.9035 12.999C65.49 12.1111 63.7402 11.6671 61.6536 11.6671C60.3749 11.6671 59.2025 11.8806 58.1368 12.3077C57.0711 12.7349 56.157 13.3361 55.3942 14.1117C54.6313 14.8871 54.0368 15.8145 53.6105 16.8933C53.1841 17.9722 52.9711 19.1524 52.9711 20.4336C52.9711 21.715 53.1841 22.895 53.6105 23.974C54.0368 25.053 54.6313 25.9802 55.3942 26.7557C56.157 27.5311 57.0711 28.1326 58.1368 28.5597C59.2025 28.9867 60.3749 29.2002 61.6536 29.2002C63.6953 29.2002 65.4116 28.7732 66.8026 27.9191ZM93.6244 28.5428C94.7238 28.981 95.9242 29.2002 97.2254 29.2002C98.5267 29.2002 99.7212 28.981 100.809 28.5428C101.898 28.1044 102.84 27.4975 103.636 26.7221C104.433 25.9465 105.055 25.0193 105.504 23.9403C105.953 22.8613 106.177 21.6924 106.177 20.4336C106.177 19.1749 105.953 18.006 105.504 16.927C105.055 15.8481 104.433 14.9208 103.636 14.1454C102.84 13.3699 101.898 12.763 100.809 12.3246C99.7212 11.8863 98.5267 11.6671 97.2254 11.6671C95.9242 11.6671 94.7238 11.8863 93.6244 12.3246C92.5252 12.763 91.5773 13.3699 90.7807 14.1454C89.9842 14.9208 89.3672 15.8481 88.9298 16.927C88.4922 18.006 88.2735 19.1749 88.2735 20.4336C88.2735 21.6924 88.4922 22.8613 88.9298 23.9403C89.3672 25.0193 89.9842 25.9465 90.7807 26.7221C91.5773 27.4975 92.5252 28.1044 93.6244 28.5428ZM97.2254 24.9858C98.437 24.9858 99.4072 24.5643 100.136 23.7214C100.866 22.8783 101.23 21.7825 101.23 20.4339C101.23 19.0852 100.866 17.9893 100.136 17.1464C99.4072 16.3034 98.437 15.882 97.2254 15.882C96.0139 15.882 95.0379 16.3034 94.2975 17.1464C93.5572 17.9893 93.187 19.0852 93.187 20.4339C93.187 21.7825 93.5572 22.8783 94.2975 23.7214C95.0379 24.5643 96.0139 24.9858 97.2254 24.9858ZM111.629 28.5428C112.729 28.981 113.928 29.2002 115.23 29.2002C116.531 29.2002 117.726 28.981 118.814 28.5428C119.902 28.1044 120.844 27.4975 121.641 26.7221C122.438 25.9465 123.06 25.0193 123.509 23.9403C123.958 22.8613 124.181 21.6924 124.181 20.4336C124.181 19.1749 123.958 18.006 123.509 16.927C123.06 15.8481 122.438 14.9208 121.641 14.1454C120.844 13.3699 119.902 12.763 118.814 12.3246C117.726 11.8863 116.531 11.6671 115.23 11.6671C113.928 11.6671 112.729 11.8863 111.629 12.3246C110.53 12.763 109.581 13.3699 108.786 14.1454C107.989 14.9208 107.372 15.8481 106.934 16.927C106.497 18.006 106.278 19.1749 106.278 20.4336C106.278 21.6924 106.497 22.8613 106.934 23.9403C107.372 25.0193 107.989 25.9465 108.786 26.7221C109.581 27.4975 110.53 28.1044 111.629 28.5428ZM115.23 24.9858C116.441 24.9858 117.412 24.5643 118.141 23.7214C118.87 22.8783 119.235 21.7825 119.235 20.4339C119.235 19.0852 118.87 17.9893 118.141 17.1464C117.412 16.3034 116.441 15.882 115.23 15.882C114.019 15.882 113.043 16.3034 112.302 17.1464C111.562 17.9893 111.192 19.0852 111.192 20.4339C111.192 21.7825 111.562 22.8783 112.302 23.7214C113.043 24.5643 114.019 24.9858 115.23 24.9858ZM125.393 5.32834C125.214 5.50817 125.125 5.75541 125.125 6.07012V27.9192C125.125 28.2338 125.214 28.4811 125.393 28.6609C125.573 28.8407 125.82 28.9307 126.134 28.9307H129.062C129.375 28.9307 129.622 28.8407 129.802 28.6609C129.981 28.4811 130.071 28.2338 130.071 27.9192V6.07012C130.071 5.75541 129.981 5.50817 129.802 5.32834C129.622 5.14851 129.375 5.05859 129.062 5.05859H126.134C125.82 5.05859 125.573 5.14851 125.393 5.32834Z" fill="white"/>
</g>
</g>
<defs>
<linearGradient id="paint0_linear_4_480" x1="17.4997" y1="0" x2="17.4997" y2="35" gradientUnits="userSpaceOnUse">
<stop stop-color="white" stop-opacity="0.4"/>
<stop offset="1" stop-color="white" stop-opacity="0.69"/>
</linearGradient>
<linearGradient id="paint1_linear_4_480" x1="33.8806" y1="26.1857" x2="33.8806" y2="5.83301" gradientUnits="userSpaceOnUse">
<stop stop-color="white" stop-opacity="0.31"/>
<stop offset="1" stop-color="white" stop-opacity="0.76"/>
</linearGradient>
<clipPath id="clip0_4_480">
<rect width="131" height="35" fill="white"/>
</clipPath>
</defs>
</svg>
