<svg width="18" height="19" viewBox="0 0 18 19" fill="none" xmlns="http://www.w3.org/2000/svg">
<path d="M16.3828 3.70312C17.0156 3.98438 17.4375 4.58203 17.4375 5.25C17.4375 14.3906 10.7227 18.75 8.96484 18.75C7.20703 18.75 0.5625 14.3203 0.5625 5.25C0.5625 4.58203 0.949219 3.98438 1.58203 3.70312L8.33203 0.890625C8.54297 0.820312 8.75391 0.785156 9 0.785156C9.21094 0.785156 9.42188 0.820312 9.63281 0.890625L16.3828 3.70312ZM9 17.0625C12.2695 15.6914 15.75 11.3672 15.75 5.25L9 2.4375L2.25 5.25C2.25 11.2266 5.55469 15.6562 9 17.0625ZM7.03125 9.43359L8.08594 10.4883L10.8633 7.21875C11.0391 7.00781 11.2852 6.9375 11.5312 6.9375C12.1641 6.9375 12.375 7.5 12.375 7.78125C12.375 7.95703 12.3047 8.16797 12.1641 8.30859L8.78906 12.2461C8.54297 12.5273 8.22656 12.5625 8.15625 12.5625C7.91016 12.5625 7.69922 12.4922 7.55859 12.3164L5.87109 10.6289C5.69531 10.4883 5.625 10.2773 5.625 10.0312C5.625 9.57422 5.97656 9.1875 6.46875 9.1875C6.67969 9.1875 6.89062 9.29297 7.03125 9.43359Z" fill="white"/>
</svg>
