<svg width="22" height="20" viewBox="0 0 22 20" fill="none" xmlns="http://www.w3.org/2000/svg">
<path d="M4.125 7C4.85547 7 5.5 7.64453 5.5 8.375V17.9141C5.5 18.6445 4.85547 19.2461 4.125 19.2461H1.375C0.601562 19.2461 0 18.6445 0 17.9141V8.33203C0 7.60156 0.601562 7 1.375 7H4.125ZM22 8.50391C22 9.53516 21.4414 10.3945 20.668 10.9102C20.7109 11.168 20.7539 11.3828 20.7539 11.5977C20.7539 12.5859 20.2383 13.4453 19.5078 13.9609C19.5078 14.0898 19.5078 14.2188 19.5078 14.3477C19.5078 15.3359 19.0352 16.1953 18.2617 16.7109C18.1758 18.2148 16.9297 19.375 15.4258 19.375H13.1484C11.6016 19.375 10.0977 18.9023 8.85156 17.957L7.26172 16.7969C7.00391 16.582 6.83203 16.2812 6.83203 15.9375C6.83203 15.4219 7.30469 14.9062 7.90625 14.9062C8.12109 14.9062 8.33594 14.9922 8.50781 15.1211L10.0977 16.3242C10.957 16.9688 12.0312 17.3555 13.1484 17.3555H15.4258C15.8555 17.3555 16.2422 16.9688 16.2422 16.5391C16.2422 16.3672 16.1562 16.3242 16.1562 16.1094C16.1562 14.9492 17.4453 15.3359 17.4453 14.3477C17.4453 13.9609 17.1875 13.875 17.1875 13.4023C17.1875 12.1133 18.6914 12.6719 18.6914 11.5977C18.6914 11.0391 18.1758 11.0391 18.1758 10.3516C18.1758 9.83594 18.6055 9.36328 19.1641 9.32031C19.5938 9.32031 19.9375 8.93359 19.9375 8.50391C19.9375 8.07422 19.5508 7.73047 19.0781 7.6875H13.1914C12.6328 7.6875 12.1602 7.30078 12.1602 6.69922C12.1602 6.52734 12.2031 6.35547 12.2891 6.18359C13.0625 4.80859 13.4062 3.43359 13.4062 3.08984C13.4062 2.74609 13.1484 2.23047 12.418 2.23047C11 2.23047 11.8164 4.85156 8.50781 7.47266C8.33594 7.64453 8.12109 7.6875 7.90625 7.6875C7.30469 7.6875 6.875 7.21484 6.875 6.65625C6.875 5.49609 8.07812 6.14062 9.45312 2.66016C9.88281 1.54297 10.4414 0.167969 12.418 0.167969C14.3086 0.167969 15.4688 1.62891 15.4688 3.08984C15.4688 3.64844 15.2109 4.59375 14.8242 5.66797H19.1211C20.668 5.66797 22 6.95703 22 8.50391Z" fill="#818CF8"/>
</svg>
