<svg width="16" height="16" viewBox="0 0 16 16" fill="none" xmlns="http://www.w3.org/2000/svg">
<path d="M15.3594 14.9158C15.5 15.0564 15.5 15.2908 15.3594 15.4314C15.2188 15.572 14.9844 15.572 14.8438 15.4314L8 8.58765L1.10938 15.4314C0.96875 15.572 0.734375 15.572 0.59375 15.4314C0.453125 15.2908 0.453125 15.0564 0.59375 14.9158L7.4375 8.02515L0.59375 1.1814C0.453125 1.04077 0.453125 0.806396 0.59375 0.665771C0.734375 0.525146 0.96875 0.525146 1.10938 0.665771L8 7.50952L14.8438 0.665771C14.9844 0.525146 15.2188 0.525146 15.3594 0.665771C15.5 0.806396 15.5 1.04077 15.3594 1.1814L8.51562 8.02515L15.3594 14.9158Z" fill="#EF4444"/>
</svg>
